<svg xmlns="http://www.w3.org/2000/svg" xmlns:xlink="http://www.w3.org/1999/xlink" width="500" zoomAndPan="magnify" viewBox="0 0 375 374.999991" height="500" preserveAspectRatio="xMidYMid meet" version="1.2"><defs><clipPath id="af2ba7ca98"><path d="M 325.113281 20.230469 L 331.679688 20.230469 L 331.679688 26.792969 L 325.113281 26.792969 Z M 325.113281 20.230469 "/></clipPath><clipPath id="be524a454a"><path d="M 328.398438 26.792969 L 325.113281 23.511719 L 326.753906 23.511719 L 326.753906 20.230469 L 330.039062 20.230469 L 330.039062 23.511719 L 331.679688 23.511719 Z M 328.398438 26.792969 "/></clipPath></defs><g id="8b7a736509"><path style=" stroke:none;fill-rule:nonzero;fill:#c5ec8e;fill-opacity:1;" d="M 353.972656 1.4375 C 349.878906 0.00390625 344.859375 1.210938 341.417969 3.671875 C 306.976562 28.269531 271.59375 51.515625 235.347656 73.363281 C 231.683594 75.570312 230.335938 80.925781 234.183594 83.570312 C 238.613281 86.613281 244.578125 84.757812 248.695312 82.277344 C 267.707031 70.820312 286.476562 58.960938 305.003906 46.738281 C 270.351562 83.105469 236.160156 119.914062 202.46875 157.171875 C 162.09375 201.828125 122.414062 247.121094 83.464844 293.023438 C 61.582031 318.808594 39.929688 344.792969 18.503906 370.960938 C 15.679688 374.410156 21.003906 374.9375 23.429688 374.804688 C 27.476562 374.582031 34.167969 373.230469 36.953125 369.828125 C 74.945312 323.429688 113.648438 277.621094 153.066406 232.433594 C 192.644531 187.066406 232.933594 142.324219 273.914062 98.222656 C 290.3125 80.582031 306.828125 63.046875 323.445312 45.613281 C 308.769531 84.933594 295.738281 124.863281 284.347656 165.261719 C 282.96875 170.164062 290.328125 171.929688 293.648438 171.667969 C 298.613281 171.28125 303.457031 168.554688 304.847656 163.613281 C 319.625 111.207031 337.320312 59.660156 357.75 9.191406 C 359.171875 5.675781 357.472656 2.65625 353.972656 1.4375 "/><g clip-rule="nonzero" clip-path="url(#af2ba7ca98)"><g clip-rule="nonzero" clip-path="url(#be524a454a)"><path style=" stroke:none;fill-rule:nonzero;fill:#c5ec8e;fill-opacity:1;" d="M 325.113281 20.230469 L 331.679688 20.230469 L 331.679688 26.792969 L 325.113281 26.792969 Z M 325.113281 20.230469 "/></g></g></g></svg>