<svg xmlns="http://www.w3.org/2000/svg" xmlns:xlink="http://www.w3.org/1999/xlink" width="500" zoomAndPan="magnify" viewBox="0 0 375 374.999991" height="500" preserveAspectRatio="xMidYMid meet" version="1.2"><defs><clipPath id="ecc9daa921"><path d="M 187.5 0 C 83.945312 0 0 83.945312 0 187.5 C 0 291.054688 83.945312 375 187.5 375 C 291.054688 375 375 291.054688 375 187.5 C 375 83.945312 291.054688 0 187.5 0 Z M 187.5 0 "/></clipPath><clipPath id="c0b8cf1510"><path d="M 46.59375 32.230469 L 328.59375 32.230469 L 328.59375 342.730469 L 46.59375 342.730469 Z M 46.59375 32.230469 "/></clipPath></defs><g id="1b9673512e"><g clip-rule="nonzero" clip-path="url(#ecc9daa921)"><rect x="0" width="375" y="0" height="374.999991" style="fill:#70e6ed;fill-opacity:1;stroke:none;"/></g><g clip-rule="nonzero" clip-path="url(#c0b8cf1510)"><path style=" stroke:none;fill-rule:nonzero;fill:#000000;fill-opacity:1;" d="M 126.929688 125.488281 C 138.617188 125.488281 149.539062 131.886719 155.417969 142.199219 C 155.695312 142.691406 155.765625 143.25 155.625 143.808594 C 155.488281 144.367188 155.136719 144.824219 154.613281 145.101562 C 154.296875 145.277344 153.910156 145.382812 153.5625 145.382812 C 152.792969 145.382812 152.09375 144.964844 151.707031 144.300781 C 145.617188 133.5625 134.804688 129.753906 126.753906 129.753906 C 125.496094 129.753906 124.234375 129.859375 123.046875 130.03125 C 113.457031 131.429688 106.457031 137.796875 104.289062 147.097656 C 104.078125 148.074219 103.203125 148.738281 102.222656 148.738281 C 102.050781 148.738281 101.910156 148.703125 101.734375 148.667969 C 100.578125 148.390625 99.878906 147.269531 100.160156 146.117188 C 102.714844 135.066406 111.042969 127.445312 122.453125 125.800781 C 123.886719 125.625 125.425781 125.488281 126.929688 125.488281 Z M 131.515625 287.136719 C 131.304688 288.289062 132.074219 289.410156 133.230469 289.617188 C 135.121094 289.96875 137.042969 290.144531 138.863281 290.144531 C 143.589844 290.144531 147.925781 288.988281 151.742188 286.714844 L 151.847656 286.644531 L 151.953125 286.714844 C 153.105469 287.449219 155.277344 289.128906 157.132812 291.785156 C 160.839844 297.136719 161.46875 303.851562 159.054688 311.683594 C 158.882812 312.242188 158.949219 312.800781 159.195312 313.289062 C 159.476562 313.78125 159.894531 314.164062 160.457031 314.339844 C 160.664062 314.410156 160.875 314.445312 161.085938 314.445312 C 162.03125 314.445312 162.835938 313.851562 163.117188 312.941406 C 168.050781 296.855469 160.527344 287.976562 155.589844 284.128906 L 155.417969 283.988281 L 155.554688 283.847656 C 157.972656 281.609375 159.964844 278.917969 161.402344 275.773438 C 166.089844 265.703125 165.355469 250.175781 152.6875 239.828125 C 152.300781 239.511719 151.847656 239.335938 151.355469 239.335938 C 150.726562 239.335938 150.132812 239.617188 149.710938 240.105469 C 149.363281 240.5625 149.1875 241.085938 149.257812 241.679688 C 149.328125 242.238281 149.574219 242.765625 150.027344 243.113281 C 160.945312 252.03125 161.574219 265.351562 157.585938 273.988281 C 154.085938 281.542969 147.261719 285.878906 138.933594 285.878906 C 137.324219 285.878906 135.679688 285.703125 134.035156 285.421875 C 133.894531 285.386719 133.789062 285.386719 133.648438 285.386719 C 132.566406 285.421875 131.691406 286.121094 131.515625 287.136719 Z M 316.289062 230.734375 C 323.847656 249.511719 321.398438 271.226562 309.777344 288.847656 C 299.59375 304.269531 284.128906 313.710938 268.414062 314.058594 L 268.308594 314.058594 L 268.273438 314.164062 C 265.859375 319.023438 262.640625 323.394531 258.722656 327.136719 C 246.648438 338.640625 229.992188 342.730469 218.441406 342.730469 C 216.027344 342.730469 213.71875 342.558594 211.582031 342.242188 C 204.6875 341.160156 199.40625 338.046875 195.347656 332.660156 C 191.8125 327.976562 189.328125 321.613281 187.71875 313.289062 L 187.367188 313.289062 C 185.757812 321.648438 183.273438 327.976562 179.738281 332.660156 C 175.679688 338.046875 170.394531 341.195312 163.5 342.242188 C 161.367188 342.558594 159.054688 342.730469 156.640625 342.730469 C 145.09375 342.730469 128.46875 338.640625 116.363281 327.136719 C 112.441406 323.394531 109.222656 319.023438 106.808594 314.164062 L 106.773438 314.058594 L 106.667969 314.058594 C 90.992188 313.710938 75.523438 304.269531 65.339844 288.847656 C 53.6875 271.226562 51.273438 249.511719 58.832031 230.734375 L 58.867188 230.628906 L 58.796875 230.558594 C 51.203125 222.9375 46.617188 209.546875 46.898438 195.628906 C 47.246094 178.460938 54.457031 163.566406 66.738281 154.71875 L 66.84375 154.648438 L 66.808594 154.542969 C 64.851562 145.382812 65.515625 135.695312 68.769531 126.535156 C 73.003906 114.578125 80.949219 104.855469 90.082031 100.589844 L 90.1875 100.519531 L 90.1875 100.382812 C 89.207031 92.722656 90.292969 85.03125 93.195312 78.667969 C 96.449219 71.535156 101.734375 66.742188 108.488281 64.785156 L 108.59375 64.75 L 108.628906 64.644531 C 112.476562 52.546875 121.472656 42.617188 132.703125 38.035156 C 136.660156 36.429688 140.613281 35.625 144.464844 35.625 C 149.082031 35.625 153.492188 36.847656 157.203125 39.15625 L 157.339844 39.226562 L 157.445312 39.085938 C 160.875 34.609375 165.320312 32.230469 170.324219 32.230469 C 172.109375 32.230469 173.964844 32.546875 175.855469 33.140625 C 175.886719 33.140625 175.957031 33.175781 175.992188 33.210938 C 181.769531 35.519531 185.371094 39.332031 187.402344 45.167969 L 187.578125 45.660156 L 187.75 45.167969 C 189.746094 39.332031 193.386719 35.519531 199.160156 33.210938 C 199.195312 33.175781 199.265625 33.175781 199.300781 33.175781 C 201.191406 32.582031 203.042969 32.265625 204.828125 32.265625 C 209.832031 32.265625 214.3125 34.644531 217.777344 39.191406 L 217.882812 39.332031 L 218.023438 39.261719 C 221.695312 36.953125 226.105469 35.730469 230.726562 35.730469 C 234.574219 35.730469 238.53125 36.53125 242.484375 38.140625 C 253.71875 42.6875 262.710938 52.652344 266.558594 64.75 L 266.59375 64.855469 L 266.699219 64.890625 C 273.453125 66.847656 278.738281 71.640625 281.992188 78.773438 C 284.898438 85.136719 285.984375 92.863281 285.003906 100.484375 L 285.003906 100.625 L 285.109375 100.695312 C 294.242188 104.960938 302.183594 114.683594 306.417969 126.640625 C 309.675781 135.835938 310.339844 145.523438 308.378906 154.648438 L 308.34375 154.753906 L 308.449219 154.824219 C 320.734375 163.671875 327.941406 178.566406 328.292969 195.734375 C 328.570312 209.6875 324.023438 223.078125 316.394531 230.664062 L 316.324219 230.734375 Z M 138.128906 84.015625 C 138.480469 83.773438 138.898438 83.632812 139.355469 83.632812 C 140.054688 83.632812 140.683594 83.980469 141.105469 84.542969 C 146.144531 91.710938 154.191406 95.976562 162.589844 95.976562 C 164.796875 95.976562 167 95.695312 169.132812 95.136719 C 178.339844 92.6875 184.390625 85.519531 185.300781 75.976562 C 185.300781 75.835938 185.335938 75.660156 185.40625 75.484375 L 185.40625 67.652344 C 185.40625 49.960938 184.324219 41.183594 174.453125 37.199219 C 173.019531 36.742188 171.621094 36.53125 170.289062 36.53125 C 166.613281 36.53125 163.429688 38.28125 160.769531 41.707031 L 160.664062 41.847656 L 160.804688 41.953125 C 171.164062 50.695312 171.480469 62.546875 171.480469 63.875 C 171.480469 65.066406 170.535156 66.007812 169.34375 66.007812 C 168.15625 66.007812 167.210938 65.066406 167.210938 63.875 C 167.210938 62.582031 166.894531 51.078125 155.800781 43.492188 C 152.582031 41.183594 148.628906 39.960938 144.359375 39.960938 C 141.070312 39.960938 137.640625 40.660156 134.210938 42.058594 C 122.660156 46.742188 113.703125 58.003906 111.429688 70.695312 C 109.46875 81.535156 112.757812 88.738281 115.835938 92.863281 C 119.828125 98.179688 125.007812 100.554688 127.316406 100.800781 C 128.46875 100.941406 129.34375 101.988281 129.207031 103.144531 C 129.101562 104.226562 128.191406 105.03125 127.105469 105.03125 C 127.035156 105.03125 126.964844 105.03125 126.894531 105.03125 C 123.117188 104.648438 116.992188 101.464844 112.441406 95.417969 C 108.875 90.660156 105.058594 82.375 107.230469 70.101562 L 107.296875 69.785156 L 106.984375 69.925781 C 96.171875 74.960938 92.53125 89.648438 94.59375 101.535156 C 94.769531 102.515625 94.210938 103.527344 93.265625 103.878906 C 84.796875 107.128906 76.75 116.605469 72.722656 128.003906 C 69.992188 135.730469 66.808594 151.117188 76.152344 167.238281 C 79.898438 173.707031 85.007812 177.691406 91.339844 179.089844 C 93.089844 179.476562 94.945312 179.683594 96.871094 179.683594 C 110.132812 179.683594 123.359375 170.558594 123.5 170.488281 C 123.851562 170.242188 124.269531 170.105469 124.726562 170.105469 C 125.425781 170.105469 126.054688 170.453125 126.476562 171.011719 C 127.140625 171.957031 126.929688 173.285156 125.949219 173.984375 C 125.355469 174.40625 111.53125 183.949219 96.90625 183.949219 C 96.765625 183.949219 96.660156 183.949219 96.519531 183.949219 C 96.449219 183.949219 96.34375 183.949219 96.273438 183.949219 L 96.03125 183.949219 L 96.101562 184.160156 C 97.886719 190.839844 97.183594 197.34375 94.140625 202.449219 C 91.304688 207.203125 86.617188 210.421875 81.261719 211.257812 C 81.15625 211.292969 81.050781 211.292969 80.914062 211.292969 C 79.863281 211.292969 78.988281 210.523438 78.8125 209.511719 C 78.707031 208.953125 78.847656 208.390625 79.199219 207.9375 C 79.546875 207.484375 80.039062 207.167969 80.597656 207.097656 C 84.761719 206.433594 88.261719 204.019531 90.464844 200.316406 C 93.195312 195.734375 93.546875 189.789062 91.445312 183.601562 L 91.410156 183.496094 L 91.0625 183.425781 C 90.851562 183.390625 90.640625 183.355469 90.394531 183.285156 C 82.871094 181.609375 76.816406 176.957031 72.445312 169.40625 C 70.625 166.222656 69.121094 162.902344 68 159.4375 L 67.929688 159.195312 L 67.71875 159.335938 C 57.535156 167.339844 51.445312 180.628906 51.167969 195.699219 C 50.886719 210.175781 55.960938 223.496094 64.113281 229.582031 C 69.925781 233.707031 76.011719 234.335938 79.128906 234.335938 C 82.066406 234.335938 84.867188 233.8125 86.792969 232.867188 C 86.964844 232.796875 87.140625 232.726562 87.386719 232.695312 L 87.457031 232.695312 L 87.492188 232.625 C 90.324219 228.8125 93.824219 225.628906 97.953125 223.148438 C 104.007812 219.511719 111.253906 217.519531 118.285156 217.519531 C 122.695312 217.519531 126.894531 218.253906 130.746094 219.757812 C 131.828125 220.175781 132.390625 221.398438 131.96875 222.519531 C 131.65625 223.324219 130.851562 223.882812 129.976562 223.882812 C 129.730469 223.882812 129.449219 223.847656 129.207031 223.742188 C 125.914062 222.484375 122.242188 221.820312 118.355469 221.820312 C 111.988281 221.820312 105.515625 223.601562 100.125 226.820312 C 93.964844 230.527344 86.265625 237.761719 84.585938 251.332031 C 83.503906 258.113281 84.550781 265.246094 86.125 268.5 C 86.617188 269.546875 86.160156 270.839844 85.113281 271.332031 C 84.832031 271.472656 84.515625 271.539062 84.203125 271.539062 C 83.398438 271.539062 82.628906 271.050781 82.277344 270.316406 C 80.074219 265.667969 79.300781 257.625 80.386719 250.734375 C 80.914062 246.367188 82.136719 242.203125 83.957031 238.429688 L 84.097656 238.113281 L 83.746094 238.183594 C 82.207031 238.460938 80.597656 238.601562 78.988281 238.601562 C 74.894531 238.601562 68.734375 237.730469 62.503906 233.671875 L 62.332031 233.566406 L 62.261719 233.777344 C 55.890625 250.910156 58.375 270.667969 68.910156 286.613281 C 77.902344 300.25 90.957031 308.710938 104.675781 309.792969 L 104.953125 309.828125 L 104.847656 309.585938 C 101.910156 301.613281 100.964844 292.589844 102.015625 282.800781 C 103.765625 266.367188 111.324219 258.671875 117.378906 255.105469 C 117.691406 254.898438 118.078125 254.828125 118.460938 254.828125 C 119.195312 254.828125 119.933594 255.210938 120.28125 255.875 C 120.5625 256.367188 120.667969 256.925781 120.527344 257.484375 C 120.386719 258.042969 120.035156 258.5 119.546875 258.777344 C 112.09375 263.183594 107.472656 271.644531 106.25 283.289062 C 104.429688 300.421875 108.839844 314.164062 119.371094 324.199219 C 130.535156 334.828125 146.039062 338.640625 156.78125 338.640625 C 158.949219 338.640625 160.980469 338.5 162.90625 338.1875 C 181.664062 335.285156 185.441406 313.429688 185.476562 279.128906 L 185.476562 234.128906 C 185.371094 233.847656 185.335938 233.53125 185.371094 233.253906 C 185.40625 232.9375 185.441406 232.625 185.441406 232.308594 L 185.441406 232.097656 C 185.371094 230.875 185.371094 229.582031 185.441406 228.289062 C 184.882812 220.105469 180.996094 211.75 175.015625 205.910156 C 170.746094 201.714844 163.359375 196.75 152.441406 196.75 C 150.796875 196.75 149.046875 196.851562 147.332031 197.097656 C 140.507812 197.761719 133.859375 200.59375 131.09375 202.902344 C 130.710938 203.21875 130.21875 203.390625 129.730469 203.390625 C 129.101562 203.390625 128.503906 203.113281 128.085938 202.621094 C 127.734375 202.203125 127.5625 201.644531 127.59375 201.085938 C 127.628906 200.523438 127.910156 200 128.332031 199.652344 C 132.285156 196.328125 139.878906 193.566406 146.808594 192.867188 C 148.628906 192.621094 150.414062 192.515625 152.195312 192.515625 C 153.84375 192.515625 155.453125 192.621094 157.0625 192.832031 L 157.203125 192.867188 L 157.238281 192.726562 C 159.089844 185.523438 158.320312 179.371094 154.890625 174.40625 C 152.195312 170.488281 148.800781 168.773438 148.769531 168.742188 C 148.242188 168.496094 147.859375 168.039062 147.683594 167.515625 C 147.507812 166.992188 147.542969 166.398438 147.789062 165.90625 C 148.136719 165.171875 148.871094 164.71875 149.710938 164.71875 C 150.027344 164.71875 150.34375 164.789062 150.65625 164.929688 C 150.832031 165 166.613281 173.007812 161.472656 193.496094 L 161.4375 193.671875 L 161.609375 193.707031 C 167.804688 195.28125 173.300781 198.390625 177.917969 202.9375 C 180.71875 205.664062 183.132812 208.882812 185.058594 212.449219 L 185.371094 212.378906 L 185.371094 88.316406 L 185.058594 88.773438 C 181.558594 93.914062 176.414062 97.515625 170.183594 99.15625 C 170.078125 99.191406 169.972656 99.226562 169.871094 99.226562 C 169.800781 99.261719 169.695312 99.261719 169.625 99.296875 L 169.554688 99.296875 L 169.519531 99.367188 C 159.335938 114.824219 169.484375 125.03125 169.90625 125.453125 C 170.746094 126.257812 170.78125 127.621094 169.941406 128.460938 C 169.519531 128.878906 168.996094 129.125 168.398438 129.125 C 167.839844 129.125 167.316406 128.914062 166.929688 128.527344 C 166.824219 128.425781 155.3125 117.058594 163.957031 100.382812 L 164.09375 100.101562 L 163.605469 100.136719 C 163.253906 100.136719 162.871094 100.171875 162.519531 100.171875 C 152.757812 100.171875 143.449219 95.242188 137.605469 86.953125 C 136.9375 86.011719 137.183594 84.679688 138.128906 84.015625 Z M 312.859375 233.707031 L 312.789062 233.496094 L 312.613281 233.601562 C 306.347656 237.695312 300.191406 238.53125 296.132812 238.53125 C 294.519531 238.53125 292.945312 238.394531 291.371094 238.113281 L 291.023438 238.042969 L 291.160156 238.359375 C 293.015625 242.167969 294.207031 246.332031 294.765625 250.734375 C 295.851562 257.554688 295.082031 265.5625 292.875 270.246094 C 292.527344 270.980469 291.757812 271.472656 290.953125 271.472656 C 290.636719 271.472656 290.320312 271.402344 290.042969 271.261719 C 289.515625 271.015625 289.132812 270.597656 288.957031 270.074219 C 288.78125 269.546875 288.78125 268.953125 289.027344 268.464844 C 290.566406 265.210938 291.652344 258.113281 290.566406 251.402344 C 288.886719 237.761719 281.1875 230.527344 275.027344 226.820312 C 269.640625 223.601562 263.164062 221.820312 256.796875 221.820312 C 252.914062 221.820312 249.238281 222.449219 245.949219 223.742188 C 245.703125 223.847656 245.457031 223.882812 245.179688 223.882812 C 244.304688 223.882812 243.5 223.324219 243.183594 222.519531 C 242.972656 221.992188 243.007812 221.398438 243.21875 220.910156 C 243.464844 220.386719 243.882812 220 244.410156 219.789062 C 248.257812 218.324219 252.457031 217.554688 256.867188 217.554688 C 263.9375 217.554688 271.144531 219.546875 277.199219 223.183594 C 281.328125 225.664062 284.863281 228.847656 287.664062 232.660156 L 287.699219 232.726562 L 287.765625 232.726562 C 288.011719 232.761719 288.1875 232.832031 288.363281 232.902344 C 290.285156 233.847656 293.050781 234.371094 295.992188 234.371094 C 299.105469 234.371094 305.195312 233.742188 311.039062 229.582031 C 319.15625 223.496094 324.230469 210.210938 323.953125 195.734375 C 323.671875 180.664062 317.582031 167.375 307.292969 159.230469 L 307.085938 159.089844 L 307.015625 159.335938 C 305.894531 162.796875 304.425781 166.152344 302.570312 169.300781 C 298.195312 176.851562 292.140625 181.539062 284.617188 183.179688 C 284.40625 183.214844 284.164062 183.285156 283.953125 183.320312 L 283.601562 183.390625 L 283.566406 183.496094 C 281.46875 189.683594 281.816406 195.628906 284.546875 200.210938 C 286.753906 203.917969 290.285156 206.363281 294.417969 206.992188 C 294.976562 207.097656 295.464844 207.378906 295.816406 207.832031 C 296.167969 208.285156 296.269531 208.847656 296.199219 209.40625 C 296.027344 210.453125 295.152344 211.1875 294.101562 211.1875 C 293.996094 211.1875 293.890625 211.1875 293.75 211.152344 C 288.398438 210.316406 283.707031 207.097656 280.875 202.34375 C 277.828125 197.203125 277.128906 190.699219 278.914062 184.054688 L 278.984375 183.84375 L 278.492188 183.84375 C 278.355469 183.84375 278.25 183.84375 278.109375 183.84375 C 263.480469 183.84375 249.65625 174.265625 249.0625 173.84375 C 248.117188 173.179688 247.875 171.851562 248.539062 170.875 C 248.921875 170.3125 249.589844 169.964844 250.289062 169.964844 C 250.707031 169.964844 251.164062 170.105469 251.511719 170.347656 C 251.652344 170.453125 264.84375 179.542969 278.144531 179.542969 C 280.070312 179.542969 281.921875 179.335938 283.671875 178.949219 C 290.007812 177.550781 295.117188 173.566406 298.859375 167.097656 C 308.203125 150.976562 305.019531 135.628906 302.289062 127.898438 C 298.265625 116.5 290.21875 107.058594 281.75 103.773438 C 280.804688 103.421875 280.242188 102.410156 280.417969 101.429688 C 282.449219 89.507812 278.84375 74.820312 268.03125 69.820312 L 267.714844 69.679688 L 267.785156 69.996094 C 269.953125 82.304688 266.140625 90.554688 262.570312 95.3125 C 258.054688 101.324219 251.898438 104.507812 248.117188 104.925781 C 248.046875 104.925781 247.976562 104.925781 247.875 104.925781 C 246.789062 104.925781 245.878906 104.121094 245.773438 103.039062 C 245.632812 101.886719 246.507812 100.835938 247.664062 100.695312 C 249.972656 100.453125 255.152344 98.074219 259.140625 92.757812 C 262.222656 88.632812 265.511719 81.464844 263.550781 70.589844 C 261.277344 57.898438 252.316406 46.636719 240.769531 41.953125 C 237.339844 40.554688 233.910156 39.855469 230.621094 39.855469 C 226.351562 39.855469 222.433594 41.078125 219.246094 43.351562 C 208.1875 51.007812 207.875 62.546875 207.875 63.808594 C 207.875 64.996094 206.929688 65.941406 205.738281 65.941406 C 204.550781 65.941406 203.605469 64.996094 203.605469 63.808594 C 203.605469 62.476562 203.917969 50.660156 214.277344 41.882812 L 214.417969 41.777344 L 214.3125 41.636719 C 211.652344 38.210938 208.46875 36.464844 204.792969 36.464844 C 203.464844 36.464844 202.101562 36.671875 200.664062 37.128906 C 190.761719 41.148438 189.675781 49.925781 189.675781 67.617188 L 189.675781 75.449219 C 189.746094 75.625 189.78125 75.800781 189.78125 75.941406 C 190.691406 85.484375 196.746094 92.652344 205.949219 95.101562 C 208.082031 95.660156 210.289062 95.941406 212.492188 95.941406 C 220.890625 95.941406 228.941406 91.675781 233.980469 84.507812 C 234.363281 83.945312 235.03125 83.597656 235.730469 83.597656 C 236.183594 83.597656 236.605469 83.738281 236.953125 83.980469 C 237.898438 84.648438 238.144531 85.976562 237.480469 86.953125 C 231.636719 95.242188 222.328125 100.171875 212.5625 100.171875 C 212.214844 100.171875 211.828125 100.171875 211.476562 100.136719 L 210.988281 100.101562 L 211.128906 100.382812 C 219.773438 117.023438 208.257812 128.425781 208.152344 128.527344 C 207.769531 128.914062 207.242188 129.125 206.683594 129.125 C 206.089844 129.125 205.5625 128.878906 205.144531 128.460938 C 204.339844 127.621094 204.375 126.257812 205.214844 125.453125 C 205.667969 125.03125 215.816406 114.824219 205.597656 99.367188 L 205.5625 99.296875 L 205.496094 99.296875 C 205.425781 99.261719 205.320312 99.261719 205.25 99.226562 C 205.144531 99.191406 205.039062 99.191406 204.933594 99.15625 C 198.707031 97.515625 193.527344 93.914062 190.027344 88.773438 L 189.710938 88.316406 L 189.710938 212.203125 L 190.027344 212.273438 C 191.953125 208.707031 194.367188 205.523438 197.164062 202.761719 C 201.785156 198.214844 207.277344 195.140625 213.472656 193.566406 L 213.648438 193.53125 L 213.613281 193.355469 C 208.46875 172.832031 224.25 164.859375 224.425781 164.789062 C 224.707031 164.648438 225.019531 164.578125 225.371094 164.578125 C 226.175781 164.578125 226.910156 165.035156 227.296875 165.769531 C 227.820312 166.816406 227.367188 168.074219 226.316406 168.601562 C 225.792969 168.878906 213.332031 175.347656 217.8125 192.585938 L 217.847656 192.726562 L 217.988281 192.691406 C 219.597656 192.480469 221.277344 192.378906 222.921875 192.378906 C 224.707031 192.378906 226.5625 192.515625 228.382812 192.726562 C 235.273438 193.390625 242.832031 196.1875 246.789062 199.511719 C 247.699219 200.28125 247.804688 201.609375 247.035156 202.519531 C 246.613281 203.007812 246.019531 203.285156 245.386719 203.285156 C 244.898438 203.285156 244.410156 203.113281 244.023438 202.796875 C 241.257812 200.488281 234.679688 197.65625 227.890625 196.992188 C 226.140625 196.75 224.425781 196.644531 222.746094 196.644531 C 211.828125 196.644531 204.445312 201.644531 200.175781 205.804688 C 194.191406 211.644531 190.304688 220 189.746094 228.148438 C 189.816406 229.476562 189.816406 230.734375 189.746094 231.960938 L 189.746094 232.203125 C 189.78125 232.519531 189.78125 232.832031 189.816406 233.148438 C 189.851562 233.429688 189.816406 233.742188 189.710938 234.023438 L 189.710938 278.988281 C 189.710938 325.285156 198.355469 335.914062 212.285156 338.082031 C 214.171875 338.363281 216.238281 338.535156 218.40625 338.535156 C 229.1875 338.535156 244.652344 334.761719 255.816406 324.09375 C 266.351562 314.058594 270.761719 300.316406 268.941406 283.183594 C 267.714844 271.574219 263.097656 263.113281 255.640625 258.671875 C 255.152344 258.394531 254.800781 257.9375 254.664062 257.378906 C 254.523438 256.820312 254.59375 256.261719 254.90625 255.769531 C 255.292969 255.140625 255.992188 254.722656 256.726562 254.722656 C 257.113281 254.722656 257.496094 254.828125 257.8125 255 C 263.867188 258.570312 271.425781 266.261719 273.175781 282.695312 C 274.222656 292.484375 273.28125 301.507812 270.339844 309.480469 L 270.234375 309.722656 L 270.515625 309.6875 C 284.234375 308.570312 297.285156 300.109375 306.28125 286.507812 C 316.742188 270.597656 319.226562 250.839844 312.859375 233.707031 Z M 252.074219 130.03125 C 261.660156 131.429688 268.660156 137.796875 270.828125 147.097656 C 271.039062 148.074219 271.914062 148.738281 272.894531 148.738281 C 273.070312 148.738281 273.210938 148.703125 273.382812 148.667969 C 273.945312 148.53125 274.398438 148.214844 274.714844 147.726562 C 275.027344 147.234375 275.097656 146.675781 274.996094 146.117188 C 272.441406 135.066406 264.109375 127.445312 252.703125 125.800781 C 251.234375 125.59375 249.691406 125.488281 248.1875 125.488281 C 236.5 125.488281 225.582031 131.886719 219.703125 142.199219 C 219.421875 142.691406 219.351562 143.25 219.492188 143.808594 C 219.632812 144.367188 219.980469 144.824219 220.507812 145.101562 C 220.820312 145.277344 221.207031 145.382812 221.558594 145.382812 C 222.328125 145.382812 223.027344 144.964844 223.410156 144.300781 C 229.5 133.5625 240.3125 129.753906 248.363281 129.753906 C 249.621094 129.753906 250.882812 129.859375 252.074219 130.03125 Z M 241.539062 285.421875 C 241.398438 285.421875 241.257812 285.421875 241.152344 285.457031 C 239.472656 285.773438 237.828125 285.945312 236.21875 285.945312 C 227.890625 285.945312 221.101562 281.609375 217.601562 274.058594 C 213.578125 265.421875 214.242188 252.101562 225.160156 243.183594 C 226.070312 242.449219 226.210938 241.085938 225.476562 240.175781 C 225.054688 239.6875 224.460938 239.40625 223.832031 239.40625 C 223.339844 239.40625 222.851562 239.582031 222.5 239.898438 C 209.832031 250.246094 209.097656 265.773438 213.789062 275.839844 C 215.257812 278.953125 217.21875 281.679688 219.632812 283.917969 L 219.773438 284.058594 L 219.597656 284.199219 C 217.324219 285.980469 214.207031 289.09375 212.25 293.78125 C 209.9375 299.410156 209.867188 305.878906 212.074219 313.011719 C 212.351562 313.921875 213.160156 314.515625 214.101562 314.515625 C 214.3125 314.515625 214.523438 314.480469 214.734375 314.410156 C 215.292969 314.234375 215.710938 313.886719 215.992188 313.359375 C 216.273438 312.871094 216.308594 312.277344 216.132812 311.753906 C 211.269531 295.949219 220.332031 288.640625 223.238281 286.75 L 223.339844 286.679688 L 223.445312 286.75 C 227.261719 289.023438 231.601562 290.179688 236.359375 290.179688 C 238.214844 290.179688 240.105469 290.003906 241.992188 289.652344 C 243.148438 289.445312 243.917969 288.324219 243.707031 287.171875 C 243.429688 286.121094 242.554688 285.421875 241.539062 285.421875 Z M 241.539062 285.421875 "/></g></g></svg>