<svg xmlns="http://www.w3.org/2000/svg" xmlns:xlink="http://www.w3.org/1999/xlink" width="500" zoomAndPan="magnify" viewBox="0 0 375 374.999991" height="500" preserveAspectRatio="xMidYMid meet" version="1.2"><defs><clipPath id="eb208c8209"><path d="M 213.164062 63 L 230 63 L 230 65.585938 L 213.164062 65.585938 Z M 213.164062 63 "/></clipPath><clipPath id="572d5025ba"><path d="M 232 58.835938 L 246.164062 58.835938 L 246.164062 65.585938 L 232 65.585938 Z M 232 58.835938 "/></clipPath><clipPath id="6bfdc5af2e"><path d="M 0 16 L 375 16 L 375 360.28125 L 0 360.28125 Z M 0 16 "/></clipPath></defs><g id="bd6bae730f"><g clip-rule="nonzero" clip-path="url(#eb208c8209)"><path style=" stroke:none;fill-rule:nonzero;fill:#000000;fill-opacity:1;" d="M 213.191406 63.992188 C 213.167969 63.960938 213.167969 63.917969 213.171875 63.886719 C 213.191406 63.832031 213.226562 63.789062 213.261719 63.765625 C 213.296875 63.734375 213.347656 63.722656 213.375 63.710938 C 213.40625 63.707031 213.441406 63.691406 213.46875 63.6875 C 213.601562 63.65625 213.738281 63.636719 213.867188 63.632812 C 214.128906 63.613281 214.390625 63.613281 214.652344 63.625 C 215.167969 63.652344 215.691406 63.675781 216.207031 63.71875 C 216.722656 63.757812 217.238281 63.808594 217.757812 63.851562 C 218.273438 63.898438 218.789062 63.941406 219.304688 63.984375 C 219.820312 64.027344 220.339844 64.0625 220.855469 64.085938 C 221.371094 64.117188 221.894531 64.128906 222.410156 64.128906 C 222.664062 64.121094 222.925781 64.117188 223.183594 64.097656 C 223.4375 64.078125 223.691406 64.0625 223.949219 64.027344 C 224.203125 63.988281 224.453125 63.945312 224.695312 63.878906 C 224.820312 63.847656 224.9375 63.808594 225.058594 63.769531 L 225.332031 63.671875 C 225.421875 63.570312 225.527344 63.472656 225.65625 63.394531 C 225.835938 63.277344 226.015625 63.304688 226.191406 63.40625 C 226.238281 63.4375 226.273438 63.472656 226.339844 63.449219 C 226.375 63.4375 226.410156 63.460938 226.449219 63.476562 C 226.570312 63.539062 226.585938 63.582031 226.519531 63.707031 C 226.429688 63.867188 226.328125 64.019531 226.261719 64.1875 C 226.179688 64.394531 226.136719 64.601562 226.144531 64.820312 C 226.144531 64.917969 226.164062 65.007812 226.199219 65.09375 C 226.234375 65.179688 226.292969 65.214844 226.382812 65.21875 C 226.558594 65.21875 226.714844 65.152344 226.867188 65.074219 C 227.46875 64.777344 229.296875 63.496094 229.496094 63.726562 C 229.503906 63.734375 229.503906 63.746094 229.507812 63.769531 C 228.765625 63.859375 227.484375 65.007812 226.804688 65.304688 C 226.464844 65.449219 226.0625 65.367188 225.859375 64.976562 C 225.800781 64.859375 225.78125 64.734375 225.769531 64.605469 C 225.765625 64.5625 225.769531 64.515625 225.746094 64.453125 C 225.675781 64.527344 225.605469 64.59375 225.539062 64.65625 C 225.496094 64.703125 225.445312 64.746094 225.382812 64.777344 C 225.230469 64.847656 225.039062 64.753906 225.039062 64.582031 C 225.035156 64.351562 225.078125 64.140625 225.160156 63.945312 C 225.152344 63.949219 225.140625 63.957031 225.128906 63.964844 C 225.011719 64.019531 224.882812 64.0625 224.75 64.089844 C 224.492188 64.164062 224.234375 64.207031 223.972656 64.238281 C 223.449219 64.292969 222.925781 64.296875 222.40625 64.292969 C 221.367188 64.265625 220.335938 64.183594 219.300781 64.085938 L 217.75 63.929688 C 217.234375 63.878906 216.71875 63.828125 216.199219 63.789062 C 215.683594 63.746094 215.167969 63.703125 214.652344 63.71875 C 214.390625 63.722656 214.136719 63.734375 213.878906 63.765625 C 213.753906 63.785156 213.628906 63.808594 213.503906 63.839844 C 213.476562 63.84375 213.445312 63.855469 213.417969 63.863281 C 213.386719 63.875 213.367188 63.882812 213.355469 63.894531 C 213.339844 63.90625 213.328125 63.921875 213.328125 63.929688 C 213.328125 63.929688 213.328125 63.921875 213.320312 63.921875 C 213.316406 63.921875 213.308594 63.921875 213.308594 63.941406 L 213.320312 63.980469 C 213.328125 64.003906 213.308594 64.035156 213.28125 64.039062 L 213.273438 64.039062 C 213.246094 64.039062 213.214844 64.019531 213.191406 63.992188 Z M 225.277344 64.652344 C 225.339844 64.601562 225.390625 64.574219 225.429688 64.535156 C 225.710938 64.292969 225.894531 63.980469 226.082031 63.667969 C 226.113281 63.621094 226.089844 63.589844 226.066406 63.554688 C 226.042969 63.511719 226 63.515625 225.96875 63.535156 C 225.921875 63.566406 225.871094 63.589844 225.828125 63.625 C 225.597656 63.820312 225.441406 64.058594 225.335938 64.335938 C 225.300781 64.421875 225.277344 64.519531 225.277344 64.652344 Z M 225.277344 64.652344 "/></g><path style=" stroke:none;fill-rule:nonzero;fill:#000000;fill-opacity:1;" d="M 233.265625 63.710938 C 233.277344 63.761719 233.234375 63.765625 233.210938 63.785156 C 233.046875 63.878906 232.878906 63.976562 232.707031 64.074219 C 232.375 64.273438 232.054688 64.488281 231.710938 64.675781 C 231.53125 64.78125 231.34375 64.863281 231.148438 64.9375 C 230.796875 65.066406 230.589844 64.816406 230.566406 64.539062 C 230.535156 64.210938 230.605469 63.898438 230.773438 63.609375 C 230.863281 63.457031 230.960938 63.304688 231.039062 63.113281 C 230.84375 63.179688 230.71875 63.289062 230.589844 63.402344 C 230.273438 63.675781 230 63.996094 229.710938 64.292969 C 229.675781 64.332031 229.632812 64.363281 229.59375 64.390625 C 229.492188 64.472656 229.414062 64.457031 229.332031 64.363281 C 229.261719 64.277344 229.21875 64.179688 229.210938 64.0625 C 229.199219 63.695312 229.355469 63.402344 229.605469 63.152344 C 229.652344 63.105469 229.699219 63.105469 229.757812 63.140625 C 229.886719 63.226562 229.917969 63.347656 229.816406 63.480469 C 229.710938 63.640625 229.609375 63.800781 229.53125 63.980469 C 229.503906 64.046875 229.472656 64.113281 229.46875 64.195312 C 229.5625 64.171875 229.617188 64.117188 229.667969 64.058594 C 229.964844 63.746094 230.269531 63.4375 230.589844 63.144531 C 230.679688 63.0625 230.765625 62.984375 230.875 62.921875 C 230.96875 62.867188 231.0625 62.832031 231.164062 62.914062 C 231.265625 63.007812 231.320312 63.117188 231.285156 63.253906 C 231.253906 63.359375 231.21875 63.457031 231.171875 63.554688 C 231.074219 63.742188 230.980469 63.929688 230.890625 64.125 C 230.828125 64.257812 230.777344 64.398438 230.757812 64.550781 C 230.757812 64.5625 230.757812 64.578125 230.757812 64.589844 C 230.738281 64.785156 230.78125 64.828125 230.976562 64.796875 C 231.160156 64.769531 231.332031 64.675781 231.496094 64.597656 C 231.828125 64.433594 232.136719 64.238281 232.445312 64.046875 C 232.667969 63.914062 232.898438 63.792969 233.128906 63.675781 C 233.148438 63.671875 233.171875 63.65625 233.195312 63.65625 C 233.230469 63.65625 233.253906 63.679688 233.265625 63.710938 Z M 233.265625 63.710938 "/><g clip-rule="nonzero" clip-path="url(#572d5025ba)"><path style=" stroke:none;fill-rule:nonzero;fill:#000000;fill-opacity:1;" d="M 234.417969 64.214844 C 234.414062 64.347656 234.417969 64.484375 234.441406 64.609375 C 234.464844 64.730469 234.511719 64.847656 234.585938 64.945312 C 234.726562 65.136719 234.976562 65.246094 235.238281 65.300781 C 235.503906 65.351562 235.789062 65.363281 236.074219 65.34375 C 236.636719 65.316406 237.207031 65.199219 237.765625 65.078125 C 238.324219 64.949219 238.882812 64.808594 239.441406 64.660156 C 240.554688 64.375 241.667969 64.0625 242.800781 63.863281 C 243.371094 63.761719 243.941406 63.691406 244.519531 63.675781 C 244.8125 63.664062 245.101562 63.675781 245.386719 63.710938 C 245.535156 63.730469 245.679688 63.761719 245.820312 63.796875 C 245.855469 63.808594 245.890625 63.816406 245.925781 63.828125 L 245.980469 63.84375 C 245.988281 63.84375 246 63.851562 246.011719 63.855469 C 246.023438 63.863281 246.035156 63.867188 246.046875 63.875 C 246.085938 63.898438 246.128906 63.9375 246.148438 63.996094 C 246.160156 64.027344 246.164062 64.070312 246.148438 64.105469 C 246.125 64.144531 246.085938 64.167969 246.058594 64.160156 C 246.027344 64.160156 246.003906 64.136719 246.011719 64.105469 L 246.011719 64.101562 L 246.015625 64.066406 C 246.023438 64.054688 246.011719 64.046875 246.003906 64.054688 C 246 64.054688 246 64.058594 246 64.054688 C 246 64.042969 245.980469 64.023438 245.964844 64.011719 C 245.957031 64.011719 245.957031 64.011719 245.953125 64.003906 C 245.945312 64.003906 245.941406 64 245.925781 64 L 245.878906 63.980469 C 245.84375 63.96875 245.816406 63.957031 245.777344 63.949219 C 245.648438 63.90625 245.507812 63.878906 245.371094 63.847656 C 245.089844 63.792969 244.804688 63.773438 244.519531 63.769531 C 243.949219 63.757812 243.375 63.835938 242.8125 63.9375 C 242.246094 64.035156 241.691406 64.164062 241.132812 64.304688 C 240.851562 64.375 240.574219 64.449219 240.292969 64.519531 L 239.464844 64.753906 C 238.355469 65.054688 237.242188 65.390625 236.085938 65.535156 C 235.800781 65.566406 235.503906 65.585938 235.203125 65.546875 C 235.054688 65.527344 234.898438 65.5 234.75 65.433594 C 234.601562 65.371094 234.460938 65.273438 234.347656 65.140625 C 234.238281 65.007812 234.167969 64.84375 234.128906 64.6875 C 234.09375 64.523438 234.085938 64.359375 234.09375 64.199219 C 234.097656 64.175781 234.097656 64.152344 234.097656 64.128906 C 233.902344 64.308594 234.039062 64.132812 233.296875 64.820312 C 233.253906 64.863281 233.207031 64.890625 233.167969 64.929688 C 233.082031 64.996094 232.988281 65.015625 232.886719 64.996094 C 232.734375 64.976562 232.675781 64.90625 232.667969 64.753906 C 232.65625 64.550781 232.714844 64.363281 232.796875 64.1875 C 232.90625 63.953125 233.046875 63.734375 233.238281 63.546875 C 233.421875 63.371094 233.636719 63.265625 233.902344 63.308594 C 233.984375 63.320312 234.0625 63.34375 234.132812 63.394531 C 234.210938 63.4375 234.21875 63.4375 234.246094 63.359375 C 234.316406 63.15625 234.394531 62.957031 234.480469 62.761719 C 234.835938 61.914062 235.296875 61.140625 235.925781 60.46875 C 236.285156 60.09375 236.644531 59.722656 237.066406 59.417969 C 237.328125 59.230469 237.605469 59.066406 237.910156 58.957031 C 238.222656 58.839844 238.53125 58.835938 238.835938 59 C 238.996094 59.089844 239.089844 59.230469 239.121094 59.40625 C 239.167969 59.625 239.15625 59.84375 239.101562 60.054688 C 239.039062 60.347656 238.902344 60.609375 238.742188 60.855469 C 238.433594 61.34375 238.046875 61.765625 237.636719 62.171875 C 237.261719 62.539062 236.871094 62.859375 236.441406 63.140625 C 236.085938 63.363281 235.71875 63.558594 235.320312 63.691406 C 235.078125 63.769531 234.828125 63.832031 234.5625 63.800781 C 234.519531 63.796875 234.492188 63.800781 234.46875 63.824219 C 234.449219 63.953125 234.421875 64.082031 234.417969 64.214844 Z M 234.066406 63.773438 C 234.050781 63.6875 234.03125 63.601562 233.972656 63.535156 C 233.914062 63.457031 233.894531 63.449219 233.804688 63.480469 C 233.726562 63.503906 233.65625 63.539062 233.59375 63.589844 C 233.324219 63.800781 233.140625 64.070312 233.011719 64.378906 C 232.964844 64.5 232.921875 64.628906 232.917969 64.761719 C 232.917969 64.785156 232.90625 64.820312 232.933594 64.832031 C 232.964844 64.851562 232.988281 64.820312 233.011719 64.804688 C 233.046875 64.773438 233.089844 64.742188 233.125 64.710938 C 233.433594 64.433594 233.714844 64.125 234.03125 63.851562 C 234.0625 63.832031 234.078125 63.808594 234.066406 63.773438 Z M 234.644531 63.695312 C 234.839844 63.6875 235.023438 63.632812 235.207031 63.566406 C 235.730469 63.382812 236.199219 63.109375 236.644531 62.789062 C 237.03125 62.515625 237.375 62.195312 237.699219 61.855469 C 238.0625 61.476562 238.375 61.070312 238.621094 60.609375 C 238.769531 60.324219 238.875 60.03125 238.875 59.710938 C 238.875 59.566406 238.863281 59.417969 238.804688 59.28125 C 238.726562 59.078125 238.550781 58.984375 238.335938 59.011719 C 238.167969 59.039062 238.019531 59.105469 237.878906 59.175781 C 237.617188 59.316406 237.375 59.484375 237.148438 59.679688 C 236.515625 60.214844 235.980469 60.839844 235.527344 61.53125 C 235.113281 62.164062 234.800781 62.84375 234.542969 63.550781 C 234.496094 63.6875 234.5 63.699219 234.644531 63.695312 Z M 234.644531 63.695312 "/></g><g clip-rule="nonzero" clip-path="url(#6bfdc5af2e)"><path style=" stroke:none;fill-rule:evenodd;fill:#000000;fill-opacity:1;" d="M 52.605469 258.074219 C 47.472656 251.449219 45.019531 242.9375 46.089844 234.011719 C 50.675781 195.546875 52.003906 202.933594 34.511719 168.363281 C 27.808594 155.066406 30.519531 139.550781 41.410156 129.40625 C 69.644531 102.859375 65.898438 109.363281 74.71875 71.636719 C 78.121094 57.15625 90.191406 47.0625 105.074219 46.222656 C 143.757812 44.058594 136.710938 46.617188 167.753906 23.421875 C 179.675781 14.507812 195.398438 14.507812 207.320312 23.421875 C 238.363281 46.617188 231.320312 44.058594 270 46.222656 C 284.882812 47.0625 296.953125 57.15625 300.304688 71.636719 C 309.175781 109.363281 305.429688 102.859375 333.664062 129.40625 C 344.503906 139.550781 347.265625 155.066406 340.5625 168.363281 C 323.070312 202.933594 324.351562 195.546875 328.984375 234.011719 C 330.023438 242.9375 327.578125 251.449219 322.457031 258.070312 C 319.941406 251.972656 313.933594 247.679688 306.921875 247.679688 L 272.710938 247.679688 C 269.59375 240.464844 265.585938 233.722656 260.828125 227.59375 C 272.816406 212.007812 279.953125 192.515625 279.953125 171.414062 C 279.953125 120.539062 238.464844 79.023438 187.511719 79.023438 C 136.609375 79.023438 95.070312 120.539062 95.070312 171.414062 C 95.070312 192.527344 102.226562 212.027344 114.230469 227.617188 C 109.480469 233.738281 105.476562 240.472656 102.359375 247.679688 L 68.140625 247.679688 C 61.128906 247.679688 55.121094 251.972656 52.605469 258.074219 Z M 258.558594 247.679688 L 116.515625 247.679688 C 129.824219 222.023438 156.628906 204.488281 187.53125 204.488281 C 218.449219 204.488281 245.261719 222.023438 258.558594 247.679688 Z M 187.53125 196.492188 C 165.273438 196.492188 147.128906 178.339844 147.128906 156.09375 C 147.128906 133.847656 165.273438 115.691406 187.53125 115.691406 C 209.808594 115.691406 227.953125 133.847656 227.953125 156.09375 C 227.953125 178.339844 209.808594 196.492188 187.53125 196.492188 Z M 323.71875 291.976562 L 370.550781 291.976562 C 372.128906 291.976562 373.558594 292.90625 374.203125 294.34375 C 374.84375 295.785156 374.582031 297.46875 373.527344 298.640625 L 348.894531 326.105469 L 373.527344 353.570312 C 374.582031 354.742188 374.84375 356.425781 374.203125 357.867188 C 373.558594 359.308594 372.128906 360.234375 370.550781 360.234375 L 274.050781 360.234375 C 271.839844 360.234375 270.050781 358.445312 270.050781 356.238281 L 270.050781 341.519531 L 306.921875 341.519531 C 316.199219 341.519531 323.71875 334.003906 323.71875 324.730469 Z M 105.03125 341.519531 L 105.03125 356.238281 C 105.03125 358.445312 103.238281 360.234375 101.03125 360.234375 L 4.53125 360.234375 C 2.953125 360.234375 1.523438 359.308594 0.878906 357.867188 C 0.234375 356.425781 0.5 354.742188 1.554688 353.570312 L 26.183594 326.105469 L 1.554688 298.640625 C 0.5 297.46875 0.234375 295.785156 0.878906 294.34375 C 1.523438 292.90625 2.953125 291.976562 4.53125 291.976562 L 51.34375 291.976562 L 51.34375 324.730469 C 51.34375 334.003906 58.863281 341.519531 68.140625 341.519531 Z M 306.921875 260.472656 C 309.132812 260.472656 310.921875 262.261719 310.921875 264.46875 L 310.921875 324.730469 C 310.921875 326.9375 309.132812 328.726562 306.921875 328.726562 L 68.140625 328.726562 C 65.929688 328.726562 64.140625 326.9375 64.140625 324.730469 L 64.140625 264.46875 C 64.140625 262.261719 65.929688 260.472656 68.140625 260.472656 Z M 306.921875 260.472656 "/></g></g></svg>