<svg xmlns="http://www.w3.org/2000/svg" xmlns:xlink="http://www.w3.org/1999/xlink" width="500" zoomAndPan="magnify" viewBox="0 0 375 374.999991" height="500" preserveAspectRatio="xMidYMid meet" version="1.2"><defs><clipPath id="3b8c69958a"><path d="M 119.804688 38 L 137 38 L 137 40.96875 L 119.804688 40.96875 Z M 119.804688 38 "/></clipPath><clipPath id="ddcb35403b"><path d="M 135 38 L 140 38 L 140 40.96875 L 135 40.96875 Z M 135 38 "/></clipPath><clipPath id="88bcc0c52c"><path d="M 139 34.21875 L 152.804688 34.21875 L 152.804688 40.96875 L 139 40.96875 Z M 139 34.21875 "/></clipPath></defs><g id="6d63fa4424"><g clip-rule="nonzero" clip-path="url(#3b8c69958a)"><path style=" stroke:none;fill-rule:nonzero;fill:#000000;fill-opacity:1;" d="M 119.832031 39.375 C 119.808594 39.34375 119.808594 39.300781 119.8125 39.269531 C 119.832031 39.214844 119.867188 39.171875 119.902344 39.148438 C 119.9375 39.117188 119.984375 39.105469 120.015625 39.09375 C 120.046875 39.089844 120.082031 39.074219 120.109375 39.070312 C 120.242188 39.039062 120.378906 39.019531 120.507812 39.015625 C 120.769531 38.996094 121.03125 38.996094 121.292969 39.007812 C 121.808594 39.035156 122.332031 39.058594 122.847656 39.101562 C 123.363281 39.140625 123.878906 39.191406 124.394531 39.234375 C 124.910156 39.28125 125.429688 39.324219 125.945312 39.367188 C 126.460938 39.410156 126.980469 39.445312 127.496094 39.46875 C 128.011719 39.5 128.535156 39.511719 129.050781 39.511719 C 129.304688 39.503906 129.566406 39.5 129.820312 39.480469 C 130.078125 39.460938 130.332031 39.445312 130.589844 39.410156 C 130.84375 39.371094 131.09375 39.328125 131.335938 39.261719 C 131.460938 39.230469 131.578125 39.191406 131.699219 39.152344 L 131.972656 39.054688 C 132.058594 38.953125 132.167969 38.855469 132.296875 38.777344 C 132.476562 38.660156 132.652344 38.6875 132.832031 38.789062 C 132.878906 38.820312 132.914062 38.855469 132.980469 38.832031 C 133.015625 38.820312 133.050781 38.84375 133.085938 38.859375 C 133.210938 38.921875 133.222656 38.964844 133.15625 39.089844 C 133.070312 39.25 132.96875 39.402344 132.902344 39.570312 C 132.820312 39.777344 132.777344 39.984375 132.785156 40.203125 C 132.785156 40.300781 132.800781 40.390625 132.835938 40.476562 C 132.871094 40.5625 132.933594 40.597656 133.019531 40.601562 C 133.199219 40.601562 133.355469 40.535156 133.507812 40.457031 C 134.105469 40.160156 135.933594 38.878906 136.136719 39.109375 C 136.144531 39.117188 136.144531 39.128906 136.148438 39.152344 C 135.40625 39.242188 134.125 40.390625 133.441406 40.6875 C 133.105469 40.832031 132.699219 40.75 132.5 40.359375 C 132.441406 40.242188 132.421875 40.117188 132.410156 39.988281 C 132.40625 39.945312 132.410156 39.898438 132.386719 39.835938 C 132.316406 39.910156 132.242188 39.976562 132.179688 40.039062 C 132.136719 40.085938 132.082031 40.128906 132.023438 40.160156 C 131.871094 40.230469 131.679688 40.136719 131.679688 39.964844 C 131.675781 39.734375 131.714844 39.523438 131.800781 39.328125 C 131.792969 39.335938 131.78125 39.339844 131.769531 39.347656 C 131.652344 39.402344 131.519531 39.445312 131.390625 39.472656 C 131.132812 39.546875 130.875 39.589844 130.613281 39.621094 C 130.089844 39.675781 129.566406 39.679688 129.046875 39.675781 C 128.007812 39.652344 126.972656 39.566406 125.941406 39.46875 L 124.390625 39.3125 C 123.875 39.261719 123.359375 39.210938 122.839844 39.171875 C 122.324219 39.128906 121.808594 39.085938 121.292969 39.101562 C 121.03125 39.105469 120.773438 39.117188 120.519531 39.148438 C 120.394531 39.167969 120.269531 39.191406 120.144531 39.222656 C 120.117188 39.226562 120.085938 39.238281 120.054688 39.246094 C 120.027344 39.257812 120.007812 39.265625 119.996094 39.277344 C 119.976562 39.289062 119.96875 39.308594 119.96875 39.3125 C 119.96875 39.3125 119.96875 39.308594 119.960938 39.308594 C 119.957031 39.308594 119.949219 39.308594 119.949219 39.324219 L 119.960938 39.363281 C 119.96875 39.386719 119.949219 39.417969 119.917969 39.421875 L 119.914062 39.421875 C 119.886719 39.421875 119.855469 39.402344 119.832031 39.375 Z M 131.917969 40.035156 C 131.980469 39.988281 132.027344 39.957031 132.070312 39.917969 C 132.347656 39.675781 132.53125 39.363281 132.722656 39.050781 C 132.753906 39.003906 132.730469 38.972656 132.707031 38.9375 C 132.679688 38.894531 132.640625 38.898438 132.609375 38.917969 C 132.5625 38.949219 132.511719 38.972656 132.46875 39.007812 C 132.234375 39.203125 132.082031 39.441406 131.976562 39.71875 C 131.941406 39.804688 131.917969 39.902344 131.917969 40.035156 Z M 131.917969 40.035156 "/></g><g clip-rule="nonzero" clip-path="url(#ddcb35403b)"><path style=" stroke:none;fill-rule:nonzero;fill:#000000;fill-opacity:1;" d="M 139.90625 39.09375 C 139.917969 39.144531 139.875 39.148438 139.851562 39.167969 C 139.683594 39.261719 139.519531 39.359375 139.347656 39.457031 C 139.015625 39.660156 138.695312 39.871094 138.351562 40.058594 C 138.171875 40.164062 137.984375 40.246094 137.785156 40.320312 C 137.4375 40.449219 137.226562 40.199219 137.207031 39.921875 C 137.175781 39.59375 137.246094 39.28125 137.414062 38.992188 C 137.503906 38.839844 137.601562 38.6875 137.679688 38.496094 C 137.484375 38.5625 137.359375 38.671875 137.230469 38.785156 C 136.914062 39.058594 136.640625 39.378906 136.351562 39.679688 C 136.316406 39.714844 136.273438 39.746094 136.230469 39.773438 C 136.132812 39.855469 136.054688 39.839844 135.972656 39.746094 C 135.898438 39.660156 135.859375 39.5625 135.851562 39.445312 C 135.839844 39.078125 135.996094 38.785156 136.242188 38.535156 C 136.292969 38.488281 136.339844 38.488281 136.398438 38.523438 C 136.527344 38.609375 136.558594 38.730469 136.457031 38.863281 C 136.351562 39.023438 136.25 39.183594 136.171875 39.363281 C 136.140625 39.429688 136.113281 39.496094 136.105469 39.578125 C 136.203125 39.554688 136.253906 39.5 136.308594 39.441406 C 136.605469 39.128906 136.910156 38.820312 137.230469 38.527344 C 137.316406 38.445312 137.40625 38.367188 137.511719 38.304688 C 137.609375 38.25 137.703125 38.214844 137.804688 38.300781 C 137.90625 38.390625 137.957031 38.5 137.921875 38.640625 C 137.894531 38.742188 137.859375 38.839844 137.808594 38.9375 C 137.714844 39.125 137.621094 39.3125 137.53125 39.507812 C 137.464844 39.640625 137.417969 39.78125 137.394531 39.933594 C 137.394531 39.945312 137.394531 39.960938 137.394531 39.976562 C 137.378906 40.167969 137.417969 40.210938 137.613281 40.179688 C 137.800781 40.152344 137.972656 40.058594 138.136719 39.980469 C 138.46875 39.816406 138.777344 39.621094 139.085938 39.429688 C 139.304688 39.296875 139.539062 39.175781 139.769531 39.058594 C 139.789062 39.054688 139.8125 39.039062 139.835938 39.039062 C 139.871094 39.039062 139.894531 39.0625 139.90625 39.09375 Z M 139.90625 39.09375 "/></g><g clip-rule="nonzero" clip-path="url(#88bcc0c52c)"><path style=" stroke:none;fill-rule:nonzero;fill:#000000;fill-opacity:1;" d="M 141.058594 39.597656 C 141.050781 39.730469 141.058594 39.867188 141.082031 39.992188 C 141.105469 40.113281 141.152344 40.230469 141.222656 40.328125 C 141.367188 40.519531 141.617188 40.628906 141.878906 40.6875 C 142.144531 40.734375 142.429688 40.746094 142.714844 40.726562 C 143.277344 40.699219 143.847656 40.582031 144.40625 40.460938 C 144.964844 40.332031 145.523438 40.191406 146.082031 40.042969 C 147.195312 39.757812 148.304688 39.445312 149.441406 39.246094 C 150.007812 39.144531 150.578125 39.074219 151.160156 39.058594 C 151.453125 39.046875 151.742188 39.058594 152.027344 39.09375 C 152.175781 39.113281 152.320312 39.144531 152.460938 39.179688 C 152.496094 39.191406 152.53125 39.199219 152.566406 39.210938 L 152.621094 39.226562 C 152.625 39.226562 152.640625 39.234375 152.652344 39.238281 C 152.664062 39.246094 152.675781 39.25 152.6875 39.257812 C 152.726562 39.28125 152.769531 39.320312 152.785156 39.378906 C 152.796875 39.410156 152.804688 39.453125 152.785156 39.488281 C 152.761719 39.527344 152.726562 39.550781 152.699219 39.542969 C 152.667969 39.542969 152.644531 39.519531 152.648438 39.488281 L 152.648438 39.484375 L 152.65625 39.449219 C 152.660156 39.4375 152.648438 39.429688 152.644531 39.4375 C 152.636719 39.4375 152.636719 39.441406 152.636719 39.4375 C 152.636719 39.425781 152.621094 39.40625 152.601562 39.394531 C 152.597656 39.394531 152.597656 39.394531 152.589844 39.386719 C 152.585938 39.386719 152.578125 39.382812 152.566406 39.382812 L 152.519531 39.363281 C 152.484375 39.351562 152.453125 39.339844 152.417969 39.332031 C 152.289062 39.289062 152.144531 39.261719 152.007812 39.230469 C 151.730469 39.175781 151.445312 39.15625 151.160156 39.152344 C 150.589844 39.140625 150.015625 39.21875 149.453125 39.320312 C 148.886719 39.417969 148.328125 39.546875 147.773438 39.6875 C 147.492188 39.757812 147.214844 39.832031 146.933594 39.902344 L 146.101562 40.136719 C 144.992188 40.4375 143.882812 40.773438 142.726562 40.917969 C 142.441406 40.949219 142.144531 40.96875 141.839844 40.929688 C 141.691406 40.910156 141.539062 40.882812 141.390625 40.816406 C 141.242188 40.753906 141.097656 40.65625 140.988281 40.523438 C 140.878906 40.390625 140.808594 40.226562 140.765625 40.070312 C 140.730469 39.90625 140.726562 39.742188 140.730469 39.582031 C 140.738281 39.558594 140.738281 39.535156 140.738281 39.511719 C 140.542969 39.691406 140.679688 39.515625 139.9375 40.203125 C 139.894531 40.246094 139.847656 40.273438 139.804688 40.3125 C 139.722656 40.378906 139.628906 40.398438 139.527344 40.378906 C 139.375 40.359375 139.3125 40.289062 139.308594 40.136719 C 139.296875 39.933594 139.355469 39.746094 139.4375 39.570312 C 139.546875 39.335938 139.6875 39.117188 139.878906 38.929688 C 140.0625 38.753906 140.273438 38.648438 140.542969 38.691406 C 140.625 38.703125 140.703125 38.726562 140.773438 38.777344 C 140.851562 38.820312 140.859375 38.820312 140.886719 38.742188 C 140.957031 38.539062 141.035156 38.339844 141.117188 38.144531 C 141.476562 37.296875 141.9375 36.523438 142.566406 35.851562 C 142.921875 35.476562 143.285156 35.105469 143.707031 34.800781 C 143.96875 34.613281 144.246094 34.449219 144.550781 34.339844 C 144.863281 34.222656 145.171875 34.21875 145.476562 34.382812 C 145.636719 34.472656 145.730469 34.613281 145.761719 34.789062 C 145.808594 35.007812 145.796875 35.226562 145.742188 35.4375 C 145.675781 35.730469 145.539062 35.992188 145.378906 36.238281 C 145.070312 36.726562 144.6875 37.148438 144.277344 37.554688 C 143.902344 37.921875 143.511719 38.242188 143.082031 38.523438 C 142.726562 38.746094 142.359375 38.941406 141.960938 39.074219 C 141.71875 39.152344 141.46875 39.214844 141.203125 39.183594 C 141.160156 39.179688 141.132812 39.183594 141.109375 39.207031 C 141.085938 39.335938 141.0625 39.464844 141.058594 39.597656 Z M 140.707031 39.15625 C 140.6875 39.070312 140.671875 38.984375 140.613281 38.917969 C 140.554688 38.839844 140.535156 38.832031 140.445312 38.863281 C 140.367188 38.886719 140.296875 38.921875 140.230469 38.972656 C 139.964844 39.183594 139.78125 39.453125 139.652344 39.761719 C 139.601562 39.882812 139.5625 40.011719 139.554688 40.144531 C 139.554688 40.167969 139.542969 40.203125 139.574219 40.214844 C 139.605469 40.234375 139.628906 40.203125 139.652344 40.1875 C 139.6875 40.15625 139.730469 40.125 139.765625 40.09375 C 140.074219 39.816406 140.351562 39.507812 140.671875 39.234375 C 140.703125 39.214844 140.71875 39.191406 140.707031 39.15625 Z M 141.28125 39.078125 C 141.480469 39.070312 141.664062 39.015625 141.847656 38.949219 C 142.367188 38.765625 142.839844 38.492188 143.285156 38.171875 C 143.667969 37.898438 144.011719 37.578125 144.339844 37.238281 C 144.703125 36.859375 145.015625 36.453125 145.261719 35.992188 C 145.410156 35.707031 145.515625 35.414062 145.515625 35.09375 C 145.515625 34.949219 145.503906 34.800781 145.445312 34.664062 C 145.367188 34.460938 145.1875 34.367188 144.976562 34.394531 C 144.808594 34.421875 144.660156 34.488281 144.519531 34.558594 C 144.257812 34.699219 144.015625 34.867188 143.789062 35.0625 C 143.152344 35.597656 142.621094 36.222656 142.167969 36.914062 C 141.753906 37.546875 141.4375 38.226562 141.183594 38.933594 C 141.136719 39.070312 141.140625 39.082031 141.28125 39.078125 Z M 141.28125 39.078125 "/></g><path style=" stroke:none;fill-rule:nonzero;fill:#000000;fill-opacity:1;" d="M 283.164062 375 L 91.835938 375 C 41.328125 375 0 333.671875 0 283.164062 L 0 91.835938 C 0 41.328125 41.328125 0 91.835938 0 L 283.164062 0 C 333.671875 0 375 41.328125 375 91.835938 L 375 283.164062 C 375 333.671875 333.671875 375 283.164062 375 Z M 283.164062 375 "/><path style=" stroke:none;fill-rule:nonzero;fill:#ffd2f3;fill-opacity:1;" d="M 319.4375 241.914062 C 309.644531 241.914062 299.695312 230.816406 295.253906 214.4375 C 290.355469 196.148438 294.796875 180.152344 305.585938 177.320312 C 316.300781 174.414062 328.238281 186.046875 333.0625 204.335938 C 335.28125 212.371094 335.585938 220.5625 334.132812 227.144531 C 332.449219 234.871094 328.394531 239.921875 322.730469 241.453125 C 321.65625 241.835938 320.585938 241.914062 319.4375 241.914062 Z M 308.035156 186.65625 C 304.132812 187.730469 300.765625 198.0625 304.515625 212.066406 C 308.265625 225.996094 316.300781 233.34375 320.28125 232.347656 C 322.195312 231.8125 323.878906 229.132812 324.796875 225.230469 C 325.945312 220.179688 325.5625 213.445312 323.800781 207.015625 C 320.050781 192.933594 312.015625 185.585938 308.035156 186.65625 Z M 308.035156 186.65625 "/><path style=" stroke:none;fill-rule:nonzero;fill:#ffd2f3;fill-opacity:1;" d="M 260.128906 241.835938 C 258.214844 241.835938 256.300781 241.300781 254.539062 240.304688 C 252.015625 238.777344 250.101562 236.402344 249.335938 233.570312 L 245.96875 220.945312 C 245.203125 218.035156 245.585938 215.050781 247.117188 212.527344 C 248.648438 210 251.019531 208.085938 253.851562 207.320312 L 266.097656 204.105469 C 268.621094 203.417969 271.300781 204.949219 271.988281 207.472656 L 278.648438 232.347656 C 278.953125 233.570312 278.800781 234.871094 278.113281 235.945312 C 277.5 237.09375 276.429688 237.855469 275.203125 238.164062 L 262.960938 241.378906 C 262.039062 241.683594 261.121094 241.835938 260.128906 241.835938 Z M 263.953125 214.515625 L 256.378906 216.503906 C 255.84375 216.65625 255.535156 217.039062 255.460938 217.195312 C 255.304688 217.347656 255.152344 217.804688 255.304688 218.34375 L 258.671875 230.96875 C 258.828125 231.503906 259.210938 231.8125 259.363281 231.886719 C 259.515625 232.039062 259.972656 232.195312 260.511719 232.039062 L 268.085938 229.972656 Z M 263.953125 214.515625 "/><path style=" stroke:none;fill-rule:nonzero;fill:#ffd2f3;fill-opacity:1;" d="M 267.320312 213.445312 C 265.179688 213.445312 263.265625 211.988281 262.730469 209.847656 C 262.039062 207.320312 263.570312 204.644531 266.171875 203.953125 C 274.132812 201.886719 284.003906 198.0625 296.710938 185.738281 C 298.621094 183.902344 301.683594 183.902344 303.519531 185.816406 C 305.355469 187.730469 305.355469 190.789062 303.445312 192.628906 C 289.054688 206.710938 277.347656 211.070312 268.699219 213.289062 C 268.164062 213.367188 267.78125 213.445312 267.320312 213.445312 Z M 267.320312 213.445312 "/><path style=" stroke:none;fill-rule:nonzero;fill:#ffd2f3;fill-opacity:1;" d="M 312.015625 238.851562 C 311.632812 238.851562 311.171875 238.777344 310.789062 238.699219 C 293.570312 234.335938 283.164062 235.945312 275.203125 238.164062 C 272.679688 238.851562 270 237.320312 269.3125 234.796875 C 268.621094 232.269531 270.152344 229.59375 272.679688 228.902344 C 281.328125 226.53125 293.648438 224.464844 313.085938 229.4375 C 315.613281 230.128906 317.21875 232.652344 316.53125 235.253906 C 316.148438 237.472656 314.15625 238.851562 312.015625 238.851562 Z M 312.015625 238.851562 "/><path style=" stroke:none;fill-rule:nonzero;fill:#ffd2f3;fill-opacity:1;" d="M 275.511719 280.5625 C 273.367188 280.5625 271.453125 279.105469 270.917969 276.964844 L 260.203125 237.167969 C 259.515625 234.644531 261.046875 231.964844 263.570312 231.277344 C 266.097656 230.585938 268.777344 232.117188 269.464844 234.644531 L 278.878906 269.769531 L 286.148438 267.855469 L 283.46875 257.753906 C 281.9375 252.015625 282.167969 246.503906 284.234375 240.917969 C 284.921875 239.003906 284.464844 236.402344 283.011719 233.339844 C 281.785156 230.96875 282.855469 228.0625 285.230469 226.914062 C 287.601562 225.6875 290.511719 226.761719 291.65625 229.132812 C 294.414062 234.71875 294.949219 239.769531 293.34375 244.285156 C 291.964844 248.035156 291.8125 251.554688 292.804688 255.382812 L 296.710938 270.152344 C 297.015625 271.378906 296.863281 272.679688 296.171875 273.75 C 295.484375 274.820312 294.488281 275.664062 293.265625 275.96875 L 276.734375 280.40625 C 276.277344 280.484375 275.96875 280.5625 275.511719 280.5625 Z M 275.511719 280.5625 "/><path style=" stroke:none;fill-rule:nonzero;fill:#ffd2f3;fill-opacity:1;" d="M 175.253906 326.25 L 45.230469 326.25 C 42.628906 326.25 40.40625 324.105469 40.40625 321.429688 L 40.40625 141.964844 C 40.40625 139.363281 42.550781 137.144531 45.230469 137.144531 L 175.253906 137.144531 C 177.855469 137.144531 180.078125 139.285156 180.078125 141.964844 L 180.078125 321.429688 C 180.078125 324.03125 177.933594 326.25 175.253906 326.25 Z M 50.050781 316.605469 L 170.511719 316.605469 L 170.511719 146.785156 L 50.050781 146.785156 Z M 50.050781 316.605469 "/><path style=" stroke:none;fill-rule:nonzero;fill:#ffd2f3;fill-opacity:1;" d="M 151.835938 171.964844 L 68.648438 171.964844 C 66.046875 171.964844 63.828125 169.820312 63.828125 167.144531 C 63.828125 164.464844 65.96875 162.320312 68.648438 162.320312 L 151.914062 162.320312 C 154.515625 162.320312 156.734375 164.464844 156.734375 167.144531 C 156.65625 169.898438 154.59375 171.964844 151.835938 171.964844 Z M 151.835938 171.964844 "/><path style=" stroke:none;fill-rule:nonzero;fill:#ffd2f3;fill-opacity:1;" d="M 151.835938 193.46875 L 68.648438 193.46875 C 66.046875 193.46875 63.828125 191.328125 63.828125 188.648438 C 63.828125 186.046875 65.96875 183.828125 68.648438 183.828125 L 151.914062 183.828125 C 154.515625 183.828125 156.734375 185.96875 156.734375 188.648438 C 156.65625 191.402344 154.59375 193.46875 151.835938 193.46875 Z M 151.835938 193.46875 "/><path style=" stroke:none;fill-rule:nonzero;fill:#ffd2f3;fill-opacity:1;" d="M 151.835938 214.972656 L 68.648438 214.972656 C 66.046875 214.972656 63.828125 212.832031 63.828125 210.152344 C 63.828125 207.472656 65.96875 205.332031 68.648438 205.332031 L 151.914062 205.332031 C 154.515625 205.332031 156.734375 207.472656 156.734375 210.152344 C 156.734375 212.832031 154.59375 214.972656 151.835938 214.972656 Z M 151.835938 214.972656 "/><path style=" stroke:none;fill-rule:nonzero;fill:#ffd2f3;fill-opacity:1;" d="M 151.835938 236.480469 L 68.648438 236.480469 C 66.046875 236.480469 63.828125 234.335938 63.828125 231.65625 C 63.828125 228.980469 65.96875 226.835938 68.648438 226.835938 L 151.914062 226.835938 C 154.515625 226.835938 156.734375 228.980469 156.734375 231.65625 C 156.734375 234.335938 154.59375 236.480469 151.835938 236.480469 Z M 151.835938 236.480469 "/><path style=" stroke:none;fill-rule:nonzero;fill:#ffd2f3;fill-opacity:1;" d="M 151.835938 257.984375 L 68.648438 257.984375 C 66.046875 257.984375 63.828125 255.84375 63.828125 253.164062 C 63.828125 250.484375 65.96875 248.34375 68.648438 248.34375 L 151.914062 248.34375 C 154.515625 248.34375 156.734375 250.484375 156.734375 253.164062 C 156.65625 255.84375 154.59375 257.984375 151.835938 257.984375 Z M 151.835938 257.984375 "/><path style=" stroke:none;fill-rule:nonzero;fill:#ffd2f3;fill-opacity:1;" d="M 151.835938 279.566406 L 68.648438 279.566406 C 66.046875 279.566406 63.828125 277.421875 63.828125 274.746094 C 63.828125 272.066406 65.96875 269.921875 68.648438 269.921875 L 151.914062 269.921875 C 154.515625 269.921875 156.734375 272.066406 156.734375 274.746094 C 156.734375 277.421875 154.59375 279.566406 151.835938 279.566406 Z M 151.835938 279.566406 "/><path style=" stroke:none;fill-rule:nonzero;fill:#ffd2f3;fill-opacity:1;" d="M 151.835938 301.070312 L 68.648438 301.070312 C 66.046875 301.070312 63.828125 298.929688 63.828125 296.25 C 63.828125 293.570312 65.96875 291.429688 68.648438 291.429688 L 151.914062 291.429688 C 154.515625 291.429688 156.734375 293.570312 156.734375 296.25 C 156.734375 298.929688 154.59375 301.070312 151.835938 301.070312 Z M 151.835938 301.070312 "/><path style=" stroke:none;fill-rule:nonzero;fill:#ffd2f3;fill-opacity:1;" d="M 315.460938 163.777344 L 253.164062 163.777344 C 250.5625 163.777344 248.34375 161.632812 248.34375 158.953125 L 248.34375 114.488281 C 248.34375 111.886719 250.484375 109.667969 253.164062 109.667969 L 315.460938 109.667969 C 318.0625 109.667969 320.28125 111.8125 320.28125 114.488281 L 320.28125 158.953125 C 320.203125 161.632812 318.0625 163.777344 315.460938 163.777344 Z M 257.90625 154.132812 L 310.5625 154.132812 L 310.5625 119.234375 L 257.90625 119.234375 Z M 257.90625 154.132812 "/><path style=" stroke:none;fill-rule:nonzero;fill:#ffd2f3;fill-opacity:1;" d="M 284.234375 146.632812 C 283.085938 146.632812 282.015625 146.25 281.019531 145.40625 L 249.871094 118.011719 C 247.882812 116.25 247.652344 113.1875 249.414062 111.277344 C 251.171875 109.285156 254.234375 109.054688 256.148438 110.816406 L 284.15625 135.460938 L 312.167969 110.816406 C 314.15625 109.054688 317.144531 109.285156 318.902344 111.277344 C 320.664062 113.265625 320.433594 116.25 318.445312 118.011719 L 287.449219 145.40625 C 286.53125 146.25 285.382812 146.632812 284.234375 146.632812 Z M 284.234375 146.632812 "/><path style=" stroke:none;fill-rule:nonzero;fill:#ffd2f3;fill-opacity:1;" d="M 175.253906 232.195312 C 172.730469 232.195312 170.664062 230.28125 170.433594 227.679688 C 170.28125 225.078125 172.269531 222.703125 174.949219 222.550781 L 251.097656 217.5 C 253.699219 217.347656 256.070312 219.335938 256.222656 222.015625 C 256.378906 224.695312 254.386719 226.988281 251.710938 227.144531 L 175.5625 232.195312 C 175.484375 232.195312 175.40625 232.195312 175.253906 232.195312 Z M 175.253906 202.960938 C 173.496094 202.960938 171.8125 202.039062 170.96875 200.355469 C 169.746094 197.984375 170.664062 195.078125 173.035156 193.929688 L 250.945312 153.75 C 253.316406 152.527344 256.222656 153.445312 257.371094 155.816406 C 258.597656 158.1875 257.679688 161.097656 255.304688 162.246094 L 177.472656 202.421875 C 176.785156 202.730469 176.019531 202.960938 175.253906 202.960938 Z M 175.253906 202.960938 "/><path style=" stroke:none;fill-rule:nonzero;fill:#ffd2f3;fill-opacity:1;" d="M 95.738281 116.632812 C 94.820312 116.632812 93.828125 116.328125 92.984375 115.789062 C 91.453125 114.644531 90.6875 112.804688 91.070312 110.894531 L 92.90625 102.09375 L 85.5625 102.09375 C 75.535156 102.09375 67.347656 93.902344 67.347656 83.878906 L 67.347656 67.804688 C 67.347656 57.78125 75.535156 49.59375 85.5625 49.59375 L 123.367188 49.59375 C 133.394531 49.59375 141.582031 57.78125 141.582031 67.804688 L 141.582031 83.800781 C 141.582031 93.828125 133.394531 102.015625 123.367188 102.015625 L 120.6875 102.015625 L 98.265625 115.867188 C 97.5 116.402344 96.65625 116.632812 95.738281 116.632812 Z M 85.5625 59.15625 C 80.816406 59.15625 76.835938 63.0625 76.835938 67.882812 L 76.835938 83.878906 C 76.835938 88.621094 80.738281 92.601562 85.5625 92.601562 L 98.722656 92.601562 C 100.179688 92.601562 101.554688 93.214844 102.472656 94.363281 C 103.394531 95.511719 103.699219 96.886719 103.46875 98.34375 L 102.703125 101.9375 L 116.863281 93.214844 C 117.628906 92.679688 118.46875 92.527344 119.386719 92.527344 L 123.445312 92.527344 C 128.1875 92.527344 132.167969 88.621094 132.167969 83.800781 L 132.167969 67.804688 C 132.167969 63.0625 128.265625 59.082031 123.445312 59.082031 L 85.5625 59.082031 Z M 85.5625 59.15625 "/><path style=" stroke:none;fill-rule:nonzero;fill:#ffd2f3;fill-opacity:1;" d="M 195.152344 107.371094 C 193.546875 107.371094 191.863281 106.914062 190.332031 106.070312 C 187.347656 104.3125 185.511719 101.25 185.511719 97.730469 L 185.511719 78.136719 C 185.511719 74.617188 187.347656 71.554688 190.332031 69.796875 C 193.316406 68.035156 196.914062 68.035156 199.972656 69.796875 L 216.886719 79.59375 C 219.871094 81.351562 221.710938 84.414062 221.710938 87.933594 C 221.710938 91.453125 219.871094 94.515625 216.886719 96.277344 L 199.972656 106.070312 C 198.445312 106.914062 196.761719 107.371094 195.152344 107.371094 Z M 195.152344 78.214844 L 195.152344 97.804688 L 212.066406 88.085938 Z M 214.4375 92.144531 Z M 214.4375 92.144531 "/><path style=" stroke:none;fill-rule:nonzero;fill:#ffd2f3;fill-opacity:1;" d="M 200.433594 125.203125 C 179.921875 125.203125 163.238281 108.519531 163.238281 88.011719 C 163.238281 67.5 179.921875 50.816406 200.433594 50.816406 C 220.945312 50.816406 237.628906 67.5 237.628906 88.011719 C 237.628906 108.519531 220.945312 125.203125 200.433594 125.203125 Z M 200.433594 60.382812 C 185.28125 60.382812 172.804688 72.78125 172.804688 88.011719 C 172.804688 103.238281 185.203125 115.636719 200.433594 115.636719 C 215.664062 115.636719 228.0625 103.238281 228.0625 88.011719 C 228.0625 72.78125 215.664062 60.382812 200.433594 60.382812 Z M 200.433594 60.382812 "/><path style=" stroke:none;fill-rule:nonzero;fill:#ffd2f3;fill-opacity:1;" d="M 168.519531 146.785156 C 167.679688 146.785156 166.683594 146.554688 165.917969 146.019531 C 163.699219 144.566406 163.011719 141.582031 164.464844 139.363281 L 180.996094 113.878906 C 182.449219 111.65625 185.433594 110.96875 187.652344 112.421875 C 189.871094 113.878906 190.5625 116.863281 189.105469 119.082031 L 172.5 144.644531 C 171.65625 146.097656 170.050781 146.785156 168.519531 146.785156 Z M 106.761719 146.785156 C 104.234375 146.785156 102.09375 144.796875 101.9375 142.195312 L 100.5625 106.070312 C 100.40625 103.46875 102.472656 101.171875 105.152344 101.097656 C 107.753906 100.945312 110.050781 103.011719 110.128906 105.6875 L 111.503906 141.8125 C 111.65625 144.414062 109.59375 146.710938 106.914062 146.785156 C 106.835938 146.785156 106.835938 146.785156 106.761719 146.785156 Z M 106.761719 146.785156 "/></g></svg>