<svg xmlns="http://www.w3.org/2000/svg" xmlns:xlink="http://www.w3.org/1999/xlink" width="1080" zoomAndPan="magnify" viewBox="0 0 810 809.999993" height="1080" preserveAspectRatio="xMidYMid meet" version="1.2"><defs><clipPath id="a60f9e49f2"><path d="M 20.757812 0 L 788 0 L 788 806 L 20.757812 806 Z M 20.757812 0 "/></clipPath></defs><g id="61c86fe9f3"><g clip-rule="nonzero" clip-path="url(#a60f9e49f2)"><path style=" stroke:none;fill-rule:nonzero;fill:#fafafa;fill-opacity:1;" d="M 738.746094 93.4375 C 739.285156 91.105469 740.722656 89.308594 742.878906 88.410156 C 751.503906 84.996094 760.308594 83.199219 769.832031 84.457031 C 783.488281 91.820312 789.238281 103.140625 787.261719 118.59375 C 786.183594 127.039062 783.847656 134.945312 778.816406 141.953125 C 774.863281 147.523438 771.089844 153.273438 768.214844 157.40625 C 757.253906 166.207031 747.550781 173.753906 738.207031 181.300781 C 734.613281 184.175781 731.199219 187.230469 727.964844 190.464844 C 701.195312 218.675781 671.1875 243.648438 641.902344 269.164062 C 619.980469 288.210938 598.238281 307.253906 576.5 326.480469 C 567.875 334.027344 558.890625 341.035156 549.546875 347.683594 C 522.773438 366.550781 497.980469 387.929688 474.441406 408.234375 C 471.746094 412.546875 472.105469 415.601562 473.183594 418.476562 C 482.347656 444.347656 492.410156 469.683594 507.144531 493.222656 C 513.972656 504.363281 521.15625 514.960938 529.78125 524.304688 C 532.835938 526.101562 535.890625 526.28125 538.765625 524.664062 C 556.734375 514.78125 574.703125 504.722656 593.207031 494.480469 C 598.058594 494.121094 601.292969 497.535156 603.269531 501.667969 C 608.121094 512.085938 612.433594 522.507812 615.128906 533.828125 C 621.777344 560.0625 623.214844 586.472656 619.261719 613.246094 C 618.542969 618.457031 617.464844 623.847656 615.847656 628.878906 C 614.769531 632.472656 612.792969 635.886719 611.175781 639.480469 C 607.941406 642.535156 604.707031 645.949219 601.113281 648.644531 C 587.457031 658.164062 573.625 667.6875 559.609375 676.851562 C 553.859375 680.625 547.75 683.679688 541.460938 686.554688 C 524.210938 694.640625 506.964844 702.90625 489.355469 710.09375 C 473.183594 716.742188 457.371094 724.464844 441.5625 731.832031 C 422.875 740.636719 404.546875 749.800781 385.859375 758.425781 C 368.613281 766.511719 351.003906 774.058594 332.136719 777.832031 C 328.363281 778.550781 324.769531 779.988281 321.175781 781.066406 C 311.652344 783.941406 302.3125 786.996094 289.554688 790.945312 C 285.421875 793.460938 278.054688 797.59375 271.046875 801.546875 C 244.453125 809.992188 219.480469 805.5 195.582031 793.101562 C 175.636719 782.683594 158.929688 768.488281 145.453125 750.519531 C 134.3125 735.964844 124.789062 720.332031 116.34375 703.984375 C 110.953125 693.921875 105.742188 683.679688 100.351562 673.617188 C 91.191406 656.726562 84.363281 639.121094 77.535156 621.332031 C 70.527344 602.644531 65.675781 583.597656 61.722656 564.015625 C 55.433594 532.570312 46.449219 501.847656 41.597656 470.042969 C 40.160156 460.160156 38.542969 450.457031 37.824219 440.574219 C 36.925781 428.359375 34.769531 416.320312 32.792969 404.28125 C 29.378906 383.976562 26.683594 363.675781 25.25 343.011719 C 22.734375 307.972656 21.117188 272.9375 20.9375 237.898438 C 20.757812 218.855469 21.476562 199.808594 22.914062 180.761719 C 24.351562 161 28.839844 141.59375 34.230469 122.546875 C 35.667969 117.515625 38.183594 112.664062 40.339844 107.453125 C 43.394531 105.117188 46.269531 102.78125 48.425781 101.164062 C 50.941406 100.265625 52.199219 99.367188 53.636719 99.1875 C 67.113281 96.3125 80.589844 93.796875 92.988281 87.332031 C 96.9375 85.355469 101.609375 84.277344 106.101562 83.199219 C 131.257812 77.089844 156.59375 71.160156 181.746094 65.230469 C 192.167969 62.894531 202.410156 60.378906 212.652344 56.964844 C 222.714844 53.550781 233.316406 51.394531 243.554688 48.878906 C 255.414062 46.003906 267.453125 44.207031 278.953125 39.355469 C 281.109375 38.457031 283.265625 37.917969 285.601562 37.378906 C 310.214844 32.167969 334.113281 24.082031 358.550781 18.15625 C 372.566406 14.742188 386.578125 10.609375 400.59375 7.195312 C 410.296875 4.859375 420 2.882812 429.703125 0.90625 C 432.578125 0.367188 435.632812 0.367188 438.867188 0.0078125 C 440.304688 1.984375 442.460938 3.601562 442.820312 5.398438 C 443.359375 9.171875 443.539062 12.945312 443 16.71875 C 438.507812 46.902344 436.351562 77.269531 434.734375 107.8125 C 433.835938 123.804688 432.21875 139.617188 432.21875 155.789062 C 432.039062 176.449219 432.039062 196.933594 435.273438 217.417969 C 436.710938 226.402344 437.25 235.5625 438.148438 244.726562 C 438.507812 247.78125 438.507812 250.835938 438.867188 253.890625 C 442.820312 279.585938 446.949219 305.097656 451.082031 330.792969 C 451.621094 333.667969 452.519531 336.542969 457.191406 337.261719 C 458.988281 335.644531 461.324219 333.847656 463.480469 331.691406 C 512.355469 283.539062 564.820312 239.15625 616.027344 193.519531 C 645.136719 167.644531 675.679688 143.570312 705.6875 118.953125 C 715.75 110.6875 726.347656 103.320312 735.511719 93.976562 C 736.410156 93.078125 738.207031 92.898438 739.644531 92.179688 C 739.105469 97.570312 732.996094 100.445312 733.355469 107.453125 C 737.128906 115.359375 742.699219 123.445312 748.628906 131.171875 C 752.402344 136.023438 757.253906 139.617188 763.902344 141.234375 C 765.339844 140.335938 768.035156 139.617188 768.933594 138 C 771.449219 133.328125 773.605469 128.476562 775.042969 123.445312 C 778.816406 109.789062 775.402344 98.289062 764.441406 90.207031 C 754.558594 88.230469 746.832031 92.539062 738.746094 93.4375 Z M 439.046875 385.773438 L 438.6875 385.59375 C 438.328125 387.03125 438.6875 388.828125 437.789062 389.726562 C 434.554688 392.960938 431.140625 395.835938 427.726562 398.890625 C 427.367188 399.609375 427.1875 400.328125 426.828125 401.046875 C 426.109375 402.84375 426.46875 404.101562 428.625 405.359375 C 431.5 405.179688 435.273438 404.640625 438.867188 404.640625 C 442.460938 404.640625 445.875 407.875 451.261719 404.28125 C 462.761719 393.5 475.160156 381.28125 488.277344 369.425781 C 517.742188 342.832031 547.390625 316.597656 576.859375 290.1875 C 590.511719 277.96875 604.167969 265.75 617.644531 253.53125 C 620.519531 251.015625 623.394531 248.5 627.527344 248.320312 L 627.707031 248.5 C 627.347656 253.710938 623.214844 256.046875 619.800781 259.101562 C 580.453125 294.679688 540.921875 330.433594 501.574219 366.011719 C 497.621094 369.605469 493.847656 373.375 490.433594 377.148438 C 489.714844 378.046875 489.894531 379.84375 489.714844 381.28125 C 488.996094 381.460938 487.917969 381.460938 487.558594 381.820312 C 487.019531 382.539062 483.785156 381.460938 485.941406 383.976562 C 487.019531 382.898438 487.917969 381.820312 488.996094 380.742188 C 497.800781 377.6875 504.449219 371.21875 511.636719 365.652344 C 522.953125 356.667969 534.09375 347.503906 545.59375 338.699219 C 555.296875 331.332031 564.640625 323.425781 573.445312 315.160156 C 588.355469 300.96875 603.269531 286.773438 619.082031 273.65625 C 639.566406 256.585938 659.6875 239.15625 679.8125 221.730469 C 695.984375 207.714844 711.976562 193.699219 727.785156 179.503906 C 731.199219 176.449219 734.972656 173.753906 736.589844 169.082031 C 735.691406 163.152344 729.582031 161.355469 726.707031 157.046875 C 723.296875 152.015625 720.0625 146.984375 716.289062 142.132812 C 713.054688 137.820312 715.03125 131.351562 710 128.117188 C 705.507812 127.21875 702.8125 130.09375 699.9375 132.429688 C 676.578125 152.015625 653.222656 171.417969 630.042969 191.363281 C 610.457031 208.253906 591.230469 225.683594 571.648438 242.570312 C 522.054688 285.335938 474.441406 330.253906 428.445312 377.148438 C 427.367188 378.226562 426.289062 379.484375 425.75 380.742188 C 425.390625 382 425.75 383.617188 425.929688 385.234375 C 427.90625 386.132812 429.882812 386.851562 431.5 387.570312 C 434.554688 387.03125 436.890625 386.492188 439.046875 385.773438 Z M 407.242188 386.671875 C 414.789062 379.664062 423.054688 371.757812 431.320312 364.035156 C 434.195312 361.339844 436.53125 358.464844 437.070312 353.253906 C 436.710938 351.277344 436.171875 348.222656 435.632812 345.347656 C 429.703125 317.675781 425.210938 289.828125 421.4375 261.976562 C 419.460938 246.882812 418.742188 231.609375 417.125 216.519531 C 415.148438 199.089844 415.328125 181.480469 415.328125 164.050781 C 415.507812 138 418.5625 112.304688 423.234375 86.792969 C 427.1875 65.050781 429.164062 42.949219 432.21875 21.03125 C 432.398438 19.59375 432.21875 17.976562 431.859375 16.539062 C 431.5 14.023438 429.523438 12.765625 426.289062 11.6875 C 412.09375 13.84375 397.359375 18.335938 383.523438 24.261719 C 370.050781 30.011719 356.214844 33.605469 341.839844 36.121094 C 331.417969 38.097656 320.816406 40.074219 310.394531 42.230469 C 304.46875 43.488281 298.359375 44.566406 292.609375 46.542969 C 283.984375 49.777344 275.179688 51.753906 266.195312 53.910156 C 257.929688 55.707031 249.664062 57.324219 241.757812 60.199219 C 225.050781 65.949219 207.980469 69.542969 190.730469 73.136719 C 181.027344 75.113281 171.503906 77.808594 161.804688 80.324219 C 150.664062 83.199219 139.882812 86.792969 128.5625 88.949219 C 101.070312 94.15625 74.660156 103.859375 48.785156 114.28125 C 47.527344 116.796875 46.089844 118.59375 45.371094 120.75 C 41.777344 132.429688 39.082031 144.289062 37.464844 156.328125 C 33.332031 186.691406 32.074219 217.058594 33.152344 247.601562 C 33.871094 265.929688 35.847656 284.078125 37.285156 302.222656 C 37.824219 308.332031 38.902344 314.441406 38.722656 320.371094 C 38.542969 330.253906 39.261719 340.136719 40.699219 350.019531 C 41.417969 354.511719 41.777344 359.183594 41.597656 363.675781 C 41.238281 373.734375 42.496094 383.4375 44.113281 393.320312 C 45.011719 399.429688 45.910156 405.359375 46.089844 411.46875 C 47.886719 443.628906 55.074219 474.894531 61.902344 506.160156 C 63.699219 514.421875 66.394531 522.328125 68.550781 530.414062 C 70.347656 537.78125 71.605469 545.328125 73.761719 552.695312 C 75.917969 559.882812 79.511719 566.890625 81.847656 574.078125 C 90.113281 599.410156 98.554688 624.746094 108.976562 649.363281 C 110.234375 652.234375 110.59375 655.289062 111.851562 657.984375 C 117.78125 672.898438 123.351562 687.992188 130.179688 702.367188 C 142.21875 727.878906 161.804688 747.105469 184.800781 762.558594 C 205.644531 776.574219 228.644531 783.402344 253.976562 782.144531 C 265.835938 781.605469 276.257812 778.011719 285.0625 769.027344 C 289.015625 752.675781 287.21875 735.785156 286.320312 719.253906 C 285.960938 713.328125 283.445312 707.398438 281.289062 701.828125 C 275.71875 687.632812 268.890625 673.976562 261.34375 660.679688 C 256.492188 652.054688 251.460938 643.613281 243.375 637.324219 C 241.578125 635.886719 240.140625 634.089844 239.0625 631.933594 C 238.164062 629.957031 238.164062 627.621094 237.804688 625.644531 C 238.523438 624.925781 238.882812 624.207031 239.601562 624.027344 C 241.757812 623.128906 243.734375 622.230469 245.890625 621.871094 C 273.203125 618.277344 299.976562 612.886719 325.847656 603.003906 C 330.878906 601.027344 336.089844 600.128906 341.300781 598.691406 C 345.613281 597.433594 350.105469 596.355469 354.417969 594.917969 C 370.410156 589.707031 386.039062 583.777344 402.210938 579.109375 C 423.414062 573 444.257812 565.632812 465.097656 558.265625 C 484.503906 551.4375 503.191406 542.992188 521.335938 532.929688 C 522.234375 532.390625 522.59375 530.59375 523.132812 529.335938 C 522.234375 528.078125 521.695312 526.460938 520.617188 525.5625 C 512.355469 519.632812 506.785156 511.546875 501.753906 502.925781 C 496.363281 493.761719 490.433594 484.777344 484.863281 475.792969 C 478.214844 465.550781 472.824219 454.589844 468.332031 443.269531 C 466.175781 437.523438 463.480469 432.132812 460.785156 426.742188 C 460.246094 425.664062 458.449219 425.125 456.652344 424.046875 C 448.566406 428 444.078125 436.984375 437.25 440.214844 C 420.898438 444.886719 406.34375 449.199219 391.609375 453.332031 C 387.296875 454.589844 382.625 455.488281 378.132812 456.027344 C 376.699219 456.207031 375.261719 455.488281 373.824219 455.128906 C 373.105469 453.871094 372.566406 452.613281 371.488281 450.636719 C 380.648438 428.71875 394.84375 408.953125 407.242188 386.671875 Z M 302.132812 767.230469 C 306.085938 770.464844 309.675781 768.667969 313.089844 767.230469 C 340.222656 755.011719 367.714844 744.050781 395.203125 732.910156 C 415.6875 724.644531 436.171875 716.382812 456.292969 707.21875 C 476.417969 698.234375 496.183594 688.351562 515.949219 678.648438 C 530.320312 671.640625 544.515625 664.09375 557.992188 655.648438 C 564.460938 651.515625 571.109375 648.105469 576.5 645.050781 C 581.710938 644.511719 585.484375 644.152344 589.433594 643.792969 C 593.027344 639.660156 596.621094 635.886719 599.855469 631.753906 C 600.753906 630.675781 601.113281 629.058594 602.191406 626.542969 C 603.808594 613.425781 605.066406 599.050781 607.042969 584.675781 C 610.636719 559.882812 605.964844 536.34375 597.160156 514.242188 C 594.105469 511.011719 591.230469 510.289062 588.175781 511.1875 C 578.476562 514.0625 570.390625 519.632812 562.125 525.023438 C 539.664062 539.578125 515.769531 551.257812 490.792969 560.78125 C 467.253906 569.765625 443.71875 578.03125 419.640625 585.394531 C 403.648438 590.246094 387.65625 594.917969 372.027344 601.386719 C 350.824219 610.011719 329.082031 616.839844 306.441406 620.972656 C 292.25 623.488281 278.054688 626.722656 263.679688 628.160156 C 261.703125 628.339844 259.90625 630.136719 257.75 631.214844 C 259.007812 633.550781 259.726562 635.886719 260.984375 637.683594 C 267.09375 645.589844 271.40625 654.390625 276.257812 663.015625 C 283.984375 677.210938 288.65625 692.484375 294.40625 707.398438 C 298.71875 718.179688 300.875 729.316406 300.875 740.816406 C 300.875 745.308594 301.234375 749.980469 301.414062 754.472656 C 301.773438 758.605469 301.953125 762.917969 302.132812 767.230469 Z M 427.546875 434.828125 C 432.21875 428.71875 433.117188 422.609375 434.015625 416.679688 C 434.195312 415.0625 432.9375 413.984375 432.039062 413.625 C 427.007812 414.523438 422.695312 415.601562 418.203125 416.140625 C 416.046875 416.320312 413.53125 415.78125 413.171875 412.007812 C 414.609375 407.695312 416.40625 402.84375 418.023438 398.171875 C 416.40625 396.914062 415.328125 396.195312 413.890625 394.9375 C 412.09375 396.015625 409.578125 396.554688 408.5 398.171875 C 401.492188 408.054688 394.84375 418.117188 390.890625 429.078125 C 392.867188 434.828125 396.101562 438.78125 402.929688 442.730469 C 409.398438 439.5 418.203125 438.242188 427.546875 434.828125 Z M 722.578125 116.796875 C 726.167969 130.273438 732.457031 140.515625 740.542969 149.5 C 743.957031 153.273438 746.832031 158.304688 752.582031 159.023438 C 757.253906 155.789062 757.253906 155.789062 758.152344 150.757812 C 757.074219 149.679688 756.355469 148.242188 755.097656 147.523438 C 747.730469 143.210938 742.519531 136.742188 738.386719 129.375 C 736.589844 126.140625 734.972656 122.726562 732.996094 119.3125 C 731.917969 117.335938 730.660156 115.359375 729.042969 113.742188 C 728.144531 112.84375 726.347656 112.125 725.453125 112.484375 C 724.375 113.203125 723.835938 114.820312 722.578125 116.796875 Z M 721.320312 134.585938 C 721.5 133.867188 721.859375 132.96875 721.679688 132.609375 C 721.140625 131.53125 722.398438 128.117188 719.164062 130.273438 C 718.804688 130.453125 719.703125 132.96875 720.242188 134.226562 C 720.0625 134.40625 720.78125 134.40625 721.320312 134.585938 Z M 744.136719 164.230469 L 745.394531 164.769531 L 745.394531 163.511719 Z M 744.136719 164.230469 "/></g><path style=" stroke:none;fill-rule:nonzero;fill:#fafafa;fill-opacity:1;" d="M 379.03125 100.804688 C 377.054688 104.9375 374.542969 106.734375 371.847656 107.8125 C 363.402344 111.226562 354.957031 114.640625 346.152344 117.335938 C 330.160156 122.546875 314.167969 127.21875 298.179688 132.070312 C 294.585938 133.148438 290.8125 134.046875 287.21875 135.304688 C 258.46875 145.546875 229.183594 153.632812 199.175781 159.023438 C 184.261719 161.714844 169.347656 164.769531 154.257812 167.644531 C 139.34375 170.519531 124.429688 173.753906 110.054688 178.785156 C 98.554688 182.738281 86.519531 184.714844 74.660156 187.230469 C 73.582031 187.410156 72.144531 186.332031 71.066406 185.792969 C 71.605469 185.253906 71.964844 184.355469 72.503906 183.996094 C 81.847656 180.582031 91.011719 176.988281 100.351562 173.933594 C 108.257812 171.238281 116.34375 168.722656 124.25 166.386719 C 130.898438 164.410156 137.546875 162.792969 144.195312 161.355469 C 160.546875 157.945312 177.074219 154.53125 193.425781 151.65625 C 225.769531 145.90625 257.390625 137.460938 288.296875 126.5 C 291.171875 125.421875 294.046875 124.703125 297.101562 123.984375 C 319.378906 118.773438 340.941406 111.046875 362.503906 103.5 C 367.175781 102.0625 372.207031 100.265625 379.03125 100.804688 Z M 379.03125 100.804688 "/><path style=" stroke:none;fill-rule:nonzero;fill:#fafafa;fill-opacity:1;" d="M 377.59375 171.597656 C 374.003906 176.089844 368.792969 177.707031 363.941406 179.503906 C 345.433594 186.511719 326.566406 192.621094 307.878906 198.730469 C 306.445312 199.269531 305.007812 199.808594 303.570312 199.988281 C 280.390625 204.480469 258.109375 212.566406 235.292969 218.675781 C 216.246094 223.886719 196.839844 228.378906 177.972656 234.125 C 157.671875 240.414062 137.007812 245.804688 116.523438 251.375 C 101.96875 255.328125 86.878906 258.203125 72.144531 261.4375 C 71.425781 261.617188 70.707031 261.078125 69.808594 260.898438 C 70.707031 260 71.425781 258.5625 72.503906 258.203125 C 82.386719 254.25 92.269531 250.296875 102.6875 248.140625 C 127.304688 243.289062 151.023438 234.484375 175.097656 227.480469 C 177.972656 226.582031 180.847656 225.324219 183.722656 224.605469 C 206.003906 219.933594 227.925781 213.105469 249.84375 206.816406 C 271.765625 200.707031 294.046875 195.316406 315.964844 188.847656 C 328.363281 185.253906 340.402344 180.582031 352.621094 176.089844 C 359.808594 173.394531 366.816406 170.699219 374.542969 169.980469 C 375.441406 170.160156 376.519531 171.058594 377.59375 171.597656 Z M 377.59375 171.597656 "/><path style=" stroke:none;fill-rule:nonzero;fill:#fafafa;fill-opacity:1;" d="M 91.011719 395.65625 C 90.832031 394.9375 90.292969 394.039062 90.472656 393.679688 C 91.371094 392.421875 92.089844 390.984375 93.347656 390.625 C 108.617188 385.773438 123.53125 380.023438 138.984375 376.25 C 148.507812 373.914062 158.03125 370.679688 167.371094 367.988281 C 169.527344 367.269531 171.683594 366.550781 173.839844 366.011719 C 195.042969 360.261719 216.425781 354.691406 237.625 348.582031 C 252.898438 344.089844 267.992188 338.699219 283.265625 333.667969 C 288.296875 332.050781 293.328125 330.074219 298.539062 328.996094 C 322.433594 323.605469 345.433594 316.058594 368.253906 307.613281 C 374.542969 305.277344 380.828125 302.761719 388.015625 304.199219 C 387.65625 305.097656 387.476562 306.175781 387.117188 306.535156 C 384.601562 308.152344 382.085938 310.128906 379.390625 311.027344 C 351.183594 320.191406 323.332031 330.433594 294.585938 337.980469 C 278.414062 342.292969 262.78125 348.222656 246.789062 353.433594 C 241.757812 355.050781 236.730469 356.847656 231.519531 358.105469 C 217.503906 361.699219 203.667969 366.011719 189.652344 369.605469 C 164.679688 376.070312 140.0625 384.695312 114.726562 389.90625 C 110.234375 390.804688 105.921875 392.242188 101.429688 393.320312 C 98.015625 393.859375 94.964844 396.734375 91.011719 395.65625 Z M 91.011719 395.65625 "/><path style=" stroke:none;fill-rule:nonzero;fill:#fafafa;fill-opacity:1;" d="M 394.125 367.628906 C 393.945312 368.167969 393.765625 368.886719 393.40625 368.886719 C 381.367188 373.375 369.332031 378.046875 357.113281 382.359375 C 329.800781 392.0625 301.953125 399.609375 274.101562 406.796875 C 248.40625 413.265625 222.894531 420.8125 197.199219 428 C 195.042969 428.539062 192.886719 429.257812 190.550781 429.796875 C 165.578125 436.265625 140.601562 442.730469 115.445312 449.199219 C 111.851562 450.097656 108.257812 451.714844 104.304688 450.277344 C 103.40625 447.941406 104.484375 445.785156 106.28125 445.066406 C 110.414062 443.269531 114.726562 441.472656 119.039062 440.398438 C 144.015625 433.75 169.347656 428.359375 193.964844 420.632812 C 217.863281 413.085938 242.835938 408.953125 266.554688 400.507812 C 270.148438 399.25 273.921875 398.351562 277.515625 397.632812 C 302.3125 393.140625 325.847656 384.515625 350.285156 378.40625 C 355.496094 377.148438 360.347656 374.992188 365.378906 373.195312 C 377.234375 369.066406 381.007812 368.347656 394.125 367.628906 Z M 394.125 367.628906 "/><path style=" stroke:none;fill-rule:nonzero;fill:#fafafa;fill-opacity:1;" d="M 378.671875 243.828125 C 376.335938 245.984375 375.980469 246.703125 375.261719 246.882812 C 366.816406 250.296875 358.371094 253.53125 349.746094 256.765625 C 346.152344 258.023438 342.378906 258.5625 338.785156 259.820312 C 315.785156 267.726562 291.710938 272.21875 268.890625 280.484375 C 267.453125 281.023438 266.015625 281.382812 264.578125 281.742188 C 207.621094 295.21875 151.023438 310.128906 92.988281 319.292969 C 88.496094 320.011719 84.003906 320.550781 79.332031 321.089844 C 78.433594 321.089844 77.355469 320.191406 75.738281 319.472656 C 78.253906 318.394531 80.230469 317.316406 82.386719 316.777344 C 92.089844 314.621094 101.789062 312.824219 111.492188 310.667969 C 123.351562 307.972656 135.210938 304.917969 146.890625 302.042969 C 158.75 299.171875 170.605469 296.296875 182.464844 293.78125 C 219.660156 286.054688 256.492188 276.53125 292.96875 265.570312 C 295.125 264.851562 297.28125 264.3125 299.617188 263.773438 C 324.949219 258.382812 349.386719 250.296875 374.003906 241.851562 C 374.542969 241.492188 376.160156 242.75 378.671875 243.828125 Z M 378.671875 243.828125 "/><path style=" stroke:none;fill-rule:nonzero;fill:#fafafa;fill-opacity:1;" d="M 354.058594 459.800781 C 341.300781 464.113281 328.542969 466.449219 316.503906 471.660156 C 311.652344 473.816406 306.265625 474.355469 301.054688 475.433594 C 280.03125 479.566406 259.1875 483.699219 238.164062 487.832031 C 223.253906 490.707031 208.160156 493.582031 193.605469 498.253906 C 188.574219 499.871094 183.183594 500.769531 177.972656 501.847656 C 159.289062 505.621094 140.601562 509.75 122.8125 516.757812 C 120.117188 517.835938 116.882812 518.195312 114.007812 518.554688 C 112.210938 518.734375 111.132812 517.65625 111.132812 516.039062 C 111.132812 515.320312 111.492188 514.421875 111.851562 514.0625 C 113.109375 513.164062 114.367188 512.085938 115.625 511.726562 C 127.304688 507.957031 138.804688 504.183594 150.484375 500.769531 C 156.414062 498.972656 162.34375 497.714844 168.269531 496.636719 C 199.714844 490.527344 231.160156 484.417969 262.601562 478.308594 C 279.132812 475.074219 295.484375 472.019531 311.652344 467.167969 C 325.488281 463.035156 339.683594 459.980469 354.058594 459.800781 Z M 354.058594 459.800781 "/><path style=" stroke:none;fill-rule:nonzero;fill:#fafafa;fill-opacity:1;" d="M 405.984375 362.058594 L 405.984375 361.339844 L 407.78125 361.519531 Z M 405.984375 362.058594 "/><path style=" stroke:none;fill-rule:nonzero;fill:#fafafa;fill-opacity:1;" d="M 576.140625 618.996094 C 574.34375 622.949219 570.75 624.386719 567.335938 625.824219 C 546.3125 634.628906 525.109375 643.253906 503.910156 651.875 C 486.300781 659.0625 468.691406 666.25 451.082031 673.4375 C 427.007812 682.960938 402.929688 692.484375 378.132812 699.671875 C 374.542969 700.75 370.949219 702.1875 367.355469 703.625 C 356.574219 707.757812 345.613281 710.09375 333.753906 711.171875 C 334.652344 709.375 335.011719 707.578125 335.910156 707.039062 C 341.660156 702.726562 348.488281 701.648438 355.316406 702.546875 C 381.007812 695 405.804688 685.296875 430.601562 675.773438 C 452.699219 667.328125 474.261719 657.625 496.003906 648.644531 C 519.179688 638.941406 542.359375 629.417969 565.71875 619.894531 C 568.953125 618.457031 572.367188 616.839844 576.140625 618.996094 Z M 576.140625 618.996094 "/><path style=" stroke:none;fill-rule:nonzero;fill:#fafafa;fill-opacity:1;" d="M 513.074219 664.992188 C 512.175781 666.25 511.457031 668.046875 510.378906 668.40625 C 500.496094 672.179688 490.433594 675.773438 480.371094 679.546875 C 464.019531 685.65625 447.667969 691.945312 431.140625 697.695312 C 410.296875 705.0625 389.992188 713.867188 370.410156 724.285156 C 368.433594 725.363281 366.277344 726.082031 364.121094 726.980469 C 362.324219 727.699219 361.246094 726.800781 359.988281 722.667969 C 363.761719 720.332031 367.355469 717.640625 371.488281 715.664062 C 386.757812 708.65625 402.03125 702.007812 417.84375 696.4375 C 441.5625 687.8125 465.636719 680.804688 488.996094 671.460938 C 496.722656 668.40625 505.167969 667.507812 513.433594 665.53125 Z M 513.074219 664.992188 "/><path style=" stroke:none;fill-rule:nonzero;fill:#fafafa;fill-opacity:1;" d="M 534.8125 656.367188 C 533.554688 659.242188 531.039062 660.679688 528.164062 661.398438 C 523.132812 662.65625 518.101562 663.734375 513.074219 664.8125 L 513.613281 665.351562 C 515.050781 662.476562 517.5625 661.21875 520.4375 660.5 C 525.46875 659.242188 530.5 658.164062 535.351562 656.90625 Z M 534.8125 656.367188 "/><path style=" stroke:none;fill-rule:nonzero;fill:#fafafa;fill-opacity:1;" d="M 560.148438 587.191406 C 565 581.441406 564.820312 581.261719 570.03125 583.238281 C 566.976562 585.574219 563.203125 586.113281 559.609375 586.652344 Z M 560.148438 587.191406 "/><path style=" stroke:none;fill-rule:nonzero;fill:#fafafa;fill-opacity:1;" d="M 559.609375 586.652344 C 556.914062 591.863281 556.375 592.042969 550.445312 590.785156 C 553.320312 588.269531 556.914062 587.910156 560.328125 587.191406 Z M 559.609375 586.652344 "/><path style=" stroke:none;fill-rule:nonzero;fill:#fafafa;fill-opacity:1;" d="M 535.53125 656.90625 C 536.429688 655.828125 537.148438 654.570312 538.046875 653.492188 C 538.40625 653.132812 539.484375 652.773438 540.023438 652.953125 C 541.460938 653.671875 541.101562 654.390625 538.945312 654.929688 C 537.507812 655.289062 536.25 655.828125 534.992188 656.367188 C 534.8125 656.367188 535.53125 656.90625 535.53125 656.90625 Z M 535.53125 656.90625 "/><path style=" stroke:none;fill-rule:nonzero;fill:#fafafa;fill-opacity:1;" d="M 439.046875 385.773438 C 439.40625 384.335938 439.40625 382.539062 440.304688 381.640625 C 442.820312 378.765625 445.515625 376.070312 448.207031 373.375 C 471.925781 350.738281 495.824219 328.457031 519.539062 305.816406 C 543.796875 282.640625 568.59375 260 593.925781 238.078125 C 601.472656 231.609375 608.660156 224.785156 616.207031 218.316406 C 628.785156 207.355469 641.542969 196.394531 654.121094 185.253906 C 656.453125 183.277344 659.148438 181.839844 662.203125 181.660156 C 662.203125 182.378906 662.382812 183.457031 662.023438 183.996094 C 660.765625 185.792969 659.507812 187.769531 657.890625 189.207031 C 635.613281 208.972656 613.332031 228.558594 591.230469 248.320312 C 573.625 264.132812 556.015625 279.945312 538.765625 296.117188 C 518.820312 314.800781 499.238281 334.207031 479.292969 353.074219 C 468.152344 363.496094 456.652344 373.554688 445.15625 383.617188 C 443.539062 385.054688 441.023438 385.054688 438.867188 385.773438 Z M 439.046875 385.773438 "/><path style=" stroke:none;fill-rule:nonzero;fill:#fafafa;fill-opacity:1;" d="M 627.707031 248.5 C 628.066406 247.0625 628.066406 245.265625 628.964844 244.367188 C 637.050781 235.742188 645.855469 227.480469 655.554688 220.652344 C 656.632812 219.933594 658.429688 219.933594 659.867188 219.574219 L 659.507812 219.394531 C 659.148438 220.832031 659.328125 222.628906 658.429688 223.347656 C 649.808594 231.429688 641.003906 239.335938 632.019531 247.242188 C 630.941406 248.140625 629.324219 248.140625 627.886719 248.679688 Z M 627.707031 248.5 "/><path style=" stroke:none;fill-rule:nonzero;fill:#fafafa;fill-opacity:1;" d="M 662.203125 181.660156 C 662.203125 180.941406 662.023438 180.042969 662.382812 179.503906 C 667.773438 172.675781 673.164062 166.027344 682.507812 164.230469 L 681.96875 163.871094 C 681.96875 164.589844 682.148438 165.488281 681.789062 166.027344 C 677.835938 172.136719 672.265625 176.449219 666.335938 180.582031 C 665.078125 181.300781 663.460938 181.300781 662.203125 181.660156 Z M 662.203125 181.660156 "/><path style=" stroke:none;fill-rule:nonzero;fill:#fafafa;fill-opacity:1;" d="M 659.867188 219.574219 C 659.867188 218.855469 659.6875 217.957031 660.046875 217.417969 C 664 211.308594 669.570312 206.636719 675.859375 202.863281 C 676.9375 202.144531 678.734375 202.324219 679.992188 201.964844 C 679.992188 201.964844 679.453125 201.605469 679.453125 201.605469 C 678.914062 202.863281 678.914062 204.480469 678.015625 205.378906 C 674.0625 209.511719 669.929688 213.464844 665.4375 217.058594 C 664 218.316406 661.484375 218.496094 659.507812 219.035156 Z M 659.867188 219.574219 "/><path style=" stroke:none;fill-rule:nonzero;fill:#fafafa;fill-opacity:1;" d="M 680.171875 201.964844 C 680.351562 200.527344 680.351562 198.910156 681.070312 197.832031 C 683.765625 194.058594 687 191.003906 691.851562 190.285156 L 691.3125 189.925781 C 691.3125 190.644531 691.671875 191.542969 691.3125 192.082031 C 688.617188 196.753906 685.203125 200.347656 679.632812 201.605469 Z M 680.171875 201.964844 "/><path style=" stroke:none;fill-rule:nonzero;fill:#fafafa;fill-opacity:1;" d="M 682.328125 164.230469 C 682.6875 162.972656 682.6875 161.175781 683.40625 160.28125 C 686.28125 156.867188 689.335938 153.992188 693.828125 152.554688 L 693.289062 152.015625 C 693.46875 152.734375 693.828125 153.632812 693.648438 154.171875 C 691.132812 159.023438 687.71875 162.792969 681.96875 163.691406 Z M 682.328125 164.230469 "/><path style=" stroke:none;fill-rule:nonzero;fill:#fafafa;fill-opacity:1;" d="M 702.8125 146.625 C 703.53125 145.546875 704.25 144.289062 705.148438 143.210938 C 705.328125 142.851562 706.40625 143.210938 706.945312 143.210938 C 706.046875 143.929688 705.148438 144.648438 704.070312 145.1875 C 703.53125 145.546875 702.8125 145.726562 702.09375 145.90625 Z M 702.8125 146.625 "/><path style=" stroke:none;fill-rule:nonzero;fill:#fafafa;fill-opacity:1;" d="M 701.914062 146.085938 C 700.835938 150.757812 697.0625 151.65625 693.109375 152.195312 L 693.648438 152.734375 C 695.445312 148.960938 698.859375 147.882812 702.453125 146.804688 Z M 701.914062 146.085938 "/><path style=" stroke:none;fill-rule:nonzero;fill:#fafafa;fill-opacity:1;" d="M 711.4375 172.496094 C 710.359375 176.808594 706.945312 177.707031 703.171875 178.246094 L 703.890625 178.785156 C 705.148438 174.652344 708.5625 173.574219 712.15625 173.035156 Z M 711.4375 172.496094 "/><path style=" stroke:none;fill-rule:nonzero;fill:#fafafa;fill-opacity:1;" d="M 699.578125 183.996094 C 698.320312 188.128906 695.085938 189.566406 691.132812 189.925781 L 691.671875 190.285156 C 692.570312 185.433594 696.34375 184.714844 700.296875 184.355469 Z M 699.578125 183.996094 "/><path style=" stroke:none;fill-rule:nonzero;fill:#fafafa;fill-opacity:1;" d="M 715.75 167.285156 C 717.367188 164.410156 715.03125 167.105469 714.851562 166.746094 Z M 715.75 167.285156 "/><path style=" stroke:none;fill-rule:nonzero;fill:#fafafa;fill-opacity:1;" d="M 712.15625 173.035156 C 711.976562 170.160156 713.773438 168.722656 715.929688 167.285156 L 715.03125 166.746094 C 715.390625 169.621094 713.773438 171.238281 711.4375 172.496094 Z M 712.15625 173.035156 "/><path style=" stroke:none;fill-rule:nonzero;fill:#fafafa;fill-opacity:1;" d="M 700.296875 184.535156 C 699.21875 181.300781 701.195312 179.863281 703.710938 178.785156 L 702.992188 178.246094 C 703.890625 181.300781 701.914062 182.738281 699.578125 183.996094 Z M 700.296875 184.535156 "/></g></svg>