<svg xmlns="http://www.w3.org/2000/svg" xmlns:xlink="http://www.w3.org/1999/xlink" width="1080" zoomAndPan="magnify" viewBox="0 0 810 809.999993" height="1080" preserveAspectRatio="xMidYMid meet" version="1.2"><g id="56e23b7632"><path style=" stroke:none;fill-rule:evenodd;fill:#fafafa;fill-opacity:1;" d="M 492.148438 645 C 491.890625 645.050781 491.699219 645.132812 491.722656 645.257812 C 491.054688 645.644531 490.585938 646.339844 490.519531 647.167969 C 490.417969 648.503906 491.417969 649.671875 492.753906 649.773438 C 493.679688 649.859375 494.636719 649.542969 495.484375 648.59375 C 496.460938 647.5 497.476562 644.445312 498.183594 640.296875 C 499.996094 629.644531 500.863281 610.898438 501.5 607.523438 C 503.207031 598.480469 506.070312 588.675781 510.300781 579.5625 C 514.421875 570.683594 519.855469 562.472656 526.867188 556.367188 C 549.851562 536.359375 577.304688 523.113281 599.230469 503.054688 C 608.804688 494.292969 617.328125 484.253906 624.09375 471.945312 C 664.105469 398.796875 658.574219 325.558594 623.40625 268.769531 C 588.421875 212.28125 523.953125 172.136719 445.945312 164.230469 C 427.765625 162.414062 408.855469 162.269531 390.128906 163.890625 C 371.3125 165.523438 352.679688 168.933594 335.167969 174.195312 C 279.269531 191.050781 237.597656 237.398438 217.570312 292.019531 C 197.59375 346.488281 199.179688 409.015625 228.808594 457.980469 C 236.757812 470.941406 249.003906 483.9375 262.863281 496.074219 C 282.652344 513.402344 305.65625 529.042969 323.191406 540.734375 C 335.886719 549.164062 347.027344 559.28125 353.101562 576.867188 C 358.820312 593.429688 360.136719 616.359375 354.601562 650.117188 C 354.359375 651.472656 355.261719 652.769531 356.617188 653.011719 C 357.976562 653.25 359.269531 652.347656 359.511719 650.992188 C 366.234375 615.988281 365.269531 592.070312 359.789062 574.660156 C 353.617188 555.054688 341.722656 543.46875 327.957031 533.765625 C 310.988281 521.863281 288.761719 505.921875 269.667969 488.46875 C 256.933594 476.824219 245.589844 464.523438 238.378906 452.238281 C 210.910156 406.054688 210.210938 347.375 229.230469 296.332031 C 248.167969 245.519531 286.734375 202.121094 338.878906 186.558594 C 355.5625 181.558594 373.316406 178.339844 391.246094 176.796875 C 409.164062 175.253906 427.261719 175.390625 444.652344 177.132812 C 518.457031 184.410156 579.378906 222.175781 612.886719 275.34375 C 646.550781 328.75 652.476562 397.730469 615.570312 467.359375 C 609.523438 478.832031 601.773438 488.207031 593.085938 496.464844 C 571.628906 516.851562 544.578125 530.613281 522.101562 551.007812 C 514.527344 557.886719 508.664062 567.007812 504.347656 576.875 C 500.105469 586.5625 497.328125 596.953125 495.757812 606.511719 C 495.121094 610.382812 494.671875 634.339844 492.488281 643.339844 C 492.355469 643.886719 492.265625 644.570312 492.148438 645 Z M 492.675781 644.9375 C 492.585938 644.945312 492.496094 644.953125 492.402344 644.960938 L 492.148438 645 L 492.132812 645.066406 C 491.988281 645.117188 491.851562 645.179688 491.722656 645.257812 C 491.726562 645.296875 491.757812 645.339844 491.8125 645.386719 C 491.953125 645.503906 492.050781 645.351562 492.132812 645.066406 C 492.339844 644.992188 492.558594 644.945312 492.785156 644.933594 Z M 492.675781 644.9375 "/><path style=" stroke:none;fill-rule:evenodd;fill:#fafafa;fill-opacity:1;" d="M 359.515625 656.738281 C 362.765625 655.324219 366.566406 654.730469 370.53125 654.425781 C 378.085938 653.847656 386.160156 654.3125 392.910156 653.777344 C 413.261719 652.078125 433.539062 649.9375 453.902344 648.367188 C 467.390625 647.324219 480.890625 646.507812 494.484375 646.355469 C 495.824219 646.382812 496.933594 645.3125 496.957031 643.972656 C 496.980469 642.632812 495.914062 641.523438 494.574219 641.5 C 480.859375 640.847656 467.199219 640.808594 453.539062 641.128906 C 433.105469 641.601562 412.734375 642.839844 392.308594 643.539062 C 384.308594 643.847656 374.535156 642.699219 365.832031 643.554688 C 361.21875 644.003906 356.890625 645.039062 353.113281 646.847656 C 350.90625 647.914062 348.550781 651.046875 347.59375 655.941406 C 346.101562 663.527344 346.839844 676.820312 346.808594 679.394531 C 346.78125 684 346.855469 688.589844 347.007812 693.167969 C 347.609375 711.226562 349.324219 729.0625 349.257812 747.011719 C 349.253906 751.429688 346.722656 758.464844 346.832031 764.230469 C 346.914062 768.703125 348.25 772.609375 351.140625 775.503906 C 355.875 780.230469 363.285156 782.84375 371.917969 783.691406 C 386.882812 785.164062 405.820312 781.570312 415.703125 780.6875 C 430.460938 779.335938 445.609375 779.6875 460.234375 777.703125 C 466.917969 776.796875 473.5 775.414062 479.898438 773.234375 C 484.355469 771.703125 489.304688 770.578125 493.574219 768.386719 C 497.132812 766.5625 500.289062 764.101562 502.644531 760.492188 C 505.09375 756.683594 506.59375 752.257812 507.390625 747.570312 C 508.414062 741.558594 508.34375 735.136719 508.5 729.515625 C 508.582031 725.695312 508.5 721.890625 508.3125 718.089844 C 507.890625 709.503906 506.980469 700.964844 506.71875 692.371094 C 506.519531 686.875 507.75 681.46875 508.089844 676.019531 C 508.253906 673.386719 508.253906 670.757812 507.855469 668.105469 C 506.992188 662.355469 504.515625 656.28125 503.453125 650.636719 C 503.195312 649.257812 503.042969 647.90625 503.019531 646.609375 C 503.019531 645.230469 501.902344 644.113281 500.527344 644.113281 C 499.148438 644.113281 498.03125 645.230469 498.03125 646.609375 C 497.976562 648.878906 498.292969 651.285156 498.726562 653.769531 C 499.585938 658.6875 501.039062 663.925781 501.390625 668.824219 C 501.550781 671.019531 501.363281 673.171875 501.066406 675.316406 C 500.28125 681.003906 498.640625 686.589844 498.429688 692.371094 C 498.167969 701.015625 498.535156 709.640625 498.449219 718.28125 C 498.417969 721.851562 498.296875 725.417969 498.019531 728.992188 C 497.644531 734.125 497.457031 740 496.304688 745.460938 C 495.652344 748.570312 494.660156 751.535156 492.941406 754.023438 C 491.730469 755.804688 490.0625 756.917969 488.269531 757.796875 C 484.457031 759.664062 480.039062 760.488281 476.074219 761.769531 C 468.46875 764.25 460.582031 765.417969 452.582031 766.085938 C 440.011719 767.136719 427.167969 766.9375 414.597656 767.976562 C 406.433594 768.664062 391.808594 771.351562 378.761719 771.125 C 371.242188 770.992188 364.214844 770.238281 360.3125 766.328125 C 359.941406 765.957031 359.917969 765.410156 359.855469 764.859375 C 359.761719 764.019531 359.789062 763.125 359.867188 762.203125 C 360.332031 756.84375 362.199219 750.925781 362.195312 747.011719 C 362.1875 742.410156 362.078125 737.816406 361.882812 733.226562 C 361.128906 715.359375 359.269531 697.535156 359.179688 679.394531 C 359.148438 676.878906 357.671875 662.675781 359.515625 656.738281 Z M 359.515625 656.738281 "/><path style=" stroke:none;fill-rule:evenodd;fill:#fafafa;fill-opacity:1;" d="M 502.953125 725.960938 C 495.273438 725.972656 487.691406 725.917969 480.011719 726.109375 C 472.378906 726.300781 464.792969 726.582031 457.167969 727.046875 C 452.214844 727.347656 447.273438 727.792969 442.332031 728.226562 C 434.933594 728.875 427.539062 729.5625 420.148438 730.269531 C 407.859375 731.449219 395.558594 732.378906 383.265625 733.570312 C 380.089844 733.878906 376.957031 734.285156 373.792969 734.703125 C 366.359375 735.683594 359.09375 736.828125 351.628906 737.683594 C 350.25 737.683594 349.132812 738.800781 349.132812 740.179688 C 349.132812 741.554688 350.25 742.675781 351.628906 742.675781 C 356.765625 743.289062 361.792969 743.882812 366.945312 744.292969 C 372.078125 744.699219 377.160156 745.058594 382.304688 745.105469 C 392.519531 745.199219 402.714844 744.507812 412.902344 743.804688 C 422.042969 743.171875 431.171875 742.332031 440.28125 741.332031 C 446.34375 740.667969 452.398438 739.972656 458.429688 739.078125 C 465.984375 737.957031 473.457031 736.621094 480.964844 735.230469 C 488.5 733.832031 495.894531 732.242188 503.417969 730.796875 C 504.75 730.667969 505.730469 729.480469 505.601562 728.144531 C 505.472656 726.8125 504.285156 725.832031 502.953125 725.960938 Z M 502.953125 725.960938 "/><path style=" stroke:none;fill-rule:evenodd;fill:#fafafa;fill-opacity:1;" d="M 500.667969 698.925781 L 498.769531 698.582031 C 496.597656 698.195312 494.152344 697.8125 492.757812 697.777344 C 489.726562 697.714844 486.730469 697.703125 483.699219 697.792969 C 476.761719 697.992188 469.890625 698.566406 462.960938 698.886719 C 454.683594 699.652344 446.417969 700.433594 438.183594 701.492188 C 426.746094 702.964844 415.34375 704.683594 403.929688 706.292969 C 396.367188 707.359375 388.835938 708.535156 381.238281 709.402344 C 378.988281 709.804688 375.523438 710.640625 371.722656 711.425781 C 368.796875 712.035156 365.75 712.691406 362.925781 712.777344 C 360.460938 712.855469 358.242188 712.902344 356.808594 711.78125 C 355.835938 710.804688 354.253906 710.804688 353.28125 711.78125 C 352.308594 712.753906 352.308594 714.335938 353.28125 715.308594 C 355.101562 717.628906 358.394531 718.933594 362.320312 719.726562 C 369.074219 721.097656 377.839844 720.308594 382.128906 720.417969 C 386.59375 720.246094 391.042969 720.058594 395.492188 719.714844 C 402.132812 719.195312 408.753906 718.449219 415.363281 717.628906 C 425.210938 716.40625 435.039062 715.042969 444.851562 713.546875 C 451.351562 712.558594 457.820312 711.410156 464.332031 710.441406 L 493.273438 704.722656 C 495.652344 704.300781 501.535156 704.5 502.84375 704.035156 C 504.058594 703.605469 504.660156 702.945312 504.828125 702.355469 C 505.015625 701.703125 505.527344 699.855469 503.257812 698.835938 C 502.425781 698.347656 501.417969 698.414062 500.667969 698.925781 Z M 500.667969 698.925781 "/><path style=" stroke:none;fill-rule:evenodd;fill:#fafafa;fill-opacity:1;" d="M 502.476562 671.140625 C 501.664062 671.023438 500.714844 670.875 499.855469 670.820312 C 494.171875 670.4375 486.660156 669.488281 485.839844 669.480469 C 485.828125 669.480469 485.820312 669.480469 485.808594 669.480469 C 485.808594 669.480469 475.226562 669.484375 466.027344 669.773438 C 459.027344 669.992188 452.875 670.40625 452.875 670.40625 C 452.859375 670.40625 452.84375 670.410156 452.828125 670.410156 C 448.355469 670.753906 443.890625 671.125 439.433594 671.589844 C 430.59375 672.515625 421.78125 673.625 412.960938 674.707031 C 404.25 675.777344 395.542969 676.898438 386.777344 677.617188 C 384.402344 677.914062 380.8125 678.496094 376.769531 679.25 C 372.253906 680.09375 367.238281 681.15625 362.664062 681.464844 C 359.054688 681.710938 355.851562 681.832031 353.691406 680.730469 C 352.546875 679.96875 350.996094 680.277344 350.234375 681.421875 C 349.46875 682.570312 349.78125 684.121094 350.925781 684.882812 C 354.03125 687.527344 359.742188 688.808594 366.097656 689.40625 C 369.757812 689.753906 373.5625 689.820312 377.125 689.753906 C 381.339844 689.675781 385.089844 689.363281 387.511719 689.363281 C 396.5 688.976562 405.453125 688.351562 414.386719 687.425781 C 427.589844 686.054688 440.734375 684.152344 453.964844 682.910156 C 453.917969 682.914062 460.054688 682.304688 466.992188 681.363281 C 476.113281 680.125 486.550781 678.375 486.550781 678.375 C 487.777344 678.164062 504.6875 677.285156 507.046875 675.679688 C 508.183594 674.90625 508.679688 674.046875 508.65625 673.210938 C 508.640625 672.675781 508.640625 672.074219 508.234375 671.519531 C 507.910156 671.082031 507.246094 670.28125 505.683594 669.792969 C 504.453125 669.269531 503.023438 669.84375 502.5 671.074219 Z M 503.539062 674.140625 C 503.648438 674.671875 503.867188 675.035156 504.234375 674.601562 C 504.324219 674.492188 503.992188 674.378906 503.78125 674.261719 C 503.695312 674.226562 503.617188 674.1875 503.539062 674.140625 Z M 503.933594 671.300781 C 504.359375 671.3125 504.589844 671.246094 504.496094 671.035156 C 504.335938 670.648438 504.125 670.890625 503.933594 671.300781 Z M 503.933594 671.300781 "/><path style=" stroke:none;fill-rule:evenodd;fill:#fafafa;fill-opacity:1;" d="M 397.34375 798.332031 L 397.300781 798.332031 C 397.234375 798.339844 397.363281 798.453125 397.378906 798.515625 L 397.34375 798.332031 C 398.019531 798.324219 397.296875 799.941406 397.351562 800.6875 C 397.441406 801.957031 397.804688 803.105469 398.261719 804.101562 C 398.972656 805.652344 400.171875 806.804688 401.777344 807.679688 C 404.660156 809.210938 408.550781 809.851562 412.859375 809.714844 C 419.191406 809.519531 426.664062 807.523438 431.605469 807.097656 C 431.585938 807.089844 431.578125 807.070312 431.582031 807.042969 C 431.875 804.894531 436.269531 807.941406 437.929688 807.5625 C 440.277344 807.027344 442.234375 805.886719 443.324219 803.445312 C 443.816406 802.207031 445.726562 799.589844 447.582031 796.453125 C 450.484375 791.542969 453.335938 785.902344 453.539062 781.941406 C 453.667969 779.46875 453.355469 777.453125 451.90625 776.15625 C 451.035156 775.378906 450.023438 774.574219 448.414062 774.402344 C 447.128906 774.03125 445.78125 774.773438 445.410156 776.0625 C 445.039062 777.347656 445.78125 778.695312 447.070312 779.066406 C 447.320312 779.1875 447.394531 779.441406 447.53125 779.601562 C 447.648438 779.742188 447.171875 779.742188 447.148438 779.929688 C 447.050781 780.710938 446.34375 781.417969 445.730469 782.367188 C 443.925781 785.160156 440.828125 788.066406 438.226562 790.804688 C 436.648438 792.464844 435.257812 794.050781 434.191406 795.367188 C 433.09375 794.914062 431.867188 794.28125 431.089844 794.316406 C 426.828125 794.605469 420.484375 796.054688 414.652344 796.710938 C 412.550781 796.949219 410.53125 797.253906 408.875 797.023438 C 408.933594 796.308594 408.980469 795.597656 408.828125 795.148438 C 408.21875 793.59375 407.757812 791.742188 407.144531 789.816406 C 406.125 786.605469 404.964844 783.347656 403.296875 780.484375 C 401.828125 777.960938 400.3125 775.789062 398.117188 774.339844 C 397.144531 773.363281 395.5625 773.363281 394.589844 774.339844 C 393.617188 775.3125 393.617188 776.894531 394.589844 777.867188 C 395.242188 778.839844 395.492188 779.96875 395.792969 781.183594 C 396.011719 782.074219 396 782.964844 396.113281 783.921875 C 396.378906 786.214844 396.296875 788.546875 396.417969 790.882812 C 396.558594 793.589844 396.921875 796.140625 397.34375 798.332031 Z M 431.605469 807.097656 L 432 807.0625 C 431.894531 807.070312 431.671875 807.148438 431.605469 807.097656 Z M 408.832031 797.597656 C 408.757812 798.628906 408.777344 799.503906 409.507812 799.367188 C 410.359375 799.210938 409.714844 798.34375 408.832031 797.597656 Z M 433.070312 796.804688 C 432.789062 797.128906 432.535156 797.507812 432.296875 797.929688 C 432.480469 797.625 432.742188 797.246094 433.070312 796.804688 Z M 434.765625 795.585938 C 435.664062 795.902344 436.382812 795.96875 436.539062 795.222656 C 436.660156 794.628906 435.425781 795.378906 434.980469 795.515625 C 434.90625 795.539062 434.835938 795.5625 434.765625 795.585938 Z M 434.765625 795.585938 "/><path style=" stroke:none;fill-rule:evenodd;fill:#fafafa;fill-opacity:1;" d="M 401.71875 485.105469 C 398.496094 487.074219 394.882812 488.589844 390.972656 489.625 C 388.085938 485.328125 384.671875 481.144531 380.824219 477.4375 C 376.339844 473.117188 371.25 469.464844 365.765625 466.933594 C 362.917969 465.621094 357.296875 464.824219 352.539062 465.757812 C 348.175781 466.613281 344.664062 468.945312 342.992188 472.246094 C 342.1875 473.835938 341.875 475.761719 342.296875 477.964844 C 342.769531 480.449219 344.578125 483.800781 347.386719 487.179688 C 351.410156 492.035156 357.476562 497.292969 361.792969 500.164062 C 364.574219 502.015625 367.003906 502.925781 368.355469 503.097656 C 374.472656 503.882812 380.382812 503.910156 385.960938 503.242188 C 391.265625 512.804688 395.023438 523.835938 397.945312 535.367188 C 403.316406 556.546875 405.824219 579.378906 408.707031 598.449219 C 409.390625 602.832031 412.796875 625.253906 410.476562 638.25 C 409.855469 641.707031 409.128906 644.519531 407.246094 645.457031 C 406.148438 646.003906 404.792969 645.59375 403.027344 644.523438 C 401.859375 643.796875 400.320312 644.15625 399.589844 645.328125 C 398.863281 646.496094 399.226562 648.035156 400.394531 648.761719 C 404.089844 651.109375 407.089844 651.167969 409.453125 650.089844 C 412.496094 648.703125 414.757812 644.820312 416.007812 639.375 C 419.109375 625.835938 416.777344 602.097656 416.285156 597.457031 C 414.132812 577.992188 412.601562 554.707031 407.890625 533.027344 C 405.402344 521.585938 401.996094 510.609375 397.289062 500.800781 C 403.007812 498.96875 408.183594 496.300781 412.632812 492.894531 C 422.683594 498.148438 435.183594 501.171875 447.65625 501.476562 C 450.414062 501.542969 453.167969 501.476562 455.894531 501.269531 C 455.058594 509.992188 454.597656 518.847656 454.40625 527.757812 C 453.832031 554.480469 455.640625 581.660156 456.613281 607.082031 C 456.929688 614.972656 459.089844 624.222656 459.597656 632.898438 C 459.8125 636.523438 459.742188 640.035156 459.046875 643.28125 C 458.738281 644.585938 459.550781 645.894531 460.855469 646.203125 C 462.160156 646.507812 463.46875 645.695312 463.773438 644.390625 C 464.699219 640.757812 464.960938 636.792969 464.878906 632.691406 C 464.707031 624.058594 462.910156 614.792969 462.894531 606.949219 C 462.785156 581.667969 461.976562 554.613281 463.375 528.089844 C 463.875 518.582031 464.65625 509.144531 465.882812 499.890625 C 475.625 497.875 484.480469 493.957031 491.101562 488.082031 C 496.609375 483.171875 510.527344 469.882812 515.113281 457.875 C 518.097656 450.058594 517.597656 442.683594 511.890625 437.058594 C 505.03125 430.3125 498.46875 428.25 492.597656 428.855469 C 487.929688 429.335938 483.53125 431.515625 479.605469 435.042969 C 469.277344 444.332031 462.078125 463.558594 459.816406 474.480469 C 458.882812 479.039062 458.089844 483.664062 457.425781 488.339844 C 454.324219 488.652344 451.160156 488.753906 447.996094 488.664062 C 438.898438 488.402344 429.75 486.523438 422.019531 483.121094 C 429.199219 472.847656 432.125 459.078125 428.472656 442.488281 C 427.222656 436.816406 423.890625 424.355469 417.980469 417.589844 C 413.980469 413.007812 408.9375 410.625 403.015625 411.609375 C 390.015625 413.769531 385.097656 420.953125 383.976562 429.644531 C 382.707031 439.472656 387.839844 452.453125 391.585938 461.824219 C 393.746094 467.21875 395.054688 474.125 398 479.683594 C 399.042969 481.65625 400.265625 483.484375 401.71875 485.105469 Z M 377.808594 491.300781 C 376.234375 489.433594 374.539062 487.636719 372.742188 485.957031 C 369.160156 482.609375 365.164062 479.734375 360.828125 477.792969 C 359.863281 477.359375 358.152344 477.246094 356.476562 477.351562 C 355.71875 477.398438 354.621094 477.703125 354.003906 477.894531 C 355.8125 480.683594 362.375 485.210938 365.664062 487.769531 C 367.375 489.101562 369.765625 490.53125 370.363281 490.882812 C 372.894531 491.171875 375.382812 491.308594 377.808594 491.300781 Z M 468.027344 486.339844 C 473.667969 484.710938 478.753906 482.191406 482.785156 478.65625 C 486.921875 475.039062 496.648438 466.222656 501.863281 457.234375 C 503.296875 454.765625 504.417969 452.320312 504.714844 449.984375 C 504.921875 448.34375 504.667969 446.785156 503.425781 445.523438 C 500.503906 442.554688 497.835938 440.878906 495.207031 440.550781 C 492.261719 440.179688 489.613281 441.558594 487.171875 443.65625 C 478.277344 451.292969 472.175781 467.554688 470.046875 476.722656 C 469.300781 479.894531 468.632812 483.101562 468.027344 486.339844 Z M 353.839844 477.625 C 354.113281 477.078125 355.011719 475.429688 354.246094 475.738281 C 353.398438 476.085938 353.351562 476.757812 353.839844 477.625 Z M 411.242188 476.351562 C 416.792969 468.578125 418.792969 457.988281 415.941406 445.273438 C 415.199219 441.960938 413.691406 435.710938 411.070312 430.476562 C 410.082031 428.496094 408.953125 426.65625 407.550781 425.367188 C 406.855469 424.730469 406.101562 424.203125 405.144531 424.363281 C 399.777344 425.261719 397.285156 427.707031 396.824219 431.292969 C 395.8125 439.203125 400.613281 449.472656 403.628906 457.007812 C 405.394531 461.429688 406.507812 466.929688 408.558594 471.757812 C 409.273438 473.4375 410.09375 475.039062 411.242188 476.351562 Z M 411.242188 476.351562 "/><path style=" stroke:none;fill-rule:evenodd;fill:#fafafa;fill-opacity:1;" d="M 575.417969 249.386719 C 575.191406 250.570312 575.878906 251.765625 577.054688 252.144531 C 578.328125 252.558594 579.699219 251.859375 580.113281 250.582031 C 580.453125 250.238281 580.234375 249.789062 580.417969 249.328125 C 580.910156 248.085938 579.839844 246.769531 578.277344 244.226562 C 577.652344 243.214844 576.832031 242.410156 575.722656 241.265625 C 574.792969 240.308594 573.75 239.457031 572.460938 238.578125 C 571.746094 238.085938 570.945312 237.699219 570.121094 237.300781 C 568.398438 236.46875 566.550781 235.710938 564.710938 235.074219 C 562.804688 234.417969 560.945312 233.773438 559.171875 233.476562 C 558.003906 233.28125 557.027344 233.253906 556.019531 233.296875 C 553.347656 233.417969 552.085938 234.039062 551.164062 234.078125 C 549.933594 233.464844 548.433594 233.964844 547.816406 235.195312 C 547.203125 236.425781 547.703125 237.925781 548.933594 238.542969 C 549.5 239.375 550.386719 240.5 552.394531 242.574219 C 552.871094 243.070312 553.28125 243.492188 553.90625 243.941406 C 554.875 244.628906 556.011719 245.179688 557.21875 245.773438 C 558.820312 246.558594 560.550781 247.304688 562.289062 248.007812 C 563.566406 248.527344 564.847656 249.015625 566.101562 249.429688 C 566.992188 249.71875 567.839844 249.953125 568.6875 250.125 C 570.527344 250.496094 571.96875 250.378906 573.289062 250.640625 C 573.980469 250.78125 575.070312 250.222656 574.902344 250.667969 C 574.835938 250.832031 575.292969 250.441406 575.1875 250.363281 C 575.105469 250.304688 575.273438 250.175781 575.210938 250.113281 C 574.988281 249.882812 575.269531 249.648438 575.417969 249.386719 Z M 575.417969 249.386719 "/><path style=" stroke:none;fill-rule:evenodd;fill:#fafafa;fill-opacity:1;" d="M 602.734375 286.355469 C 604.367188 284.183594 603.367188 282.089844 602 279.867188 C 600.210938 276.953125 595.5625 274.703125 594.449219 273.878906 C 592.566406 272.683594 590.796875 271.433594 588.867188 270.332031 C 586.96875 269.246094 585.007812 268.296875 583.042969 267.351562 C 580.109375 265.9375 577.144531 264.601562 574.164062 263.296875 C 571.183594 261.996094 568.238281 260.636719 565.179688 259.53125 C 563.390625 258.886719 561.636719 258.363281 559.785156 257.914062 C 556.84375 257.203125 554.195312 256.921875 551.214844 256.324219 C 549.996094 255.679688 548.484375 256.144531 547.839844 257.363281 C 547.195312 258.582031 547.660156 260.089844 548.878906 260.734375 C 550.339844 262.210938 551.574219 263.507812 553.097656 264.90625 C 554.578125 266.265625 555.925781 267.523438 557.558594 268.6875 C 559.628906 270.167969 561.863281 271.355469 564.105469 272.550781 C 569.097656 275.214844 574.21875 277.636719 579.453125 279.8125 C 581.539062 280.679688 583.648438 281.472656 585.8125 282.152344 C 587.28125 282.613281 588.726562 282.925781 590.21875 283.320312 C 590.875 283.472656 592.53125 283.683594 594.386719 284.066406 C 595.398438 284.277344 597.730469 283.851562 597.261719 284.640625 C 597.117188 284.886719 598.046875 284.683594 597.976562 284.433594 C 597.953125 284.347656 598.222656 284.625 598.234375 284.523438 C 597.730469 285.761719 598.328125 287.179688 599.570312 287.6875 C 600.8125 288.191406 602.230469 287.59375 602.734375 286.355469 Z M 602.734375 286.355469 "/><path style=" stroke:none;fill-rule:evenodd;fill:#fafafa;fill-opacity:1;" d="M 608.238281 318.085938 C 608.761719 318.851562 609.703125 319.285156 610.675781 319.109375 C 612.480469 319.1875 613.117188 318.148438 613.429688 317.847656 C 614.328125 316.96875 614.09375 315.832031 612.992188 314.207031 C 612.625 313.667969 610.886719 312.621094 608.6875 310.492188 C 606.359375 308.386719 604.148438 306.363281 601.722656 304.367188 C 600.175781 303.101562 598.59375 301.9375 597.035156 300.683594 C 592.914062 297.917969 588.945312 295.128906 584.835938 292.65625 C 580.582031 290.09375 576.289062 287.695312 571.800781 285.664062 C 569.375 284.566406 566.949219 283.515625 564.367188 282.777344 C 560.414062 281.644531 556.613281 281.179688 552.410156 280.582031 C 551.128906 280.070312 549.675781 280.695312 549.164062 281.972656 C 548.65625 283.25 549.277344 284.703125 550.554688 285.214844 C 552.195312 286.441406 553.570312 287.636719 555.175781 288.84375 C 557.539062 290.617188 559.648438 292.394531 562.074219 293.992188 C 566.671875 297.023438 571.449219 299.628906 576.128906 302.53125 C 578.464844 303.980469 580.828125 305.414062 583.230469 306.832031 C 585.609375 308.238281 588.054688 309.574219 590.503906 310.988281 C 592.378906 311.898438 594.199219 312.835938 596.117188 313.644531 C 598.972656 314.851562 601.78125 315.789062 604.65625 316.945312 C 606.121094 317.480469 607.328125 317.832031 608.238281 318.085938 Z M 608.871094 314.714844 C 609.144531 314.527344 609.460938 314.390625 609.808594 314.328125 C 609.949219 314.269531 610.15625 314.21875 610.109375 314.132812 C 609.65625 313.300781 609.183594 313.910156 608.871094 314.714844 Z M 608.871094 314.714844 "/><path style=" stroke:none;fill-rule:evenodd;fill:#fafafa;fill-opacity:1;" d="M 624.773438 343.585938 L 624.796875 343.582031 C 624.796875 343.582031 624.683594 343.488281 624.582031 343.441406 C 622.457031 342.523438 615.308594 338.804688 612.609375 336.832031 C 610.703125 335.652344 608.878906 334.039062 606.808594 332.425781 C 604.859375 330.910156 602.796875 329.324219 600.671875 327.6875 C 597.535156 325.269531 594.257812 322.761719 590.898438 320.429688 C 587.324219 317.945312 583.710938 315.546875 579.984375 313.804688 C 578.199219 312.96875 576.445312 312.226562 574.625 311.761719 C 569.683594 310.503906 565.199219 310.203125 560.800781 311.226562 C 559.421875 311.226562 558.304688 312.34375 558.304688 313.71875 C 558.304688 315.097656 559.421875 316.214844 560.800781 316.214844 C 563.953125 316.960938 566.46875 318.902344 569.503906 320.875 C 571.316406 322.058594 573.089844 323.363281 574.992188 324.695312 C 578.46875 327.128906 582.050781 329.777344 585.589844 332.488281 C 589.367188 335.378906 593.082031 338.335938 596.792969 340.75 C 600.625 343.246094 604.40625 345.164062 607.898438 346.511719 C 609.394531 346.96875 611.699219 347.59375 614.257812 347.96875 C 617.980469 348.511719 621.835938 348.847656 623.410156 348.867188 C 625.601562 348.890625 626.648438 348.015625 626.742188 347.808594 C 626.84375 347.589844 627.992188 344.179688 624.773438 343.585938 Z M 624.773438 343.585938 "/><path style=" stroke:none;fill-rule:evenodd;fill:#fafafa;fill-opacity:1;" d="M 620.589844 377.96875 C 621.960938 378.539062 622.789062 378.167969 622.902344 378.152344 C 623.515625 378.058594 623.730469 377.511719 624.070312 377.230469 C 624.65625 376.742188 624.636719 376.046875 624.492188 375.144531 C 624.496094 374.269531 624.027344 373.445312 623.160156 373.09375 L 623.117188 373.050781 C 622.921875 372.863281 622.476562 372.566406 621.832031 372.089844 C 619.582031 370.421875 614.574219 367.042969 613 365.632812 C 611.476562 364.484375 610.035156 363.242188 608.449219 362.078125 C 606.898438 360.941406 605.296875 359.847656 603.652344 358.777344 C 598.683594 355.546875 593.519531 352.339844 588.15625 349.707031 C 585.667969 348.484375 583.179688 347.304688 580.558594 346.542969 C 578.453125 345.933594 576.460938 345.597656 574.320312 345.355469 C 572.089844 345.105469 570.136719 344.996094 567.933594 345.007812 C 566.609375 344.628906 565.226562 345.398438 564.847656 346.722656 C 564.46875 348.046875 565.238281 349.425781 566.5625 349.804688 C 569.3125 351.480469 571.496094 353.4375 574.167969 355.402344 C 575.238281 356.1875 576.253906 356.957031 577.382812 357.675781 C 580.128906 359.425781 582.964844 361.078125 585.769531 362.832031 C 588.621094 364.617188 591.46875 366.417969 594.328125 368.148438 C 596.882812 369.699219 599.414062 371.234375 602 372.558594 C 603.828125 373.5 605.671875 374.257812 607.503906 375.050781 C 608.703125 375.480469 611.050781 376.238281 613.625 376.777344 C 615.800781 377.234375 617.90625 377.578125 619.308594 377.835938 C 619.769531 377.917969 620.195312 377.964844 620.589844 377.96875 Z M 620.589844 377.96875 "/><path style=" stroke:none;fill-rule:evenodd;fill:#fafafa;fill-opacity:1;" d="M 616.933594 400.21875 L 617.175781 400.285156 C 617.175781 400.285156 617.074219 400.09375 616.949219 399.960938 C 615.757812 398.664062 613.039062 395.367188 610.128906 392.339844 C 608.175781 390.304688 606.1875 388.601562 604.898438 387.488281 C 603.460938 386.441406 601.945312 385.148438 600.238281 383.835938 C 597.917969 382.054688 595.363281 380.132812 592.652344 378.292969 C 588.09375 375.199219 583.242188 372.019531 578.261719 370.203125 C 576.789062 369.667969 575.367188 369.265625 573.890625 369.039062 C 569.832031 368.414062 566.351562 368.34375 562.953125 369.28125 C 561.574219 369.28125 560.457031 370.398438 560.457031 371.777344 C 560.457031 373.152344 561.574219 374.269531 562.953125 374.269531 C 564.234375 374.648438 565.253906 375.34375 566.535156 376.003906 C 568.597656 377.074219 570.289062 378.664062 572.453125 380.125 C 574.425781 381.460938 576.511719 382.773438 578.59375 384.195312 C 582.492188 386.859375 586.359375 389.757812 589.984375 392.292969 C 593.007812 394.410156 595.917969 396.199219 598.414062 397.636719 C 600.46875 398.53125 603.96875 400.402344 607.261719 401.964844 C 610.042969 403.285156 612.460938 404.277344 613.6875 404.746094 C 615.527344 405.449219 616.628906 405.410156 616.777344 405.316406 C 616.976562 405.195312 620.097656 402.007812 616.933594 400.21875 Z M 613.203125 403.363281 C 613.179688 403.953125 613.269531 404.714844 613.886719 404.402344 C 613.984375 404.351562 613.78125 404.085938 613.5625 403.765625 C 613.421875 403.644531 613.304688 403.507812 613.203125 403.363281 Z M 613.203125 403.363281 "/><path style=" stroke:none;fill-rule:evenodd;fill:#fafafa;fill-opacity:1;" d="M 616.296875 429.558594 C 616.300781 429.410156 616.15625 429.382812 615.933594 429.425781 L 616.148438 429.496094 L 616.296875 429.558594 C 616.296875 429.617188 616.269531 429.699219 616.214844 429.804688 C 616.113281 429.988281 615.902344 429.824219 615.617188 429.507812 C 615.730469 429.472656 615.839844 429.441406 615.933594 429.425781 L 615.910156 429.417969 C 615.753906 429.375 615.597656 429.339844 615.441406 429.3125 C 615.0625 428.875 614.589844 428.277344 614.089844 427.863281 C 612.585938 426.617188 610.964844 425.261719 610.042969 424.472656 C 608.445312 423.265625 606.96875 421.980469 605.34375 420.808594 C 602.945312 419.066406 600.429688 417.503906 598.003906 415.796875 C 595.453125 414.183594 592.820312 412.183594 590.003906 410.261719 C 587.144531 408.3125 584.222656 406.261719 581.085938 404.738281 C 579.726562 404.082031 578.394531 403.527344 576.972656 403.117188 C 573.277344 402.046875 569.96875 401.507812 566.421875 401.609375 C 565.085938 401.273438 563.730469 402.089844 563.398438 403.425781 C 563.0625 404.761719 563.878906 406.117188 565.214844 406.449219 C 566.695312 407.328125 567.824219 408.40625 569.222656 409.558594 C 570.210938 410.367188 571.019531 411.238281 572.015625 412.101562 C 572.96875 412.929688 573.835938 413.792969 574.839844 414.601562 C 577.355469 416.625 579.964844 418.601562 582.496094 420.566406 C 585.382812 422.8125 588.269531 424.878906 590.972656 426.664062 C 593.632812 428.242188 596.238281 429.914062 599.007812 431.289062 C 600.886719 432.222656 602.796875 432.957031 604.738281 433.757812 C 607.117188 434.539062 612.785156 436.527344 614.347656 436.613281 C 617.199219 436.769531 618.503906 435.621094 618.714844 434.726562 C 618.847656 434.15625 619.277344 433.589844 619.050781 432.882812 C 618.921875 432.476562 619.035156 431.257812 617.609375 430.363281 C 617.152344 430.085938 616.761719 429.765625 616.296875 429.558594 Z M 612.527344 434.347656 C 612.636719 434.546875 612.773438 434.773438 612.9375 435.035156 C 612.855469 434.898438 612.949219 434.691406 612.828125 434.585938 Z M 612.527344 434.347656 "/><path style=" stroke:none;fill-rule:evenodd;fill:#fafafa;fill-opacity:1;" d="M 593.933594 456.824219 C 594.117188 458.054688 595.21875 458.960938 596.480469 458.882812 C 597.773438 459.261719 598.257812 458.152344 598.851562 457.699219 C 599.566406 457.148438 599.449219 455.929688 598.695312 453.734375 C 598.152344 452.152344 596.335938 449.417969 593.363281 445.789062 C 592.605469 444.863281 591.773438 443.988281 590.808594 443.078125 C 589.527344 441.871094 588.074219 440.726562 586.554688 439.578125 C 585.121094 438.496094 583.605469 437.445312 582.058594 436.46875 C 578.8125 434.417969 575.597656 432.371094 572.53125 431.0625 C 571.5625 430.648438 570.679688 430.398438 569.75 430.175781 C 566.496094 429.398438 564.3125 429.175781 562.632812 429.035156 C 561.402344 428.417969 559.902344 428.917969 559.285156 430.148438 C 558.671875 431.382812 559.171875 432.882812 560.402344 433.496094 C 561.058594 434.269531 561.585938 435.230469 562.671875 436.554688 C 563.746094 437.875 564.742188 439.339844 566.359375 440.835938 C 568.730469 443.023438 571.808594 445.039062 574.828125 447.191406 C 576.558594 448.425781 578.335938 449.613281 580.082031 450.722656 C 581.308594 451.5 582.5 452.25 583.707031 452.871094 C 586.109375 454.109375 588.261719 454.914062 590.117188 455.726562 C 591.527344 456.34375 593.339844 456.480469 593.933594 456.824219 Z M 594.097656 455.515625 Z M 594.152344 455.394531 L 594.144531 455.40625 L 594.15625 455.386719 Z M 595.808594 454.089844 C 595.640625 454.089844 595.496094 454.070312 595.40625 454.167969 L 595.320312 454.253906 L 595.46875 454.1875 C 595.546875 454.164062 595.621094 454.136719 595.699219 454.113281 Z M 595.808594 454.089844 "/><path style=" stroke:none;fill-rule:evenodd;fill:#fafafa;fill-opacity:1;" d="M 583.105469 469.90625 C 581.871094 468.382812 581.097656 467.066406 579.839844 465.550781 C 578.691406 464.164062 577.699219 462.898438 576.390625 461.648438 C 575.40625 460.714844 574.332031 459.902344 573.238281 459.09375 C 571.582031 457.871094 569.871094 456.714844 568.109375 455.648438 C 566.082031 454.425781 564.09375 453.152344 561.878906 452.339844 C 561.128906 452.0625 560.472656 451.941406 559.683594 451.816406 C 557.636719 451.496094 556.234375 451.449219 554.171875 451.328125 C 552.980469 450.636719 551.453125 451.039062 550.757812 452.226562 C 550.066406 453.417969 550.46875 454.945312 551.65625 455.640625 C 552.757812 457.347656 553.261719 458.660156 554.464844 460.300781 C 555.148438 461.238281 555.8125 462.039062 556.652344 462.839844 C 558.140625 464.25 559.808594 465.433594 561.460938 466.648438 C 563.140625 467.886719 564.871094 469.054688 566.648438 470.136719 C 567.460938 470.628906 568.273438 471.101562 569.128906 471.5 C 570.027344 471.917969 570.890625 472.265625 571.835938 472.558594 C 573.347656 473.027344 574.648438 473.359375 576.207031 473.628906 C 577.863281 473.917969 579.128906 474.035156 580.800781 474.183594 C 581.980469 474.820312 583.457031 474.378906 584.09375 473.195312 C 584.726562 472.019531 584.285156 470.542969 583.105469 469.90625 Z M 583.105469 469.90625 "/><path style=" stroke:none;fill-rule:evenodd;fill:#fafafa;fill-opacity:1;" d="M 568.75 489.890625 C 570.210938 487.953125 569.832031 486.492188 570.011719 484.417969 C 570.0625 483.851562 569.765625 483.476562 569.71875 482.90625 C 569.65625 482.210938 569.300781 481.785156 569.101562 481.097656 C 568.882812 480.347656 568.394531 479.84375 567.953125 479.164062 C 567.210938 478.007812 566.0625 477.144531 564.847656 476.269531 C 563.4375 475.253906 561.742188 474.476562 559.988281 473.875 C 558.453125 473.347656 556.894531 472.824219 555.320312 472.703125 C 554.386719 472.632812 553.652344 472.699219 552.789062 472.859375 C 550.960938 473.191406 550.3125 473.785156 548.855469 474.117188 C 547.582031 473.585938 546.121094 474.191406 545.59375 475.460938 C 545.0625 476.730469 545.664062 478.195312 546.9375 478.722656 C 547.78125 480.089844 548.273438 480.765625 549.558594 482.28125 C 549.953125 482.742188 550.21875 483.085938 550.738281 483.457031 C 552.175781 484.476562 553.90625 485.179688 555.566406 485.988281 C 556.394531 486.394531 557.234375 486.75 558.019531 487.136719 C 558.46875 487.363281 558.929688 487.5 559.355469 487.710938 C 559.78125 487.921875 560.273438 487.671875 560.65625 487.898438 C 560.847656 488.011719 561.074219 487.773438 561.257812 487.898438 C 561.535156 488.085938 561.898438 487.804688 562.136719 488.039062 C 562.378906 488.277344 562.738281 488.128906 562.949219 488.410156 C 563.257812 488.816406 563.679688 488.84375 563.925781 489.351562 C 563.773438 490.683594 564.738281 491.886719 566.070312 492.035156 C 567.398438 492.183594 568.601562 491.222656 568.75 489.890625 Z M 568.75 489.890625 "/><path style=" stroke:none;fill-rule:evenodd;fill:#fafafa;fill-opacity:1;" d="M 547.707031 505.152344 C 551.296875 512.25 550.148438 500.4375 549.882812 499.683594 C 549.808594 499.460938 549.703125 498.632812 547.242188 496.378906 C 546.964844 496.125 546.640625 495.980469 546.253906 495.832031 C 545.773438 495.648438 545.242188 495.511719 544.703125 495.464844 C 543.753906 495.382812 542.808594 495.285156 542 495.625 C 539.527344 496.671875 540.511719 497.21875 539.183594 498.367188 C 537.847656 498.03125 536.492188 498.847656 536.15625 500.183594 C 535.824219 501.519531 536.636719 502.875 537.972656 503.207031 C 538.460938 504.699219 538.113281 504.074219 539.097656 506.09375 C 539.304688 506.519531 539.28125 506.609375 539.660156 506.949219 C 540.34375 507.566406 541.28125 507.859375 542.238281 508.164062 C 542.679688 508.300781 543.140625 508.378906 543.582031 508.394531 C 544.09375 508.414062 544.550781 508.410156 544.988281 508.261719 C 546.402344 507.78125 546.542969 507.347656 547.246094 506.828125 C 547.722656 506.476562 547.816406 506.246094 547.816406 506.246094 C 547.816406 506.246094 547.785156 506.027344 547.734375 506.0625 C 547.605469 506.15625 547.601562 505.921875 547.519531 505.972656 C 547.378906 506.058594 547.386719 505.816406 547.285156 505.867188 C 546.933594 506.050781 547.015625 505.5 546.78125 505.574219 C 546.617188 505.625 546.695312 505.367188 546.554688 505.398438 C 545.960938 505.527344 546.351562 504.730469 545.929688 504.703125 C 545.59375 504.679688 545.933594 504.265625 545.648438 504.199219 C 545.304688 504.113281 545.742188 503.746094 545.453125 503.613281 C 545.28125 503.535156 545.546875 503.371094 545.390625 503.28125 C 545.25 503.199219 545.492188 503.082031 545.363281 502.988281 C 545.25 502.914062 545.464844 502.828125 545.359375 502.742188 C 544.894531 502.363281 545.886719 502.183594 545.566406 501.671875 C 545.285156 501.226562 546.203125 501.355469 546.054688 500.789062 C 546.015625 500.644531 546.265625 500.730469 546.238281 500.570312 C 546.1875 500.28125 546.660156 500.519531 546.660156 500.183594 C 546.660156 499.742188 547.328125 500.316406 547.515625 499.707031 C 547.585938 499.46875 547.882812 499.867188 548.035156 499.554688 C 548.101562 499.421875 548.246094 499.675781 548.347656 499.507812 C 548.421875 499.390625 548.542969 499.667969 548.675781 499.496094 C 548.734375 499.421875 548.792969 499.40625 548.976562 499.570312 C 549.160156 499.734375 549.027344 499.710938 548.421875 500.347656 C 547.09375 500.148438 545.859375 501.066406 545.660156 502.390625 C 545.464844 503.71875 546.378906 504.953125 547.707031 505.152344 Z M 547.707031 505.152344 "/><path style=" stroke:none;fill-rule:evenodd;fill:#fafafa;fill-opacity:1;" d="M 531.070312 509.242188 C 530.976562 509.300781 530.925781 509.375 530.980469 509.5 C 531.105469 509.78125 530.597656 509.796875 530.710938 510.066406 C 531.011719 510.777344 530.058594 511.3125 530.421875 511.917969 C 530.902344 512.71875 530.285156 513.78125 531.054688 514.433594 C 531.246094 514.597656 531.238281 514.902344 531.441406 515.078125 C 531.761719 515.359375 532.066406 516.605469 532.453125 516.164062 C 532.652344 515.945312 532.136719 515.636719 531.972656 515.210938 C 531.753906 514.652344 531.855469 514.953125 531.90625 514.320312 C 532.125 511.554688 531.640625 514.492188 532.277344 511.53125 C 531.453125 511.035156 531.019531 510.140625 531.070312 509.242188 C 531.273438 509.105469 531.679688 509.050781 531.574219 508.714844 C 531.476562 508.398438 532.210938 508.765625 532.109375 508.394531 C 532.082031 508.285156 532.328125 508.460938 532.296875 508.347656 C 532.246094 508.167969 532.566406 508.480469 532.648438 508.460938 C 532.71875 508.6875 532.910156 509.015625 533.273438 508.933594 C 534.804688 508.589844 533.671875 508.785156 534.015625 510.886719 C 532.875 511.589844 532.515625 513.085938 533.21875 514.226562 C 533.917969 515.371094 535.414062 515.726562 536.558594 515.027344 C 538.566406 516.492188 537.164062 515.222656 538.765625 516.0625 C 539.1875 516.285156 538.984375 515.945312 539.382812 516.105469 C 540.050781 516.382812 539.695312 515.828125 540.289062 515.972656 C 540.671875 516.0625 540.496094 515.664062 540.847656 515.6875 C 541.78125 515.742188 541.234375 514.777344 541.960938 514.59375 C 542.476562 514.464844 542.058594 513.902344 542.476562 513.671875 C 542.835938 513.476562 542.5 513.078125 542.773438 512.808594 C 543.488281 512.101562 542.644531 511.222656 542.882812 510.308594 C 543.121094 509.394531 542.269531 508.734375 541.941406 507.730469 C 541.683594 506.953125 540.957031 506.246094 540 505.613281 C 539.5 505.28125 538.875 504.78125 537.996094 504.773438 C 537.652344 504.773438 537.539062 504.8125 537.199219 504.980469 C 536.414062 505.355469 537.109375 505.097656 536.414062 505.6875 C 534.695312 507.144531 536.671875 505.6875 534.84375 507.25 C 533.664062 506.542969 532.128906 506.925781 531.421875 508.105469 C 531.207031 508.464844 531.09375 508.855469 531.070312 509.246094 Z M 531.070312 509.242188 "/><path style=" stroke:none;fill-rule:evenodd;fill:#fafafa;fill-opacity:1;" d="M 284.285156 239.898438 C 284.09375 241.085938 284.816406 242.261719 286.003906 242.605469 C 287.289062 242.980469 288.640625 242.242188 289.015625 240.953125 C 289.398438 240.625 289.0625 240.179688 289.308594 239.691406 C 289.460938 239.378906 289.179688 239.152344 289.257812 238.761719 C 289.492188 237.636719 288.628906 236.777344 287.761719 234.699219 C 287.304688 233.601562 286.640625 232.800781 285.710938 231.550781 C 285.269531 230.953125 284.765625 230.46875 284.164062 229.925781 C 283.652344 229.460938 283.0625 229.070312 282.449219 228.675781 C 281.175781 227.859375 279.785156 227.109375 278.378906 226.476562 C 276.921875 225.824219 275.503906 225.183594 274.109375 224.890625 C 273.140625 224.6875 272.394531 224.65625 271.550781 224.703125 C 269.066406 224.839844 268.207031 225.339844 267.332031 225.476562 C 266.101562 224.863281 264.601562 225.363281 263.984375 226.59375 C 263.371094 227.828125 263.871094 229.324219 265.101562 229.941406 C 265.515625 230.722656 265.828125 231.589844 267.179688 233.652344 C 267.492188 234.128906 267.703125 234.5 268.160156 234.949219 C 268.816406 235.597656 269.621094 236.128906 270.492188 236.699219 C 271.636719 237.449219 272.878906 238.179688 274.15625 238.839844 C 275.371094 239.472656 276.589844 240.085938 277.792969 240.519531 C 278.628906 240.824219 279.375 240.878906 280.144531 241.042969 C 280.773438 241.175781 281.21875 241.082031 281.765625 241.175781 C 282.589844 241.3125 283.785156 240.621094 283.605469 241.152344 C 283.535156 241.351562 284.109375 240.945312 283.972656 240.863281 C 283.890625 240.8125 284.105469 240.695312 284.035156 240.640625 C 283.753906 240.414062 284.121094 240.167969 284.285156 239.898438 Z M 284.285156 239.898438 "/><path style=" stroke:none;fill-rule:evenodd;fill:#fafafa;fill-opacity:1;" d="M 275.988281 259.8125 C 275.878906 257.839844 275.4375 256.640625 274.871094 254.847656 C 274.492188 253.65625 273.886719 252.863281 273.246094 251.808594 C 272.738281 250.976562 272.085938 250.363281 271.398438 249.671875 C 270.75 249.023438 269.980469 248.523438 269.207031 248.023438 C 267.566406 246.964844 265.757812 246.117188 263.871094 245.488281 C 262.109375 244.902344 260.308594 244.320312 258.433594 244.230469 C 257.378906 244.183594 256.488281 244.214844 255.457031 244.449219 C 253.597656 244.875 252.6875 245.371094 250.9375 246.050781 C 249.589844 245.777344 248.273438 246.65625 248.003906 248.007812 C 247.734375 249.355469 248.609375 250.671875 249.960938 250.941406 C 250.695312 251.691406 250.980469 252.121094 251.753906 252.84375 C 252.722656 253.746094 253.285156 254.472656 254.394531 255.210938 C 254.914062 255.558594 255.453125 255.808594 256.023438 256.0625 C 257.25 256.609375 258.453125 257.171875 259.675781 257.6875 C 261.289062 258.371094 262.84375 259.085938 264.390625 259.832031 C 265.042969 260.144531 265.710938 260.191406 266.378906 260.460938 C 267.144531 260.773438 267.8125 260.757812 268.585938 261.085938 C 269.769531 261.589844 270.664062 261.628906 271.828125 262.316406 C 272.515625 263.464844 274.011719 263.835938 275.160156 263.144531 C 276.308594 262.453125 276.679688 260.960938 275.988281 259.8125 Z M 275.988281 259.8125 "/><path style=" stroke:none;fill-rule:evenodd;fill:#fafafa;fill-opacity:1;" d="M 269.671875 286.445312 C 271.109375 284.425781 270.503906 282.4375 269.957031 279.753906 C 269.785156 278.898438 269.289062 278.261719 268.890625 277.375 C 268.4375 276.363281 267.769531 275.5625 267.027344 274.554688 C 266.367188 273.660156 265.542969 272.90625 264.628906 272.097656 C 263.851562 271.40625 262.949219 270.816406 262.015625 270.230469 C 260.136719 269.046875 258.050781 267.988281 255.929688 267.09375 C 253.839844 266.214844 251.757812 265.367188 249.726562 264.914062 C 248.46875 264.632812 247.367188 264.515625 246.230469 264.492188 C 243.699219 264.441406 242.238281 264.902344 240.8125 264.898438 C 239.582031 264.285156 238.082031 264.785156 237.464844 266.015625 C 236.851562 267.246094 237.351562 268.746094 238.582031 269.363281 C 239.484375 270.5625 240.460938 271.769531 242.324219 273.65625 C 242.851562 274.191406 243.320312 274.652344 243.980469 275.144531 C 244.636719 275.628906 245.351562 276.03125 246.113281 276.457031 C 247.695312 277.332031 249.378906 278.226562 251.105469 279.066406 C 253.433594 280.207031 255.742188 281.367188 257.847656 282.40625 C 258.730469 282.84375 259.605469 283.023438 260.394531 283.394531 C 261.238281 283.792969 262.046875 283.75 262.691406 284.183594 C 263.566406 284.78125 264.757812 284.476562 264.929688 285.398438 C 264.640625 286.707031 265.464844 288.003906 266.773438 288.292969 C 268.085938 288.582031 269.382812 287.753906 269.671875 286.445312 Z M 269.671875 286.445312 "/><path style=" stroke:none;fill-rule:evenodd;fill:#fafafa;fill-opacity:1;" d="M 263.761719 303.140625 C 264.003906 300.542969 263.070312 298.472656 261.820312 295.871094 C 261.136719 294.441406 260.117188 293.335938 258.972656 292.023438 C 258.160156 291.09375 257.203125 290.332031 256.160156 289.539062 C 255.230469 288.832031 254.1875 288.246094 253.113281 287.671875 C 250.910156 286.5 248.503906 285.5 246.058594 284.691406 C 243.671875 283.90625 241.285156 283.160156 238.945312 282.820312 C 237.5625 282.621094 236.320312 282.5625 235.035156 282.617188 C 232.523438 282.726562 230.878906 283.214844 229.019531 283.398438 C 227.710938 282.964844 226.300781 283.671875 225.863281 284.976562 C 225.429688 286.285156 226.136719 287.699219 227.441406 288.132812 C 228.824219 289.40625 230.039062 290.582031 232.035156 292.117188 C 232.6875 292.617188 233.277344 293.0625 234.039062 293.5 C 234.828125 293.949219 235.664062 294.308594 236.539062 294.683594 C 238.398438 295.480469 240.339844 296.28125 242.308594 297.046875 C 244.964844 298.085938 247.585938 299.179688 250.011719 300.238281 C 251.015625 300.675781 252.007812 300.886719 252.9375 301.289062 C 253.941406 301.71875 254.882812 301.828125 255.746094 302.324219 C 257.035156 303.0625 258.265625 303.285156 259.070312 304.398438 C 259.414062 305.691406 260.75 306.460938 262.042969 306.113281 C 263.339844 305.765625 264.109375 304.433594 263.761719 303.140625 Z M 263.761719 303.140625 "/><path style=" stroke:none;fill-rule:evenodd;fill:#fafafa;fill-opacity:1;" d="M 255.941406 328.949219 C 255.960938 329.035156 255.988281 329.117188 256.019531 329.199219 C 256.492188 330.453125 257.894531 331.085938 259.152344 330.613281 C 260.222656 330.605469 260.664062 329.917969 261.1875 329.609375 C 261.542969 329.398438 261.554688 328.992188 261.792969 328.71875 C 262.789062 327.574219 262.046875 325.894531 260.324219 323.421875 C 259.140625 321.722656 256.742188 319.734375 254.175781 317.832031 C 252.808594 316.816406 251.449219 316.027344 250.558594 315.363281 C 247.992188 313.90625 245.398438 312.476562 242.667969 311.335938 C 239.976562 310.207031 237.230469 309.171875 234.382812 308.527344 C 232.832031 308.175781 231.339844 307.890625 229.753906 307.847656 C 227.117188 307.777344 225.070312 308.171875 222.464844 308.453125 C 221.140625 308.074219 219.757812 308.84375 219.378906 310.167969 C 219.003906 311.492188 219.769531 312.875 221.09375 313.25 C 222.34375 314.269531 223.226562 315.128906 224.507812 316.125 C 225.6875 317.042969 226.632812 317.914062 227.925781 318.671875 C 230.078125 319.933594 232.386719 320.84375 234.652344 321.902344 C 236.3125 322.675781 237.984375 323.421875 239.648438 324.171875 C 241.304688 324.921875 242.980469 325.609375 244.609375 326.410156 C 245.464844 326.75 246.542969 327.226562 247.820312 327.566406 C 248.765625 327.820312 249.738281 328 250.777344 328.195312 C 251.984375 328.425781 253.082031 328.535156 254.15625 328.746094 C 254.855469 328.886719 255.4375 328.820312 255.941406 328.949219 Z M 256.375 328.839844 C 256.386719 328.84375 256.40625 328.832031 256.429688 328.796875 C 256.453125 328.757812 256.429688 328.789062 256.375 328.839844 Z M 256.746094 326.472656 C 256.945312 326.304688 257.175781 326.167969 257.433594 326.070312 C 257.359375 326.132812 257.304688 325.859375 257.265625 325.914062 C 257.171875 326.058594 256.9375 326.003906 256.894531 326.140625 C 256.855469 326.257812 256.804688 326.367188 256.746094 326.472656 Z M 256.746094 326.472656 "/><path style=" stroke:none;fill-rule:evenodd;fill:#fafafa;fill-opacity:1;" d="M 249.921875 356.621094 C 250.21875 356.792969 250.554688 356.898438 250.914062 356.929688 C 252.113281 357.507812 252.789062 356.78125 253.109375 356.714844 C 253.488281 356.636719 253.558594 356.234375 253.820312 356.070312 C 254.714844 355.511719 254.226562 354.554688 254.132812 353.273438 C 254.105469 352.902344 253.429688 352.394531 252.351562 351.316406 C 251.152344 350.113281 248.457031 347.980469 245.621094 346.15625 C 243.691406 344.917969 241.894531 344.089844 241.390625 343.773438 C 238.90625 342.664062 236.511719 341.457031 234.039062 340.445312 C 231.492188 339.402344 228.945312 338.378906 226.289062 337.671875 C 224.8125 337.277344 223.386719 336.945312 221.851562 336.839844 C 219.289062 336.664062 217.296875 336.960938 214.683594 337.15625 C 213.378906 336.71875 211.964844 337.425781 211.527344 338.734375 C 211.09375 340.039062 211.800781 341.453125 213.105469 341.890625 C 215 343.542969 216.203125 345.066406 218.152344 346.570312 C 219.3125 347.46875 220.492188 348.191406 221.769531 348.898438 C 224.105469 350.191406 226.535156 351.273438 228.988281 352.351562 C 231.453125 353.4375 234.011719 354.347656 236.570312 355.339844 C 237.234375 355.496094 239.429688 356.121094 242.050781 356.390625 C 245.105469 356.699219 248.226562 356.5 249.765625 356.675781 C 249.824219 356.683594 249.878906 356.65625 249.921875 356.621094 Z M 251.183594 352.085938 C 251.074219 352.046875 251.007812 351.933594 250.960938 351.964844 C 250.703125 352.148438 250.410156 352.082031 250.273438 352.234375 C 250.558594 352.125 250.867188 352.074219 251.183594 352.085938 Z M 251.183594 352.085938 "/><path style=" stroke:none;fill-rule:evenodd;fill:#fafafa;fill-opacity:1;" d="M 241.273438 377.03125 C 241.230469 377.101562 241.148438 377.097656 241.039062 377.042969 L 241.082031 377.035156 L 241.273438 377.03125 L 241.289062 377.003906 C 241.339844 376.867188 241.183594 376.957031 241.03125 377.039062 L 241.039062 377.042969 L 241.019531 377.042969 L 241.03125 377.039062 C 240.523438 376.789062 239.445312 375.523438 238.984375 375.109375 C 236.023438 372.9375 235.5 372.085938 234.023438 371.019531 C 233.121094 370.363281 231.921875 369.800781 229.972656 368.738281 C 227.753906 367.800781 225.539062 366.855469 223.265625 366.09375 C 221.078125 365.363281 218.902344 364.621094 216.648438 364.144531 C 215.414062 363.882812 214.265625 363.769531 213.003906 363.699219 C 210.859375 363.574219 209.289062 363.890625 207.128906 363.808594 C 205.894531 363.195312 204.394531 363.695312 203.78125 364.925781 C 203.164062 366.15625 203.664062 367.65625 204.894531 368.273438 C 206.363281 370.085938 207.417969 371.433594 209.144531 372.980469 C 210.160156 373.894531 211.203125 374.59375 212.386719 375.273438 C 214.421875 376.449219 216.621094 377.28125 218.804688 378.164062 C 220.863281 379 222.984375 379.699219 225.054688 380.546875 C 226.007812 380.863281 226.75 381.152344 227.402344 381.34375 C 229.085938 381.84375 229.964844 382.085938 231.285156 382.3125 C 232.476562 382.519531 233.714844 382.644531 236.109375 382.777344 C 237.488281 382.761719 240.53125 382.566406 241.375 382.214844 C 242.464844 381.757812 243.113281 381.707031 243.238281 381.421875 C 243.738281 380.292969 244.664062 379.554688 243.859375 378.6875 C 243.613281 378.417969 243.683594 377.738281 243.015625 377.558594 C 242.835938 377.507812 242.628906 377.121094 242.039062 377.160156 C 241.785156 377.074219 241.527344 377.03125 241.273438 377.03125 Z M 239.917969 381.542969 C 239.960938 381.582031 239.9375 381.566406 239.992188 381.585938 L 240.121094 381.601562 L 240.027344 381.554688 L 239.847656 381.4375 Z M 240.515625 377.140625 C 240.484375 377.152344 240.457031 377.160156 240.429688 377.171875 L 240.390625 377.191406 L 240.398438 377.1875 L 240.582031 377.128906 Z M 240.515625 377.140625 "/><path style=" stroke:none;fill-rule:evenodd;fill:#fafafa;fill-opacity:1;" d="M 241.441406 407.507812 C 241.269531 405.878906 240.363281 405.101562 239.140625 403.136719 C 238.617188 402.300781 238.019531 401.84375 237.230469 401.050781 C 236.71875 400.539062 236.171875 400.179688 235.519531 399.761719 C 234.964844 399.40625 234.351562 399.152344 233.71875 398.894531 C 232.421875 398.367188 231.03125 397.941406 229.640625 397.632812 C 228.261719 397.320312 226.910156 397.015625 225.605469 397.011719 C 224.738281 397.007812 224.117188 397.15625 223.363281 397.355469 C 221.539062 397.832031 221.101562 398.476562 219.839844 398.847656 C 218.558594 398.335938 217.109375 398.957031 216.597656 400.234375 C 216.085938 401.515625 216.707031 402.96875 217.984375 403.480469 C 218.71875 404.746094 219.144531 405.292969 220.484375 406.890625 C 220.859375 407.335938 221.109375 407.636719 221.621094 407.992188 C 222.789062 408.800781 224.230469 409.316406 225.722656 409.863281 C 227.132812 410.375 228.601562 410.847656 230.042969 411.136719 C 231.050781 411.339844 231.976562 411.324219 232.910156 411.363281 C 233.878906 411.402344 234.46875 411.027344 235.300781 411.03125 C 235.730469 411.03125 235.921875 410.808594 236.308594 410.824219 C 236.925781 410.847656 237.183594 410.421875 237.667969 410.566406 C 238.511719 411.605469 240.039062 411.765625 241.082031 410.921875 C 242.125 410.078125 242.285156 408.546875 241.441406 407.507812 Z M 241.441406 407.507812 "/><path style=" stroke:none;fill-rule:evenodd;fill:#fafafa;fill-opacity:1;" d="M 241.296875 432.199219 C 241.425781 432.132812 241.59375 431.976562 241.691406 431.894531 C 241.675781 431.808594 241.660156 431.605469 241.546875 431.523438 C 241.113281 431.203125 240.953125 430.804688 240.34375 430.367188 C 239.203125 429.550781 238.210938 428.734375 237.511719 428.195312 L 237.867188 428.289062 C 237.867188 428.289062 236.945312 427.757812 235.460938 427.199219 C 234.734375 426.925781 233.878906 426.648438 232.953125 426.4375 C 231.257812 426.042969 229.414062 425.566406 227.734375 425.605469 C 227.125 425.621094 226.757812 425.757812 226.234375 425.914062 C 223.332031 426.800781 222.496094 427.441406 222.496094 427.441406 C 221.175781 427.046875 219.785156 427.796875 219.390625 429.117188 C 218.992188 430.433594 219.742188 431.828125 221.0625 432.222656 C 221.0625 432.222656 221.40625 433.21875 223.34375 435.554688 C 223.695312 435.976562 223.925781 436.292969 224.425781 436.640625 C 225.804688 437.59375 227.609375 438.210938 229.238281 438.820312 C 230.128906 439.148438 230.996094 439.390625 231.75 439.558594 C 233.300781 439.910156 234.363281 439.972656 234.363281 439.972656 C 234.480469 440.007812 234.597656 440.042969 234.71875 440.070312 C 235.3125 440.003906 236.070312 440.117188 236.984375 439.859375 C 239.542969 439.128906 241.699219 438.460938 242.464844 437.78125 C 243.1875 437.136719 243.847656 437.449219 243.964844 437.011719 C 244.082031 436.582031 244.625 436.640625 244.597656 436.273438 C 244.542969 435.539062 245.457031 435.1875 244.992188 434.625 C 244.894531 434.507812 245.058594 434.355469 244.9375 434.25 C 244.761719 434.085938 244.976562 433.800781 244.742188 433.664062 C 244.375 433.453125 244.585938 432.578125 243.746094 432.570312 C 243.511719 432.566406 243.402344 432.277344 242.988281 432.355469 C 242.441406 432.089844 241.84375 432.050781 241.296875 432.199219 Z M 239.929688 435.917969 C 239.953125 436.003906 239.964844 436.101562 239.957031 436.207031 C 239.941406 436.453125 240.40625 436.363281 240.5 436.742188 C 240.519531 436.8125 240.652344 436.675781 240.761719 436.667969 C 240.421875 436.480469 240.140625 436.222656 239.929688 435.917969 Z M 239.515625 434.800781 C 239.351562 435.03125 239.503906 435.207031 239.675781 435.4375 C 239.59375 435.234375 239.539062 435.019531 239.515625 434.800781 Z M 239.992188 433.078125 C 239.894531 433.203125 239.8125 433.335938 239.742188 433.480469 L 239.691406 433.605469 C 239.699219 433.375 239.757812 433.183594 239.992188 433.078125 Z M 241.191406 432.230469 L 241.179688 432.230469 C 241.003906 432.179688 240.902344 432.269531 240.820312 432.382812 C 240.941406 432.320312 241.0625 432.269531 241.191406 432.230469 Z M 241.691406 431.894531 C 241.765625 431.832031 241.796875 431.8125 241.734375 431.917969 C 241.707031 431.957031 241.699219 431.941406 241.691406 431.894531 Z M 241.691406 431.894531 "/><path style=" stroke:none;fill-rule:evenodd;fill:#fafafa;fill-opacity:1;" d="M 242.863281 456.707031 C 243.351562 456.996094 243.351562 456.640625 243.742188 456.796875 C 244.023438 456.914062 243.988281 456.625 244.238281 456.691406 C 245 456.894531 244.703125 456.027344 245.285156 455.980469 C 245.769531 455.941406 245.371094 455.402344 245.78125 455.265625 C 246.03125 455.179688 245.746094 454.914062 245.976562 454.804688 C 246.179688 454.703125 245.902344 454.507812 246.09375 454.386719 C 246.636719 454.039062 245.742188 453.660156 246.15625 453.152344 C 246.316406 452.957031 245.945312 452.890625 246.082031 452.671875 C 246.394531 452.179688 245.5 452.191406 245.6875 451.546875 C 245.742188 451.359375 245.472656 451.40625 245.511719 451.207031 C 245.574219 450.886719 245.144531 451.003906 245.167969 450.636719 C 245.1875 450.347656 244.867188 450.472656 244.839844 450.144531 C 244.753906 449.175781 243.996094 449.324219 243.191406 447.878906 C 242.949219 447.445312 242.695312 447.292969 242.273438 446.898438 C 241.875 446.527344 241.386719 446.289062 240.828125 446.03125 C 240.390625 445.828125 239.90625 445.695312 239.414062 445.582031 C 238.875 445.457031 238.332031 445.386719 237.785156 445.355469 C 237.394531 445.332031 237.070312 445.347656 236.71875 445.449219 C 235.355469 445.84375 235.78125 446.40625 234.761719 446.960938 C 234.039062 447.347656 234.476562 447.492188 233.851562 447.785156 C 232.683594 447.054688 231.144531 447.410156 230.414062 448.578125 C 229.683594 449.746094 230.039062 451.285156 231.207031 452.015625 C 231.273438 453.730469 231.410156 453.117188 232.246094 455.300781 C 232.492188 455.945312 232.695312 456.125 233.230469 456.65625 C 233.789062 457.214844 234.554688 457.5 235.324219 457.820312 C 235.984375 458.097656 236.675781 458.316406 237.339844 458.394531 C 237.890625 458.457031 238.320312 458.332031 238.777344 458.242188 C 239.304688 458.140625 239.507812 457.191406 239.636719 457.585938 C 239.683594 457.734375 239.910156 457.265625 239.78125 457.304688 C 239.355469 457.4375 239.949219 456.519531 239.640625 456.550781 C 239.335938 456.582031 239.671875 456.070312 239.410156 456.058594 C 239.210938 456.054688 239.449219 455.75 239.265625 455.722656 C 239.097656 455.699219 239.316406 455.457031 239.160156 455.417969 C 238.625 455.289062 239.402344 454.691406 238.972656 454.4375 C 238.46875 454.140625 239.46875 453.785156 239.089844 453.339844 C 238.941406 453.164062 239.371094 453.121094 239.242188 452.921875 C 239.097656 452.691406 239.625 452.722656 239.511719 452.453125 C 239.363281 452.089844 240.175781 452.367188 240.117188 451.886719 C 240.097656 451.734375 240.414062 451.957031 240.40625 451.78125 C 240.398438 451.535156 240.5625 451.898438 240.894531 451.957031 C 241.039062 451.984375 241.03125 452.0625 240.992188 452.226562 C 239.753906 452.742188 239.171875 454.167969 239.6875 455.40625 C 240.203125 456.640625 241.628906 457.226562 242.863281 456.707031 Z M 242.863281 456.707031 "/><path style=" stroke:none;fill-rule:evenodd;fill:#fafafa;fill-opacity:1;" d="M 478.542969 769.039062 L 478.535156 769.101562 C 478.464844 769.820312 478.785156 770.214844 478.808594 770.296875 C 478.910156 770.667969 483.808594 773.335938 484.613281 768.789062 L 484.648438 768.542969 C 484.710938 768.480469 484.714844 768.394531 484.683594 768.296875 L 487.058594 751.816406 C 487.265625 749.332031 487.542969 746.878906 487.683594 744.390625 C 487.894531 740.679688 487.902344 736.964844 488.011719 733.25 C 487.988281 728.335938 488.167969 723.367188 488.167969 718.382812 C 488.167969 713.296875 488.191406 708.1875 487.695312 703.128906 C 487.492188 701.046875 487.207031 699.007812 486.769531 696.96875 C 485.722656 692.074219 484.230469 687.578125 482.410156 682.933594 C 482.164062 681.578125 480.859375 680.683594 479.507812 680.933594 C 478.152344 681.183594 477.253906 682.484375 477.503906 683.835938 C 477.453125 687.855469 476.945312 691.621094 476.589844 695.636719 C 476.363281 698.242188 476.085938 700.789062 475.9375 703.410156 C 475.660156 708.308594 475.570312 713.226562 475.382812 718.136719 C 475.183594 723.199219 475.109375 728.25 475.089844 733.25 C 475.199219 736.964844 475.203125 740.679688 475.414062 744.390625 C 475.558594 746.878906 475.832031 749.332031 476.042969 751.816406 L 478.484375 768.789062 Z M 484.09375 767.898438 C 484.1875 768.351562 484.316406 768.664062 484.515625 768.613281 C 484.574219 768.597656 484.621094 768.574219 484.648438 768.542969 L 484.683594 768.296875 C 484.605469 768.03125 484.273438 767.703125 484.273438 767.703125 Z M 484.09375 767.898438 "/><path style=" stroke:none;fill-rule:evenodd;fill:#fafafa;fill-opacity:1;" d="M 463.960938 770.484375 C 464.175781 767.800781 464.671875 765.347656 465.050781 762.566406 C 465.402344 759.972656 465.875 757.476562 466.140625 754.789062 C 466.445312 751.707031 466.589844 748.585938 466.730469 745.429688 C 466.9375 740.660156 467.082031 735.851562 467.023438 731.113281 C 466.996094 728.761719 466.992188 726.441406 466.644531 724.160156 C 466.058594 720.332031 464.910156 717.148438 463.886719 713.625 C 463.886719 712.246094 462.765625 711.128906 461.390625 711.128906 C 460.011719 711.128906 458.894531 712.246094 458.894531 713.625 C 458.050781 716.394531 457.019531 718.785156 456.222656 721.710938 C 455.734375 723.496094 455.351562 725.253906 455.0625 727.117188 C 454.542969 730.496094 454.332031 733.953125 454.109375 737.421875 C 453.878906 740.917969 453.765625 744.4375 453.808594 747.921875 C 453.824219 749.507812 453.867188 751.082031 454.015625 752.644531 C 454.167969 754.257812 454.378906 755.820312 454.6875 757.386719 C 455.175781 759.851562 455.738281 762.125 456.496094 764.445312 C 457.296875 766.898438 458.152344 769.03125 459.171875 771.300781 C 459.398438 772.621094 460.652344 773.511719 461.976562 773.285156 C 463.296875 773.0625 464.1875 771.804688 463.960938 770.484375 Z M 463.960938 770.484375 "/><path style=" stroke:none;fill-rule:evenodd;fill:#fafafa;fill-opacity:1;" d="M 440.308594 775.445312 C 440.5 775.597656 440.765625 775.738281 440.699219 776.101562 C 440.671875 776.25 440.871094 776.632812 440.871094 776.632812 C 440.871094 776.632812 441.070312 776.726562 441.148438 776.585938 C 441.425781 776.085938 441.8125 775.613281 442.324219 774.585938 C 442.816406 773.601562 443.292969 772.722656 443.722656 771.476562 C 443.964844 770.773438 444.132812 770.097656 444.25 769.394531 C 444.453125 768.179688 444.457031 767.0625 444.527344 766.292969 C 444.519531 764.996094 444.59375 763.703125 444.535156 762.40625 C 444.476562 761.066406 444.457031 759.746094 444.144531 758.445312 C 443.996094 757.824219 443.792969 757.390625 443.503906 756.820312 C 442.667969 755.175781 442.070312 754.535156 441.078125 752.976562 C 441.132812 751.601562 440.058594 750.441406 438.683594 750.386719 C 437.308594 750.328125 436.144531 751.402344 436.089844 752.777344 C 434.984375 754.238281 434.320312 754.808594 433.34375 756.359375 C 433.003906 756.902344 432.761719 757.316406 432.558594 757.917969 C 432.121094 759.214844 431.996094 760.558594 431.828125 761.914062 C 431.660156 763.261719 431.652344 764.625 431.578125 765.984375 C 431.617188 766.785156 431.570312 767.953125 431.746094 769.222656 C 431.847656 769.945312 431.972656 770.648438 432.222656 771.367188 C 433.144531 774.019531 434.203125 775.816406 434.8125 776.820312 C 435.75 778.367188 435.75 779.078125 435.917969 779.125 C 436.207031 779.203125 442.664062 780.652344 440.535156 776.660156 C 440.566406 776.226562 440.484375 775.8125 440.308594 775.445312 Z M 436.34375 774.820312 C 436.03125 774.886719 436.085938 775.449219 435.554688 775.726562 C 435.394531 775.808594 434.886719 776.203125 435.273438 776.566406 C 435.335938 776.628906 435.507812 776.546875 435.691406 776.300781 C 435.734375 775.722656 435.976562 775.207031 436.34375 774.820312 Z M 436.34375 774.820312 "/><path style=" stroke:none;fill-rule:evenodd;fill:#fafafa;fill-opacity:1;" d="M 442.035156 67.980469 C 441.46875 65.070312 441.171875 62.445312 440.847656 59.832031 C 440.5 57.035156 440.363281 54.472656 440.246094 51.945312 C 440.164062 50.195312 440.167969 48.519531 440.167969 46.867188 C 440.171875 45.171875 440.222656 43.523438 440.328125 41.890625 C 440.578125 38.128906 441.234375 34.496094 442.203125 30.789062 C 443.152344 27.15625 444.480469 23.507812 445.824219 19.554688 C 446.511719 17.539062 447.152344 15.484375 447.765625 13.289062 C 448.65625 10.117188 449.277344 6.945312 450.179688 3.402344 C 450.714844 2.335938 450.28125 1.039062 449.214844 0.507812 C 448.152344 -0.0234375 446.855469 0.40625 446.324219 1.472656 C 444.714844 3.4375 443.238281 5.164062 441.8125 7.050781 C 440.292969 9.0625 438.921875 10.941406 437.726562 12.960938 C 436.179688 15.5625 435.03125 18.222656 433.957031 20.800781 C 432.148438 25.152344 430.867188 29.421875 430.078125 33.722656 C 429.496094 36.871094 429.160156 40.050781 429.253906 43.304688 C 429.339844 46.390625 429.675781 49.546875 430.515625 52.777344 C 431.257812 55.660156 432.273438 58.539062 433.695312 61.554688 C 434.9375 64.183594 436.386719 66.730469 438.128906 69.519531 C 438.554688 70.597656 439.777344 71.128906 440.855469 70.703125 C 441.929688 70.277344 442.460938 69.058594 442.035156 67.980469 Z M 442.035156 67.980469 "/><path style=" stroke:none;fill-rule:evenodd;fill:#fafafa;fill-opacity:1;" d="M 648.871094 177.699219 C 651.199219 175.089844 653.53125 172.746094 655.871094 170.339844 C 658.253906 167.886719 660.609375 165.59375 662.972656 163.269531 C 664.566406 161.707031 666.140625 160.179688 667.703125 158.636719 C 669.277344 157.082031 670.828125 155.527344 672.390625 153.992188 C 675.9375 150.507812 679.566406 147.152344 683.285156 143.84375 C 686.984375 140.550781 690.835938 137.386719 694.65625 134.035156 C 696.675781 132.257812 698.640625 130.445312 700.605469 128.523438 C 703.546875 125.652344 706.210938 122.671875 709.21875 119.632812 C 710.1875 118.945312 710.421875 117.597656 709.734375 116.625 C 709.046875 115.652344 707.699219 115.421875 706.726562 116.109375 C 704.011719 117.363281 701.453125 118.5 698.859375 119.808594 C 696.21875 121.140625 693.695312 122.445312 691.242188 123.96875 C 688.261719 125.816406 685.503906 127.90625 682.773438 129.984375 C 678.566406 133.183594 674.582031 136.546875 670.761719 140.070312 C 668.078125 142.542969 665.464844 145.089844 663.011719 147.8125 C 660.574219 150.511719 658.238281 153.316406 656.085938 156.328125 C 653.976562 159.28125 652.054688 162.34375 650.230469 165.613281 C 648.46875 168.769531 646.921875 171.972656 645.355469 175.402344 C 644.71875 176.375 644.992188 177.675781 645.964844 178.308594 C 646.933594 178.941406 648.238281 178.667969 648.871094 177.699219 Z M 648.871094 177.699219 "/><path style=" stroke:none;fill-rule:evenodd;fill:#fafafa;fill-opacity:1;" d="M 716.957031 365.066406 C 720.226562 364.265625 723.300781 363.660156 726.449219 362.898438 C 729.632812 362.128906 732.699219 361.4375 735.761719 360.570312 C 739.453125 359.527344 743.039062 358.351562 746.636719 357.214844 C 752.039062 355.503906 757.417969 353.832031 762.914062 352.128906 C 765.492188 351.328125 768.097656 350.578125 770.671875 349.582031 C 774.574219 348.066406 778.101562 346.160156 782.140625 344.4375 C 783.308594 344.203125 784.066406 343.066406 783.832031 341.898438 C 783.601562 340.730469 782.460938 339.972656 781.296875 340.207031 C 778.824219 340.140625 776.570312 340.046875 774.167969 340.089844 C 771.738281 340.132812 769.441406 340.203125 767.089844 340.488281 C 764.261719 340.835938 761.53125 341.480469 758.8125 342.105469 C 754.664062 343.058594 750.613281 344.195312 746.601562 345.457031 C 743.808594 346.332031 741.027344 347.257812 738.292969 348.34375 C 735.582031 349.421875 732.902344 350.585938 730.257812 351.929688 C 727.640625 353.261719 725.148438 354.714844 722.589844 356.308594 C 720.085938 357.867188 717.757812 359.5 715.246094 361.234375 C 714.1875 361.707031 713.710938 362.949219 714.183594 364.003906 C 714.65625 365.0625 715.902344 365.539062 716.957031 365.066406 Z M 716.957031 365.066406 "/><path style=" stroke:none;fill-rule:evenodd;fill:#fafafa;fill-opacity:1;" d="M 688.789062 539.136719 C 689.132812 538.089844 689.625 537.355469 690.296875 536.890625 C 690.746094 536.582031 691.308594 537.027344 692.171875 537.226562 C 693.894531 537.625 696.003906 538.785156 699.035156 540.496094 C 700.660156 541.414062 702.4375 542.550781 704.542969 543.800781 C 706.988281 545.253906 709.773438 546.921875 712.984375 548.800781 C 718.769531 552.183594 725.800781 556.375 734.4375 561.371094 C 737.457031 563.121094 740.636719 565.011719 744.15625 566.777344 C 746.597656 568 749.140625 569.054688 751.855469 570.210938 C 754.40625 571.300781 756.964844 572.277344 759.71875 573.402344 C 760.722656 574.039062 762.058594 573.742188 762.699219 572.738281 C 763.335938 571.734375 763.039062 570.398438 762.035156 569.761719 C 758.601562 566.636719 755.5625 563.726562 752.386719 561.03125 C 750.933594 559.796875 749.519531 558.644531 748.054688 557.582031 C 741.496094 552.816406 735.390625 549.140625 730.074219 545.875 C 726.726562 543.816406 723.621094 542.023438 720.757812 540.453125 C 717.152344 538.476562 713.953125 536.800781 711.054688 535.523438 C 705.507812 533.078125 701.242188 531.734375 697.972656 531.0625 C 692.636719 529.964844 689.527344 530.414062 687.695312 531.804688 C 685.804688 533.242188 684.683594 535.359375 684.644531 538.445312 C 684.457031 539.589844 685.230469 540.671875 686.371094 540.863281 C 687.515625 541.050781 688.597656 540.277344 688.789062 539.136719 Z M 688.789062 539.136719 "/><path style=" stroke:none;fill-rule:evenodd;fill:#fafafa;fill-opacity:1;" d="M 584.878906 682.941406 C 587.265625 679.277344 590.34375 681.085938 594.019531 684.105469 C 595.320312 685.175781 596.589844 686.488281 598.007812 687.882812 C 599.917969 689.757812 601.902344 691.882812 603.972656 694.128906 C 608.816406 699.386719 613.847656 705.476562 618.421875 711.144531 C 620.660156 713.914062 622.757812 716.589844 624.816406 718.917969 C 626.726562 721.078125 628.5625 722.832031 630.132812 724.429688 C 633.1875 727.539062 635.199219 729.457031 635.636719 729.898438 C 636.296875 730.890625 637.636719 731.15625 638.628906 730.496094 C 639.617188 729.835938 639.886719 728.496094 639.226562 727.503906 C 638.910156 726.757812 637.375 722.503906 634.425781 716.5 C 633.714844 715.050781 632.933594 713.546875 631.988281 711.996094 C 628.863281 706.878906 624.695312 701.28125 620.34375 695.875 C 618.214844 693.226562 615.984375 690.664062 613.714844 688.296875 C 611.214844 685.695312 608.71875 683.269531 606.1875 681.300781 C 603.019531 678.832031 599.949219 676.933594 597.09375 675.78125 C 592.546875 673.945312 588.65625 673.5 585.734375 675.160156 C 583.734375 676.296875 581.925781 678.023438 581.0625 681.1875 C 580.578125 682.242188 581.042969 683.488281 582.09375 683.972656 C 583.148438 684.457031 584.394531 683.992188 584.878906 682.941406 Z M 584.878906 682.941406 "/><path style=" stroke:none;fill-rule:evenodd;fill:#fafafa;fill-opacity:1;" d="M 277.554688 642.15625 C 273.871094 642.0625 270.597656 642.792969 267.332031 644.027344 C 265.117188 644.867188 263.128906 646.074219 261.152344 647.460938 C 259.585938 648.5625 258.160156 649.859375 256.785156 651.273438 C 255.484375 652.605469 254.316406 654.09375 253.195312 655.648438 C 250.847656 658.902344 248.796875 662.519531 247.011719 666.277344 C 245.304688 669.878906 243.71875 673.570312 242.535156 677.273438 C 241.882812 679.316406 241.367188 681.304688 240.957031 683.308594 C 240.273438 686.65625 240.015625 689.640625 239.464844 692.550781 C 238.976562 693.636719 239.46875 694.914062 240.554688 695.398438 C 241.640625 695.882812 242.917969 695.394531 243.402344 694.304688 C 245.269531 691.855469 247.164062 689.375 249.101562 686.390625 C 249.835938 685.261719 250.539062 684.140625 251.1875 682.910156 C 253.476562 678.550781 255.539062 673.8125 257.964844 669.339844 C 259.367188 666.75 260.8125 664.21875 262.371094 661.835938 C 263.410156 660.246094 264.460938 658.714844 265.578125 657.261719 C 266.410156 656.183594 267.191406 655.113281 268.074219 654.121094 C 269.4375 652.585938 270.722656 651.117188 272.324219 649.886719 C 274.167969 648.476562 275.972656 647.175781 278.257812 646.296875 C 279.402344 646.105469 280.171875 645.019531 279.976562 643.878906 C 279.785156 642.734375 278.699219 641.964844 277.554688 642.15625 Z M 277.554688 642.15625 "/><path style=" stroke:none;fill-rule:evenodd;fill:#fafafa;fill-opacity:1;" d="M 151.691406 509.289062 C 149.085938 507.9375 146.785156 506.800781 144.414062 505.832031 C 141.636719 504.695312 139.066406 503.917969 136.523438 503.367188 C 133.519531 502.714844 130.667969 502.558594 127.949219 502.636719 C 124.875 502.722656 121.96875 503.289062 119.160156 504.152344 C 115.304688 505.339844 111.582031 507.136719 107.902344 509.703125 C 105.851562 511.136719 103.722656 512.707031 101.746094 514.722656 C 100.5625 515.933594 99.5 517.234375 98.398438 518.707031 C 96.898438 520.714844 95.59375 522.753906 94.066406 525.117188 C 93.195312 525.929688 93.152344 527.296875 93.964844 528.167969 C 94.777344 529.035156 96.144531 529.082031 97.011719 528.269531 C 98.597656 527.410156 100.011719 526.738281 101.472656 525.933594 C 103.785156 524.664062 105.875 523.632812 107.875 522.433594 C 109.96875 521.171875 111.839844 519.894531 113.710938 518.808594 C 116.667969 517.089844 119.492188 515.785156 122.433594 514.882812 C 125.265625 514.011719 128.183594 513.550781 131.417969 513.367188 C 132.757812 513.289062 134.117188 513.175781 135.566406 513.136719 C 137.871094 513.070312 140.230469 513.007812 142.886719 513.078125 C 145.328125 513.144531 147.765625 513.140625 150.558594 513.332031 C 151.671875 513.644531 152.832031 512.996094 153.144531 511.878906 C 153.457031 510.765625 152.808594 509.605469 151.691406 509.289062 Z M 151.691406 509.289062 "/><path style=" stroke:none;fill-rule:evenodd;fill:#fafafa;fill-opacity:1;" d="M 121.5 358.960938 C 117.582031 357.632812 113.917969 356.363281 110.207031 355.257812 C 106.261719 354.082031 102.472656 353.0625 98.675781 352.242188 C 94.679688 351.378906 90.753906 350.761719 86.859375 350.296875 C 82.824219 349.816406 78.824219 349.578125 74.835938 349.472656 C 69.078125 349.316406 63.316406 349.464844 57.4375 350.042969 C 53.671875 350.414062 49.84375 350.84375 45.972656 351.707031 C 42.886719 352.394531 39.859375 353.324219 36.707031 354.398438 C 33.714844 355.417969 30.828125 356.582031 27.726562 357.855469 C 26.566406 358.117188 25.835938 359.273438 26.101562 360.433594 C 26.363281 361.597656 27.519531 362.324219 28.679688 362.0625 C 31.941406 361.875 34.976562 361.84375 38.058594 361.734375 C 41.246094 361.621094 44.269531 361.617188 47.296875 361.464844 C 51.027344 361.277344 54.636719 360.96875 58.199219 360.8125 C 63.734375 360.574219 69.121094 360.523438 74.519531 360.683594 C 78.285156 360.792969 82.054688 361.023438 85.882812 361.25 C 89.636719 361.472656 93.425781 361.730469 97.339844 361.96875 C 101.121094 362.195312 104.941406 362.355469 108.953125 362.558594 C 112.777344 362.753906 116.617188 362.859375 120.703125 363.085938 C 121.84375 363.304688 122.945312 362.558594 123.164062 361.421875 C 123.382812 360.285156 122.640625 359.179688 121.5 358.960938 Z M 121.5 358.960938 "/><path style=" stroke:none;fill-rule:evenodd;fill:#fafafa;fill-opacity:1;" d="M 211.304688 141.671875 C 208.582031 139.75 206.140625 137.753906 203.515625 135.757812 C 200.917969 133.785156 198.441406 131.792969 195.804688 129.890625 C 192.652344 127.625 189.425781 125.492188 186.183594 123.367188 C 181.25 120.136719 176.261719 116.980469 171.117188 114.082031 C 168.628906 112.675781 166.152344 111.269531 163.507812 110.175781 C 159.410156 108.480469 155.335938 107.472656 151.011719 106.320312 C 149.949219 105.789062 148.652344 106.222656 148.121094 107.285156 C 147.585938 108.351562 148.019531 109.648438 149.085938 110.179688 C 151.792969 112.351562 154.113281 114.597656 156.78125 116.777344 C 158.511719 118.191406 160.242188 119.527344 162.054688 120.824219 C 165.445312 123.246094 168.9375 125.496094 172.40625 127.789062 C 175.917969 130.113281 179.464844 132.390625 183.070312 134.566406 C 184.691406 135.542969 186.320312 136.503906 187.992188 137.386719 C 189.683594 138.28125 191.382812 139.113281 193.136719 139.886719 C 195.796875 141.054688 198.429688 142.09375 201.195312 143.03125 C 203.972656 143.976562 206.667969 144.730469 209.53125 145.476562 C 210.582031 145.964844 211.832031 145.511719 212.320312 144.460938 C 212.808594 143.410156 212.355469 142.160156 211.304688 141.671875 Z M 211.304688 141.671875 "/></g></svg>