<svg xmlns="http://www.w3.org/2000/svg" xmlns:xlink="http://www.w3.org/1999/xlink" width="1080" zoomAndPan="magnify" viewBox="0 0 810 809.999993" height="1080" preserveAspectRatio="xMidYMid meet" version="1.2"><g id="7c6fbe07c5"><path style=" stroke:none;fill-rule:nonzero;fill:#fafafa;fill-opacity:1;" d="M 712.007812 238.882812 C 718.242188 214.160156 724.453125 189.410156 729.046875 164.359375 C 732.765625 144.097656 719.910156 132.609375 700.496094 139.636719 C 677.90625 147.816406 656.355469 158.972656 634.449219 169.011719 C 631.277344 170.460938 626.765625 172.785156 628.242188 176.804688 C 630.128906 181.945312 635.105469 179.757812 638.796875 178.445312 C 652.117188 173.742188 665.269531 168.683594 678.617188 164.058594 C 682.691406 162.636719 688.378906 158.863281 691.140625 163.292969 C 694.203125 168.191406 687.613281 170.871094 684.578125 173.660156 C 662.917969 193.84375 641.230469 213.96875 619.160156 233.6875 C 597.089844 253.40625 576.828125 275.09375 552.84375 292.679688 C 521.910156 315.40625 517.699219 315.296875 490.898438 288.90625 C 487.972656 286.03125 485.046875 283.078125 481.738281 280.753906 C 470.605469 272.933594 455.15625 273.398438 445.089844 282.503906 C 439.046875 287.945312 433.6875 294.292969 428.710938 300.746094 C 415.089844 318.414062 402.566406 336.871094 386.730469 352.761719 C 368.351562 371.167969 360.011719 371.25 343.328125 351.886719 C 328.507812 334.683594 317.484375 332.796875 300.5 347.511719 C 277.472656 367.476562 255.84375 389.054688 233.308594 409.5625 C 212.824219 428.214844 208.421875 427.011719 197.480469 401.277344 C 191.4375 387.109375 181.894531 382.652344 166.6875 387.054688 C 153.449219 390.886719 141.363281 397.203125 129.441406 403.929688 C 87.296875 427.667969 49.910156 458.625 8.5625 483.59375 C 5.277344 485.5625 0.0273438 487.917969 2.296875 492.757812 C 4.839844 498.171875 10.394531 496.285156 14.277344 494.125 C 26.226562 487.535156 38.152344 480.859375 49.582031 473.394531 C 83.90625 451.023438 117.132812 426.902344 153.203125 407.292969 C 171.308594 397.449219 171.636719 398.105469 179.296875 416.730469 C 188.074219 438.144531 201.691406 444.789062 223.980469 438.335938 C 238.367188 434.175781 250.042969 425.398438 260.820312 415.472656 C 276.898438 400.675781 292.625 385.496094 308.40625 370.375 C 313.4375 365.535156 318.195312 361.949219 324.429688 368.761719 C 345.679688 391.925781 387.550781 391.625 414.542969 358.886719 C 427.863281 342.726562 441.015625 326.453125 453.871094 309.933594 C 460.707031 301.15625 466.476562 299.953125 474.351562 309.003906 C 491.171875 328.421875 512.941406 331.15625 536.761719 326.070312 C 551.039062 323.007812 562.550781 314.859375 574.007812 306.597656 C 596.296875 290.492188 613.992188 269.433594 633.847656 250.699219 C 649.273438 236.148438 664.886719 221.792969 680.421875 207.351562 C 681.132812 207.789062 681.84375 208.253906 682.554688 208.691406 C 680.613281 215.996094 678.617188 223.269531 676.785156 230.597656 C 674.433594 239.898438 672.84375 249.085938 685.179688 252.804688 C 697.238281 256.46875 709.027344 250.890625 712.0625 238.859375 Z M 712.007812 238.882812 "/><path style=" stroke:none;fill-rule:nonzero;fill:#fafafa;fill-opacity:1;" d="M 803.324219 334.929688 C 803.023438 319.125 799.714844 303.316406 797.058594 287.617188 C 795.308594 277.28125 789.074219 271.238281 777.78125 273.316406 C 761.234375 276.378906 744.714844 279.769531 728.199219 282.96875 C 720.292969 284.5 715.398438 289.152344 716.792969 297.191406 C 724.34375 340.539062 713.566406 383.9375 717.394531 427.3125 C 718.515625 439.921875 718.023438 452.691406 717.886719 465.410156 C 717.722656 484.195312 722.398438 503.804688 708.535156 520.40625 C 705.964844 523.46875 704.296875 529.101562 709.546875 530.851562 C 719.199219 534.132812 716.546875 539.222656 713.429688 545.402344 C 712.253906 547.699219 710.886719 551.527344 711.953125 553.058594 C 720.347656 565.148438 711.023438 581.363281 721.660156 593.015625 C 724.066406 595.667969 722.398438 602.09375 726.53125 603.597656 C 732.21875 605.675781 731.808594 598.8125 734.542969 596.378906 C 736.839844 594.328125 739.710938 592.796875 742.527344 591.429688 C 751.691406 586.972656 759.402344 580.515625 766.019531 573.023438 C 774.140625 563.863281 772.417969 557.324219 760.960938 554.480469 C 753.632812 552.648438 752.785156 550.160156 756.695312 544.472656 C 759.019531 541.109375 761.152344 537.609375 763.449219 534.214844 C 768.398438 526.941406 770.476562 520.214844 760.742188 514.9375 C 752.839844 510.640625 758.144531 506.101562 760.578125 501.453125 C 763.96875 495 772.855469 488.300781 765.527344 481.078125 C 757.269531 472.957031 753.167969 486.246094 745.699219 487.945312 C 749.472656 477.003906 757.707031 469.59375 763.394531 460.566406 C 766.785156 455.207031 775.320312 448.753906 761.425781 444.871094 C 756.996094 443.640625 760.660156 440.441406 761.726562 438.554688 C 766.703125 429.882812 772.007812 421.378906 777.015625 412.738281 C 778.929688 409.425781 779.886719 405.679688 776.523438 402.753906 C 772.664062 399.390625 768.617188 400.949219 765.554688 404.039062 C 759.511719 410.136719 753.796875 416.621094 747.96875 422.9375 C 746.984375 422.308594 746 421.679688 745.015625 421.023438 C 750.980469 408.878906 757.132812 396.792969 762.820312 384.539062 C 765.636719 378.496094 767.988281 371.878906 757.871094 370.019531 C 751.035156 368.761719 754.589844 365.152344 756.039062 362.167969 C 758.582031 356.835938 761.453125 351.640625 763.941406 346.28125 C 765.554688 342.808594 766.347656 337.527344 762.164062 336.898438 C 747.339844 334.574219 754.835938 326.179688 756.777344 319.425781 C 758.910156 311.984375 761.425781 304.65625 764.023438 297.382812 C 765.691406 292.761719 767.03125 286.796875 773.675781 288.027344 C 779.777344 289.152344 778.136719 295.058594 778.738281 299.296875 C 782.867188 328.257812 780.40625 357.492188 782.347656 386.535156 C 786.066406 442.601562 783.578125 498.417969 777.753906 554.125 C 775.839844 572.558594 776.386719 594.054688 749.121094 595.640625 C 748.707031 595.640625 748.296875 596.050781 747.914062 596.269531 C 745.480469 597.664062 743.046875 599.359375 743.292969 602.421875 C 743.539062 605.648438 746.328125 606.796875 749.0625 607.34375 C 763.832031 610.324219 778.054688 608.929688 791.042969 600.808594 C 795.9375 597.746094 798.234375 592.878906 798.757812 587.027344 C 800.34375 568.894531 802.230469 550.816406 803.816406 532.683594 C 809.585938 466.75 804.527344 400.785156 803.324219 334.875 Z M 752.128906 304.519531 C 747.777344 316.199219 742.9375 327.710938 738.34375 339.28125 C 737.496094 339.117188 736.675781 338.953125 735.828125 338.789062 C 735.007812 326.835938 734.214844 314.886719 733.339844 302.933594 C 732.847656 296.261719 735.746094 293.226562 742.5 292.296875 C 755.765625 290.464844 756.941406 291.53125 752.101562 304.492188 Z M 752.128906 304.519531 "/><path style=" stroke:none;fill-rule:nonzero;fill:#fafafa;fill-opacity:1;" d="M 513.078125 387.824219 C 502.605469 392.0625 491.9375 392.964844 480.972656 392.855469 C 469.539062 392.71875 458.21875 393.402344 447.058594 396.027344 C 437.378906 398.324219 432.265625 404.121094 432.59375 414.488281 C 434.207031 468.117188 435.519531 521.773438 437.296875 575.429688 C 437.898438 593.535156 439.949219 611.558594 445.636719 630.535156 C 449.246094 619.734375 455.15625 619.242188 462.566406 624.902344 C 467.105469 628.347656 472.300781 629.304688 476.488281 625.996094 C 487.589844 617.191406 501.019531 617.054688 513.898438 614.785156 C 535.75 610.902344 537.71875 609.96875 535.53125 587.300781 C 531.375 543.980469 534.410156 500.960938 539.113281 457.996094 C 541.054688 440.277344 542.558594 422.609375 541 404.914062 C 539.386719 386.480469 530.253906 380.875 513.050781 387.820312 Z M 446.511719 417.03125 C 445.71875 408.46875 451.351562 404.695312 459.285156 404.503906 C 471.945312 404.175781 484.582031 404.175781 497.242188 404.039062 C 494.015625 406.390625 490.789062 408.769531 487.480469 411.175781 C 490.351562 415.636719 493.441406 409.617188 497.433594 412.1875 C 495.082031 422.636719 487.453125 430.402344 481.273438 438.855469 C 475.363281 446.921875 468.199219 454.058594 462.566406 462.292969 C 458.273438 468.554688 448.261719 473.09375 455.621094 484.140625 C 457.425781 486.824219 452.667969 492.921875 446.949219 496.421875 C 448.507812 469.265625 448.890625 443.148438 446.484375 417.058594 Z M 474.378906 589.789062 C 472.410156 593.371094 470.632812 597.0625 468.472656 600.507812 C 465.082031 605.894531 459.613281 609.558594 453.734375 608.109375 C 447.988281 606.6875 449.628906 599.933594 448.753906 595.230469 C 445.171875 575.730469 451.105469 560.851562 472.328125 551.582031 C 469.429688 557.652344 467.351562 562.085938 465.21875 566.460938 C 461.691406 573.652344 458.902344 580.515625 470.933594 582.101562 C 476.019531 582.757812 476.679688 585.683594 474.40625 589.816406 Z M 518.65625 416.101562 C 517.070312 440.113281 514.636719 464.070312 512.476562 488.054688 C 511.246094 501.617188 509.933594 515.183594 508.484375 528.71875 C 508.074219 532.382812 509.660156 537.199219 503.261719 539.058594 C 500.359375 530.605469 513.40625 518.21875 498.582031 513.625 C 487.316406 510.148438 482.148438 523.222656 470.496094 527.078125 C 479.414062 511.351562 487.671875 497.542969 495.109375 483.320312 C 498.71875 476.429688 506.980469 468.007812 492.292969 462.921875 C 488.382812 461.578125 490.871094 458.351562 492.292969 456.246094 C 495.082031 452.117188 497.378906 446.976562 501.265625 444.324219 C 516.03125 434.285156 507.664062 420.640625 507.363281 408.46875 C 507.253906 403.628906 501.976562 403.601562 497.816406 403.875 C 498.964844 403.355469 500.085938 402.726562 501.289062 402.425781 C 518.355469 398.078125 519.832031 398.871094 518.683594 416.074219 Z M 518.65625 416.101562 "/><path style=" stroke:none;fill-rule:nonzero;fill:#fafafa;fill-opacity:1;" d="M 398.570312 570.753906 C 396.082031 539.03125 393.59375 507.304688 390.996094 475.582031 C 389.4375 456.546875 387.988281 437.433594 383.449219 418.835938 C 378.964844 400.429688 370.347656 395.78125 352.242188 400.757812 C 341.277344 403.765625 330.667969 408.742188 319.261719 409.152344 C 304.414062 409.699219 300.308594 417.277344 300.007812 431.058594 C 299.515625 453.757812 296.589844 476.429688 295.878906 499.128906 C 294.621094 538.210938 292.597656 577.34375 296.835938 616.398438 C 297.300781 620.554688 296.453125 627.609375 302.167969 627.363281 C 307.695312 627.117188 306.246094 620.28125 306.710938 615.960938 C 309.554688 589.652344 308.652344 563.234375 309.089844 536.871094 C 309.171875 532.027344 307.367188 525.164062 312.726562 523.277344 C 321.175781 520.324219 327.492188 514.007812 337.777344 508.507812 C 331.707031 520.105469 326.917969 528.800781 322.570312 537.746094 C 319.863281 543.296875 317.675781 549.203125 326.589844 551.71875 C 332.5 553.386719 329.820312 556.695312 328.207031 560.113281 C 319.972656 577.398438 320.464844 578.246094 341.03125 578.957031 C 331.652344 594.765625 323.445312 608.820312 315.023438 622.714844 C 313.328125 625.53125 307.886719 627.035156 311.25 631.355469 C 313.628906 634.445312 317.867188 633.761719 321.53125 633.132812 C 339.5 629.988281 357.085938 625.121094 374.339844 619.378906 C 398.296875 611.394531 400.15625 608.273438 399.363281 583.003906 C 399.226562 578.902344 398.980469 574.828125 398.652344 570.753906 Z M 312.507812 498.746094 C 311.277344 475.691406 314.339844 453.375 316.882812 431.003906 C 317.621094 424.496094 320.464844 421.40625 326.917969 420.421875 C 333.128906 419.492188 339.171875 417.550781 345.652344 415.964844 C 344.203125 447.988281 313.765625 467.296875 312.507812 498.746094 Z M 345.898438 608.382812 C 353.367188 594.847656 361.789062 582.566406 365.972656 568.238281 C 369.964844 554.507812 368.679688 552.238281 353.941406 549.394531 C 353.914062 548.574219 353.476562 547.453125 353.886719 546.960938 C 358.398438 541.546875 361.378906 529.867188 366.957031 531.535156 C 374.613281 533.832031 370.429688 544.882812 371.359375 552.128906 C 372.535156 561.070312 373.492188 570.097656 373.820312 579.121094 C 374.640625 601.300781 370.511719 605.648438 345.898438 608.355469 Z M 345.898438 608.382812 "/><path style=" stroke:none;fill-rule:nonzero;fill:#fafafa;fill-opacity:1;" d="M 671.394531 341.933594 C 669.917969 323.910156 661.523438 319.207031 644.210938 323.773438 C 628.378906 327.929688 612.679688 332.550781 596.816406 336.570312 C 585.222656 339.527344 578.6875 346.828125 577.429688 358.421875 C 576.5 366.984375 576.007812 375.679688 576.390625 384.265625 C 578.441406 432.835938 581.558594 481.378906 582.542969 530.03125 C 583.007812 553.167969 585.441406 576.277344 587.574219 599.359375 C 588.09375 605.128906 586.207031 617.738281 598.785156 606.769531 C 599.660156 606.003906 601.386719 605.839844 602.671875 605.921875 C 622.386719 607.234375 639.753906 597.417969 658.488281 594.191406 C 669.425781 592.304688 673.199219 586.234375 673.035156 575.15625 C 672.488281 538.347656 672.816406 501.507812 672.816406 464.699219 C 672.925781 464.699219 673.0625 464.699219 673.171875 464.699219 C 673.171875 446.046875 673.363281 427.394531 673.117188 408.742188 C 672.84375 386.453125 673.226562 364.113281 671.421875 341.960938 Z M 649.792969 466.285156 C 649.488281 481.625 635.789062 485.972656 624.546875 496.75 C 626.492188 482.609375 634.503906 474.679688 637.566406 464.863281 C 640.082031 456.820312 650.394531 447.960938 641.203125 440.277344 C 632.78125 433.246094 625.945312 444.242188 618.585938 447.742188 C 616.617188 448.671875 614.675781 449.710938 611.175781 451.460938 C 611.640625 438.746094 618.722656 430.265625 623.398438 421.050781 C 628.132812 411.75 634.011719 403.027344 639.234375 393.949219 C 640.984375 390.886719 643.910156 385.332031 640.082031 384.375 C 622.46875 379.917969 637.15625 372.535156 638.167969 366.765625 C 638.933594 362.496094 643.199219 358.148438 638.605469 354.320312 C 634.09375 350.574219 629.9375 354.265625 626.464844 357.027344 C 621.128906 361.265625 615.960938 365.753906 611.148438 370.566406 C 608.140625 373.574219 602.398438 377.566406 605.953125 381.585938 C 610.164062 386.34375 612.871094 377.703125 619.269531 377.375 C 612.515625 389.492188 606.089844 400.59375 600.097656 411.941406 C 597.417969 417.003906 593.453125 422.691406 602.070312 426.628906 C 606.308594 428.570312 604.367188 431.878906 603.191406 434.804688 C 602.507812 436.5 601.441406 438.0625 600.976562 439.785156 C 599.140625 446.894531 591.976562 454.578125 599.167969 461.25 C 606.773438 468.28125 614.402344 461.496094 621.566406 457.914062 C 623.480469 456.957031 625.371094 456 628.980469 454.195312 C 625.152344 468.363281 616.726562 478.316406 612.460938 490.050781 C 610.136719 496.421875 603.765625 503.886719 611.039062 510.09375 C 618.066406 516.113281 624.519531 509.601562 632.316406 506.894531 C 629.253906 512.039062 626.136719 517.152344 623.125 522.320312 C 619.734375 528.171875 615.304688 533.832031 620.199219 541.136719 C 622.414062 544.445312 619.816406 547.125 618.285156 549.832031 C 614.785156 555.984375 609.726562 560.90625 618.121094 568.566406 C 626.683594 576.359375 633.21875 576.660156 641.476562 569.660156 C 643.390625 568.046875 645.304688 565.558594 648.777344 566.625 C 651.378906 572.96875 648.476562 577.152344 642.898438 579.667969 C 630.484375 585.300781 617.957031 590.773438 605.378906 595.996094 C 596.871094 599.523438 598.921875 592.414062 598.867188 588.613281 C 598.484375 566.789062 598.320312 545.019531 597.007812 523.167969 C 594.136719 475.527344 592.46875 427.804688 591.046875 380.082031 C 590.226562 352.378906 592.742188 349.917969 619.761719 342.808594 C 622.414062 342.125 625.070312 341.550781 627.722656 340.839844 C 650.832031 334.765625 651.515625 335.339844 652.472656 359.898438 C 653.867188 395.425781 650.449219 430.8125 649.765625 466.257812 Z M 649.792969 466.285156 "/><path style=" stroke:none;fill-rule:nonzero;fill:#fafafa;fill-opacity:1;" d="M 230.273438 461.359375 C 212.878906 461.632812 195.703125 460.019531 179.128906 454.195312 C 166.46875 449.738281 163.433594 451.679688 163.515625 464.890625 C 163.652344 486.273438 163.515625 507.578125 162.121094 528.992188 C 159.605469 567.609375 160.070312 606.359375 161.273438 645.058594 C 161.4375 649.980469 160.207031 656.652344 169.996094 654.273438 C 191.65625 648.941406 213.589844 644.785156 235.277344 639.726562 C 256.855469 634.664062 262.460938 627.308594 262.460938 601.738281 C 256.910156 564.109375 254.996094 522.265625 251.957031 480.53125 C 251 467.296875 243.480469 461.167969 230.273438 461.359375 Z M 210.664062 485.753906 C 214.65625 480.285156 216.078125 470.632812 225.839844 473.175781 C 235.167969 475.609375 231.449219 484.332031 231.914062 490.488281 C 233.117188 506.730469 233.636719 523.003906 234.457031 539.277344 C 234.8125 546.414062 235.550781 553.25 224.226562 550.570312 C 221.054688 549.804688 216.980469 552.949219 212.796875 554.480469 C 212.304688 547.371094 216.625 542.886719 218.894531 537.71875 C 222.394531 529.730469 229.644531 522.347656 221.082031 513.105469 C 219.03125 510.886719 221.164062 507.988281 222.421875 505.582031 C 224.71875 501.207031 227.972656 496.613281 224.117188 491.800781 C 219.523438 486.054688 214.273438 490.1875 209.296875 491.71875 C 207.300781 489.09375 209.542969 487.316406 210.664062 485.78125 Z M 169.75 606.195312 C 169.394531 563.808594 174.425781 521.746094 176.722656 479.519531 C 176.96875 475.117188 175.410156 467.433594 182.140625 467.242188 C 190.097656 467.023438 198.464844 468.855469 206.042969 471.5625 C 209.625 472.847656 206.097656 477.140625 204.402344 479.574219 C 197.589844 489.203125 190.480469 498.609375 183.78125 508.289062 C 181.15625 512.09375 175.027344 516.332031 179.679688 521.007812 C 184.492188 525.820312 188.484375 519.722656 192.257812 516.796875 C 194.007812 515.429688 195.675781 513.980469 199.585938 514.0625 C 194.28125 522.019531 188.894531 529.921875 183.726562 537.992188 C 181.566406 541.355469 178.089844 546.523438 183.070312 548.574219 C 192.3125 552.429688 189.140625 557.242188 186.953125 563.644531 C 183.726562 573.160156 172.539062 583.769531 190.261719 591.8125 C 194.472656 593.726562 189.03125 598.949219 187.117188 602.175781 C 178.390625 616.863281 178.226562 617.21875 194.144531 619.871094 C 201.007812 621.019531 199.667969 628.785156 204.8125 630.78125 C 169.832031 642.871094 170.078125 642.816406 169.777344 606.195312 Z M 236.808594 615.058594 C 235.90625 623.507812 228.824219 625.3125 222.148438 627.007812 C 216.542969 628.429688 210.855469 629.496094 205.195312 630.699219 C 219.386719 617.4375 227.480469 601.464844 225.375 581.664062 C 224.527344 573.734375 229.535156 569.578125 233.308594 564.054688 C 238.503906 581.0625 238.667969 598.046875 236.835938 615.085938 Z M 236.808594 615.058594 "/><path style=" stroke:none;fill-rule:nonzero;fill:#fafafa;fill-opacity:1;" d="M 117.40625 587.109375 C 117.40625 569.824219 118.007812 552.539062 117.214844 535.28125 C 116.503906 519.421875 111.527344 515.566406 95.800781 515.59375 C 84.125 515.59375 72.445312 517.644531 61.125 511.519531 C 53.902344 507.632812 48.898438 512.257812 47.53125 519.859375 C 42.472656 548.464844 36.019531 576.960938 33.203125 605.8125 C 31.316406 625.011719 29.398438 644.703125 32.464844 664.230469 C 33.558594 671.148438 34.625 677.109375 44.332031 672.953125 C 47.859375 671.449219 52.371094 672.214844 56.449219 672.105469 C 72.445312 671.667969 88.144531 669.125 103.484375 664.804688 C 114.261719 661.796875 121.125 655.203125 119.484375 642.980469 C 116.996094 624.410156 118.554688 605.730469 117.378906 587.136719 Z M 42.390625 651.785156 C 36.867188 642.871094 38.371094 633.980469 39.328125 625.476562 C 41.269531 608.328125 44.605469 591.347656 46.355469 574.199219 C 47.722656 560.6875 55.300781 553.277344 66.949219 548.246094 C 68.015625 551.472656 65.636719 552.703125 64.488281 554.453125 C 62.738281 557.105469 60.660156 559.566406 58.964844 562.25 C 57.296875 564.875 55.929688 570.808594 57.378906 570.398438 C 75.972656 565.121094 45.234375 604.171875 77.3125 584.917969 C 61.125 608.382812 46.191406 627.0625 42.363281 651.8125 Z M 88.636719 650.828125 C 79.253906 655.230469 75.617188 646.425781 70.148438 643.089844 C 64.132812 639.453125 70.667969 635.238281 72.691406 631.984375 C 77.941406 623.425781 84.535156 616.917969 80.105469 604.117188 C 77.75 597.335938 88.582031 588.777344 96.265625 577.945312 C 95.554688 601.136719 95.226562 619.980469 97.304688 638.742188 C 98.015625 645.085938 94.242188 648.203125 88.636719 650.828125 Z M 84.699219 565.449219 C 83.304688 555.355469 78.214844 545.675781 88.855469 537.527344 C 90.605469 536.183594 91.34375 533.394531 89.019531 531.535156 C 86.394531 529.457031 83.851562 531.015625 81.554688 532.519531 C 72.882812 538.183594 64.269531 543.898438 55.628906 549.613281 C 55.242188 539.277344 53.164062 525.820312 64.542969 526.476562 C 75.289062 527.078125 90.824219 519.640625 97.332031 534.242188 C 102.910156 546.769531 97.058594 558.554688 84.726562 565.476562 Z M 84.699219 565.449219 "/></g></svg>