<svg xmlns="http://www.w3.org/2000/svg" xmlns:xlink="http://www.w3.org/1999/xlink" width="40" zoomAndPan="magnify" viewBox="0 0 30 30.000001" height="40" preserveAspectRatio="xMidYMid meet" version="1.2"><defs><clipPath id="16b219458e"><path d="M 0.484375 8 L 29.515625 8 L 29.515625 23.425781 L 0.484375 23.425781 Z M 0.484375 8 "/></clipPath><clipPath id="feba028b5b"><path d="M 0.484375 5.28125 L 29.515625 5.28125 L 29.515625 15 L 0.484375 15 Z M 0.484375 5.28125 "/></clipPath></defs><g id="aa2951704f"><g clip-rule="nonzero" clip-path="url(#16b219458e)"><path style=" stroke:none;fill-rule:nonzero;fill:#000000;fill-opacity:1;" d="M 29.429688 8.714844 L 15.078125 16.996094 L 0.507812 8.703125 L 0.507812 22.125 C 0.507812 22.828125 1.089844 23.398438 1.804688 23.398438 L 28.15625 23.398438 C 28.875 23.398438 29.453125 22.828125 29.453125 22.125 L 29.453125 21.070312 Z M 29.429688 8.714844 "/></g><g clip-rule="nonzero" clip-path="url(#feba028b5b)"><path style=" stroke:none;fill-rule:nonzero;fill:#000000;fill-opacity:1;" d="M 29.457031 6.542969 C 29.457031 5.839844 28.875 5.269531 28.160156 5.269531 L 1.804688 5.269531 C 1.089844 5.269531 0.507812 5.839844 0.507812 6.542969 L 15.078125 14.195312 Z M 29.457031 6.542969 "/></g><g style="fill:#000000;fill-opacity:1;"><g transform="translate(7.508387, 19.862965)"><path style="stroke:none" d="M 0.71875 0.03125 C 0.613281 0.03125 0.53125 0.00390625 0.46875 -0.046875 C 0.414062 -0.109375 0.390625 -0.1875 0.390625 -0.28125 C 0.390625 -0.375 0.414062 -0.445312 0.46875 -0.5 C 0.53125 -0.5625 0.613281 -0.59375 0.71875 -0.59375 C 0.820312 -0.59375 0.898438 -0.566406 0.953125 -0.515625 C 1.015625 -0.460938 1.046875 -0.390625 1.046875 -0.296875 C 1.046875 -0.203125 1.015625 -0.125 0.953125 -0.0625 C 0.890625 0 0.8125 0.03125 0.71875 0.03125 Z M 0.71875 0.03125 "/></g></g></g></svg>