<svg xmlns="http://www.w3.org/2000/svg" xmlns:xlink="http://www.w3.org/1999/xlink" width="40" zoomAndPan="magnify" viewBox="0 0 30 30.000001" height="40" preserveAspectRatio="xMidYMid meet" version="1.2"><defs><clipPath id="52d8dbbe44"><path d="M 0.484375 0 L 29.515625 0 L 29.515625 29 L 0.484375 29 Z M 0.484375 0 "/></clipPath></defs><g id="7779eefd41"><g clip-rule="nonzero" clip-path="url(#52d8dbbe44)"><path style=" stroke:none;fill-rule:nonzero;fill:#000000;fill-opacity:1;" d="M 26.644531 19.757812 L 22.582031 19.289062 C 21.597656 19.175781 20.628906 19.515625 19.933594 20.210938 L 16.953125 23.195312 C 14.664062 22.03125 12.585938 20.519531 10.792969 18.722656 C 9 16.929688 7.484375 14.851562 6.324219 12.566406 L 9.304688 9.582031 C 10 8.886719 10.339844 7.917969 10.226562 6.933594 L 9.757812 2.871094 C 9.566406 1.242188 8.195312 0.015625 6.546875 0.015625 L 3.757812 0.015625 C 1.933594 0.015625 0.417969 1.53125 0.53125 3.355469 C 0.960938 10.242188 3.925781 16.433594 8.503906 21.011719 C 13.082031 25.589844 19.277344 28.554688 26.160156 28.984375 C 27.984375 29.097656 29.5 27.582031 29.5 25.757812 L 29.5 22.96875 C 29.5 21.324219 28.273438 19.953125 26.644531 19.757812 Z M 26.644531 19.757812 "/></g><g style="fill:#000000;fill-opacity:1;"><g transform="translate(1.629355, 2.588772)"><path style="stroke:none" d="M 0.71875 0.03125 C 0.613281 0.03125 0.53125 0.00390625 0.46875 -0.046875 C 0.414062 -0.109375 0.390625 -0.1875 0.390625 -0.28125 C 0.390625 -0.375 0.414062 -0.445312 0.46875 -0.5 C 0.53125 -0.5625 0.613281 -0.59375 0.71875 -0.59375 C 0.820312 -0.59375 0.898438 -0.566406 0.953125 -0.515625 C 1.015625 -0.460938 1.046875 -0.390625 1.046875 -0.296875 C 1.046875 -0.203125 1.015625 -0.125 0.953125 -0.0625 C 0.890625 0 0.8125 0.03125 0.71875 0.03125 Z M 0.71875 0.03125 "/></g></g></g></svg>