<svg xmlns="http://www.w3.org/2000/svg" xmlns:xlink="http://www.w3.org/1999/xlink" width="500" zoomAndPan="magnify" viewBox="0 0 375 374.999991" height="500" preserveAspectRatio="xMidYMid meet" version="1.2"><defs><clipPath id="c3dbe8cc92"><path d="M 187.5 0 C 83.945312 0 0 83.945312 0 187.5 C 0 291.054688 83.945312 375 187.5 375 C 291.054688 375 375 291.054688 375 187.5 C 375 83.945312 291.054688 0 187.5 0 Z M 187.5 0 "/></clipPath><clipPath id="2447b36a26"><path d="M 84 60.105469 L 315.105469 60.105469 L 315.105469 292 L 84 292 Z M 84 60.105469 "/></clipPath><clipPath id="7fd8946589"><path d="M 60.105469 187 L 91 187 L 91 218 L 60.105469 218 Z M 60.105469 187 "/></clipPath></defs><g id="7ca3452f40"><g clip-rule="nonzero" clip-path="url(#c3dbe8cc92)"><rect x="0" width="375" y="0" height="374.999991" style="fill:#ffb3db;fill-opacity:1;stroke:none;"/></g><g clip-rule="nonzero" clip-path="url(#2447b36a26)"><path style=" stroke:none;fill-rule:nonzero;fill:#000000;fill-opacity:1;" d="M 310.121094 60.25 C 294.972656 60.25 277.351562 63.539062 258.921875 69.703125 C 258.910156 69.710938 258.898438 69.703125 258.882812 69.710938 C 258.875 69.714844 258.871094 69.71875 258.859375 69.722656 C 257.367188 70.222656 255.875 70.707031 254.371094 71.246094 C 254.226562 71.300781 254.074219 71.363281 253.925781 71.4375 C 250.207031 72.777344 246.550781 74.230469 242.949219 75.75 C 242.929688 75.753906 242.910156 75.769531 242.890625 75.773438 C 220.550781 85.179688 200.714844 97.714844 187.335938 111.09375 L 161.28125 137.148438 L 139.539062 137.148438 C 129.074219 137.148438 119.234375 141.226562 111.832031 148.628906 L 85.730469 174.730469 C 84.316406 176.144531 83.902344 178.277344 84.691406 180.117188 C 85.460938 181.917969 87.238281 183.085938 89.1875 183.085938 C 89.230469 183.085938 89.269531 183.085938 89.308594 183.085938 L 130.890625 182.082031 C 128.898438 192.980469 130.101562 204.304688 134.765625 214.5 C 120.613281 229.03125 109.726562 248.199219 118.59375 257.070312 C 120.816406 259.296875 123.691406 260.273438 126.980469 260.273438 C 136.808594 260.273438 150.3125 251.46875 161.207031 240.84375 C 168.257812 244.058594 175.820312 245.726562 183.445312 245.726562 C 186.839844 245.726562 190.230469 245.378906 193.585938 244.769531 L 192.585938 286.363281 C 192.535156 288.363281 193.710938 290.1875 195.550781 290.976562 C 196.171875 291.242188 196.828125 291.375 197.480469 291.375 C 198.75 291.375 200.003906 290.875 200.9375 289.941406 L 227.042969 263.835938 C 234.441406 256.433594 238.519531 246.59375 238.519531 236.128906 L 238.519531 214.375 L 264.378906 188.484375 C 277.851562 175.050781 290.425781 155.089844 299.820312 132.59375 C 299.820312 132.589844 299.828125 132.589844 299.828125 132.582031 C 301.398438 128.824219 302.898438 125.015625 304.28125 121.136719 C 304.792969 119.691406 305.253906 118.261719 305.734375 116.828125 C 305.753906 116.789062 305.78125 116.753906 305.800781 116.714844 C 305.828125 116.65625 305.8125 116.59375 305.835938 116.53125 C 311.992188 98.027344 315.230469 80.335938 315.152344 65.117188 C 315.125 62.421875 312.8125 60.25 310.121094 60.25 Z M 133.621094 172.222656 L 101.296875 173 L 118.746094 155.546875 C 124.300781 149.996094 131.683594 146.9375 139.535156 146.9375 L 151.484375 146.9375 L 146.914062 151.511719 C 140.902344 157.53125 136.464844 164.640625 133.621094 172.222656 Z M 152.09375 200.21875 C 148.890625 202.261719 145.636719 204.652344 142.410156 207.386719 C 139.386719 199.148438 138.945312 190.1875 140.941406 181.621094 C 143.832031 188.652344 148.308594 195.304688 152.09375 200.21875 Z M 155.304688 232.953125 C 139.886719 248.375 127.140625 251.769531 125.515625 250.148438 C 123.902344 248.527344 127.296875 235.773438 142.714844 220.359375 C 149.523438 213.550781 156.816406 208.144531 163.242188 205.132812 C 167.03125 203.363281 169.625 202.882812 171.09375 202.882812 C 171.882812 202.882812 172.347656 203.019531 172.496094 203.171875 C 172.929688 203.601562 173.261719 206.597656 170.535156 212.425781 C 167.519531 218.859375 162.105469 226.144531 155.304688 232.953125 Z M 168.277344 233.253906 C 171.015625 230.023438 173.417969 226.757812 175.457031 223.546875 C 180.457031 227.378906 187.15625 231.816406 194.25 234.671875 C 185.628906 236.71875 176.585938 236.292969 168.277344 233.253906 Z M 228.726562 236.125 C 228.726562 243.976562 225.664062 251.355469 220.117188 256.910156 L 202.667969 274.367188 L 203.449219 242.011719 C 211.042969 239.167969 218.164062 234.746094 224.183594 228.726562 L 228.730469 224.171875 L 228.730469 236.125 Z M 257.457031 181.558594 L 217.257812 221.800781 C 215.484375 223.570312 213.597656 225.171875 211.625 226.621094 C 211.613281 226.625 211.597656 226.625 211.589844 226.636719 C 205.746094 230.011719 193.347656 225.210938 180.148438 214.75 C 184.402344 204.523438 182.203125 199.03125 179.414062 196.246094 C 176.632812 193.457031 171.140625 191.25 160.894531 195.519531 C 151.019531 183.109375 146.078125 171.175781 148.402344 164.945312 C 150.007812 162.65625 151.808594 160.460938 153.839844 158.429688 L 166.761719 145.507812 C 166.765625 145.503906 166.765625 145.503906 166.769531 145.5 L 194.257812 118.011719 C 205.519531 106.75 221.820312 96.082031 240.398438 87.558594 C 242.359375 97.15625 248.609375 107.828125 258.183594 117.390625 C 267.757812 126.949219 278.433594 133.175781 288.027344 135.125 C 279.507812 153.84375 268.800781 170.242188 257.457031 181.558594 Z M 291.976562 125.898438 C 284.011719 124.976562 273.867188 119.210938 265.105469 110.464844 C 256.339844 101.714844 250.554688 91.539062 249.625 83.59375 C 252.003906 82.636719 254.402344 81.699219 256.828125 80.820312 C 256.824219 80.886719 256.84375 80.953125 256.839844 81.015625 C 256.597656 85.953125 260.695312 95.628906 270.296875 105.234375 C 279.953125 114.890625 289.679688 118.957031 294.636719 118.6875 C 294.667969 118.6875 294.703125 118.691406 294.730469 118.691406 C 293.855469 121.121094 292.929688 123.519531 291.976562 125.898438 Z M 297.863281 109.101562 C 296.609375 108.949219 295.347656 108.839844 294.074219 108.914062 C 292.460938 109.121094 285.394531 106.476562 277.195312 98.277344 C 269.085938 90.171875 266.609375 83.125 266.617188 81.550781 C 266.695312 80.238281 266.597656 78.9375 266.4375 77.636719 C 280.164062 73.390625 293.554688 70.742188 305.253906 70.164062 C 304.71875 81.851562 302.101562 95.300781 297.863281 109.101562 Z M 297.863281 109.101562 "/></g><path style=" stroke:none;fill-rule:nonzero;fill:#000000;fill-opacity:1;" d="M 220.875 122.121094 C 212 122.121094 203.660156 125.574219 197.390625 131.84375 C 191.117188 138.113281 187.664062 146.453125 187.664062 155.328125 C 187.664062 164.203125 191.117188 172.542969 197.390625 178.8125 C 203.660156 185.085938 212 188.535156 220.875 188.535156 C 229.746094 188.535156 238.085938 185.082031 244.359375 178.8125 C 250.632812 172.535156 254.082031 164.203125 254.082031 155.328125 C 254.082031 146.453125 250.632812 138.113281 244.359375 131.84375 C 238.085938 125.574219 229.746094 122.121094 220.875 122.121094 Z M 237.4375 171.894531 C 233.015625 176.320312 227.132812 178.753906 220.875 178.753906 C 214.613281 178.753906 208.734375 176.316406 204.3125 171.894531 C 199.886719 167.472656 197.453125 161.59375 197.453125 155.332031 C 197.453125 149.078125 199.886719 143.195312 204.3125 138.769531 C 208.730469 134.34375 214.613281 131.914062 220.875 131.914062 C 227.132812 131.914062 233.011719 134.351562 237.4375 138.769531 C 241.863281 143.195312 244.292969 149.074219 244.292969 155.332031 C 244.292969 161.585938 241.863281 167.472656 237.4375 171.894531 Z M 237.4375 171.894531 "/><g clip-rule="nonzero" clip-path="url(#7fd8946589)"><path style=" stroke:none;fill-rule:nonzero;fill:#000000;fill-opacity:1;" d="M 68.910156 216.558594 L 89.371094 196.097656 C 91.285156 194.183594 91.285156 191.089844 89.371094 189.179688 C 87.457031 187.265625 84.363281 187.265625 82.449219 189.179688 L 61.992188 209.636719 C 60.078125 211.550781 60.078125 214.644531 61.992188 216.558594 C 62.945312 217.511719 64.199219 217.992188 65.453125 217.992188 C 66.703125 217.992188 67.957031 217.511719 68.910156 216.558594 Z M 68.910156 216.558594 "/></g><path style=" stroke:none;fill-rule:nonzero;fill:#000000;fill-opacity:1;" d="M 114.484375 261.042969 C 112.570312 259.128906 109.476562 259.128906 107.5625 261.042969 L 75.902344 292.699219 C 73.988281 294.613281 73.988281 297.707031 75.902344 299.621094 C 76.855469 300.574219 78.109375 301.054688 79.363281 301.054688 C 80.613281 301.054688 81.867188 300.574219 82.820312 299.621094 L 114.484375 267.964844 C 116.394531 266.054688 116.394531 262.957031 114.484375 261.042969 Z M 114.484375 261.042969 "/><path style=" stroke:none;fill-rule:nonzero;fill:#000000;fill-opacity:1;" d="M 100.167969 224.800781 C 98.253906 222.886719 95.160156 222.886719 93.246094 224.800781 L 66.449219 251.597656 C 64.535156 253.511719 64.535156 256.601562 66.449219 258.515625 C 67.402344 259.472656 68.65625 259.953125 69.910156 259.953125 C 71.164062 259.953125 72.417969 259.472656 73.371094 258.515625 L 100.167969 231.71875 C 102.082031 229.8125 102.082031 226.714844 100.167969 224.800781 Z M 100.167969 224.800781 "/><path style=" stroke:none;fill-rule:nonzero;fill:#000000;fill-opacity:1;" d="M 179.429688 286.15625 L 158.96875 306.613281 C 157.054688 308.527344 157.054688 311.621094 158.96875 313.535156 C 159.921875 314.488281 161.175781 314.96875 162.429688 314.96875 C 163.683594 314.96875 164.9375 314.488281 165.890625 313.535156 L 186.347656 293.078125 C 188.261719 291.164062 188.261719 288.070312 186.347656 286.15625 C 184.433594 284.242188 181.34375 284.242188 179.429688 286.15625 Z M 179.429688 286.15625 "/><path style=" stroke:none;fill-rule:nonzero;fill:#000000;fill-opacity:1;" d="M 143.804688 275.359375 L 117.007812 302.15625 C 115.09375 304.070312 115.09375 307.164062 117.007812 309.078125 C 117.964844 310.03125 119.214844 310.511719 120.46875 310.511719 C 121.722656 310.511719 122.976562 310.03125 123.929688 309.078125 L 150.726562 282.28125 C 152.640625 280.367188 152.640625 277.273438 150.726562 275.359375 C 148.8125 273.445312 145.71875 273.445312 143.804688 275.359375 Z M 143.804688 275.359375 "/></g></svg>