<svg xmlns="http://www.w3.org/2000/svg" xmlns:xlink="http://www.w3.org/1999/xlink" width="500" zoomAndPan="magnify" viewBox="0 0 375 374.999991" height="500" preserveAspectRatio="xMidYMid meet" version="1.2"><defs><clipPath id="5991b35ff1"><path d="M 213.164062 63 L 230 63 L 230 65.585938 L 213.164062 65.585938 Z M 213.164062 63 "/></clipPath><clipPath id="dc0e30cc76"><path d="M 232 58.835938 L 246.164062 58.835938 L 246.164062 65.585938 L 232 65.585938 Z M 232 58.835938 "/></clipPath></defs><g id="05504ad5bc"><path style=" stroke:none;fill-rule:evenodd;fill:#000000;fill-opacity:1;" d="M 34.9375 142.34375 L 97.746094 268.707031 L 113.355469 260.902344 L 50.546875 134.539062 Z M 34.9375 142.34375 "/><path style=" stroke:none;fill-rule:evenodd;fill:#000000;fill-opacity:1;" d="M 27.875 137.140625 L 28.246094 137.140625 L 47.199219 127.847656 L 41.253906 115.957031 C 39.023438 111.867188 34.5625 108.894531 29.730469 108.894531 C 27.503906 108.894531 25.644531 109.265625 23.785156 110.382812 L 9.292969 117.441406 C 2.601562 120.789062 0 128.59375 3.34375 134.910156 L 8.917969 146.804688 Z M 27.875 137.140625 "/><path style=" stroke:none;fill-rule:evenodd;fill:#000000;fill-opacity:1;" d="M 91.054688 272.050781 L 28.246094 145.6875 L 12.265625 153.492188 L 75.074219 279.855469 Z M 91.054688 272.050781 "/><path style=" stroke:none;fill-rule:evenodd;fill:#000000;fill-opacity:1;" d="M 116.699219 267.589844 L 78.417969 286.546875 L 85.480469 300.296875 L 114.839844 311.820312 L 123.390625 281.34375 Z M 116.699219 267.589844 "/><path style=" stroke:none;fill-rule:evenodd;fill:#000000;fill-opacity:1;" d="M 299.183594 352.699219 L 89.570312 352.699219 C 87.710938 352.699219 85.851562 351.214844 85.851562 348.984375 L 85.851562 308.472656 L 102.207031 314.792969 L 102.207031 333.003906 C 102.207031 335.234375 103.691406 336.71875 105.921875 336.71875 L 282.828125 336.71875 C 285.058594 336.71875 286.546875 335.234375 286.546875 333.003906 L 286.546875 183.96875 L 299.183594 183.96875 C 300.296875 183.96875 301.785156 183.597656 302.898438 183.226562 L 302.898438 348.984375 C 302.898438 351.214844 301.039062 352.699219 299.183594 352.699219 Z M 85.851562 188.800781 L 85.851562 92.542969 C 85.851562 90.3125 87.710938 88.824219 89.570312 88.824219 L 223.363281 88.824219 C 222.992188 89.941406 222.621094 91.054688 222.621094 92.542969 L 222.621094 104.808594 L 105.921875 104.808594 C 103.691406 104.808594 102.207031 106.292969 102.207031 108.523438 L 102.207031 221.507812 Z M 267.21875 264.617188 L 219.648438 264.617188 C 212.585938 270.191406 203.667969 273.539062 194.003906 273.539062 C 184.710938 273.539062 175.792969 270.191406 168.730469 264.617188 L 130.078125 264.617188 C 127.847656 264.617188 126.363281 262.761719 126.363281 260.902344 C 126.363281 258.671875 127.847656 257.183594 130.078125 257.183594 L 162.042969 257.183594 C 157.953125 251.609375 155.351562 244.921875 154.609375 237.859375 L 121.160156 237.859375 C 119.300781 237.859375 117.441406 236 117.441406 234.144531 C 117.441406 231.914062 119.300781 230.425781 121.160156 230.425781 L 154.609375 230.425781 C 155.351562 223.363281 157.953125 216.675781 162.042969 211.101562 L 121.160156 211.101562 C 119.300781 211.101562 117.441406 209.613281 117.441406 207.382812 C 117.441406 205.523438 119.300781 203.667969 121.160156 203.667969 L 168.730469 203.667969 C 175.792969 198.09375 184.710938 194.375 194.003906 194.375 C 203.667969 194.375 212.585938 198.09375 219.648438 203.667969 L 267.21875 203.667969 C 269.078125 203.667969 270.9375 205.523438 270.9375 207.382812 C 270.9375 209.613281 269.078125 211.101562 267.21875 211.101562 L 226.339844 211.101562 C 230.425781 216.675781 233.027344 223.363281 233.769531 230.425781 L 267.21875 230.425781 C 269.078125 230.425781 270.9375 231.914062 270.9375 234.144531 C 270.9375 236 269.078125 237.859375 267.21875 237.859375 L 233.769531 237.859375 C 233.027344 244.921875 230.425781 251.609375 226.339844 257.183594 L 267.21875 257.183594 C 269.078125 257.183594 270.9375 258.671875 270.9375 260.902344 C 270.9375 262.761719 269.078125 264.617188 267.21875 264.617188 Z M 180.996094 259.414062 C 180.253906 259.414062 179.882812 259.414062 179.136719 259.042969 C 178.023438 258.300781 177.28125 257.183594 177.28125 255.699219 L 177.28125 212.585938 C 177.28125 211.101562 178.023438 209.613281 179.136719 209.242188 C 180.625 208.5 182.109375 208.5 183.226562 209.613281 L 209.984375 231.167969 C 210.726562 231.914062 211.101562 233.027344 211.101562 234.144531 C 211.101562 235.257812 210.726562 236.371094 209.984375 237.117188 L 183.226562 258.671875 C 182.484375 259.042969 181.738281 259.414062 180.996094 259.414062 Z M 184.710938 220.390625 L 184.710938 247.894531 L 201.808594 234.144531 Z M 194.003906 201.808594 C 176.535156 201.808594 162.042969 216.304688 162.042969 234.144531 C 162.042969 251.980469 176.535156 266.105469 194.003906 266.105469 C 211.84375 266.105469 226.339844 251.980469 226.339844 234.144531 C 226.339844 216.304688 211.84375 201.808594 194.003906 201.808594 Z M 267.21875 317.765625 L 121.160156 317.765625 C 121.160156 317.765625 121.160156 317.765625 120.789062 317.765625 C 120.417969 318.878906 120.042969 319.625 118.929688 319.996094 L 118.558594 319.996094 L 118.558594 320.367188 L 115.957031 320.367188 L 115.957031 319.996094 L 109.636719 317.765625 L 109.636719 329.285156 L 279.113281 329.285156 L 279.113281 183.96875 L 232.65625 183.96875 C 227.082031 183.96875 222.621094 179.507812 222.621094 173.933594 L 222.621094 112.238281 L 109.636719 112.238281 L 109.636719 236.746094 L 121.53125 260.902344 L 130.824219 279.484375 C 131.195312 280.226562 131.195312 280.972656 131.195312 282.085938 L 123.019531 310.332031 L 267.21875 310.332031 C 269.078125 310.332031 270.9375 312.191406 270.9375 314.046875 C 270.9375 316.277344 269.078125 317.765625 267.21875 317.765625 Z M 267.21875 291.007812 L 135.652344 291.007812 C 133.425781 291.007812 131.9375 289.519531 131.9375 287.289062 C 131.9375 285.429688 133.425781 283.574219 135.652344 283.574219 L 267.21875 283.574219 C 269.078125 283.574219 270.9375 285.429688 270.9375 287.289062 C 270.9375 289.519531 269.078125 291.007812 267.21875 291.007812 Z M 217.046875 184.339844 L 121.160156 184.339844 C 119.300781 184.339844 117.441406 182.855469 117.441406 180.625 C 117.441406 178.765625 119.300781 176.90625 121.160156 176.90625 L 217.046875 176.90625 C 219.277344 176.90625 220.761719 178.765625 220.761719 180.625 C 220.761719 182.855469 219.277344 184.339844 217.046875 184.339844 Z M 217.046875 157.582031 L 121.160156 157.582031 C 119.300781 157.582031 117.441406 156.09375 117.441406 153.863281 C 117.441406 152.007812 119.300781 150.148438 121.160156 150.148438 L 217.046875 150.148438 C 219.277344 150.148438 220.761719 152.007812 220.761719 153.863281 C 220.761719 156.09375 219.277344 157.582031 217.046875 157.582031 Z M 217.046875 131.195312 L 121.160156 131.195312 C 119.300781 131.195312 117.441406 129.335938 117.441406 127.476562 C 117.441406 125.246094 119.300781 123.761719 121.160156 123.761719 L 217.046875 123.761719 C 219.277344 123.761719 220.761719 125.246094 220.761719 127.476562 C 220.761719 129.335938 219.277344 131.195312 217.046875 131.195312 Z M 217.046875 131.195312 "/><path style=" stroke:none;fill-rule:evenodd;fill:#000000;fill-opacity:1;" d="M 299.183594 177.652344 L 232.65625 177.652344 C 230.425781 177.652344 228.941406 175.792969 228.941406 173.933594 L 228.941406 92.542969 C 228.941406 90.683594 230.054688 89.570312 231.542969 88.824219 C 233.027344 88.453125 234.515625 88.824219 235.628906 89.941406 L 301.785156 171.332031 C 302.527344 171.703125 302.898438 172.820312 302.898438 173.933594 C 302.898438 175.792969 301.039062 177.652344 299.183594 177.652344 Z M 299.183594 177.652344 "/><path style=" stroke:none;fill-rule:evenodd;fill:#000000;fill-opacity:1;" d="M 371.285156 286.546875 L 309.21875 286.546875 L 309.21875 270.566406 L 355.300781 270.566406 C 357.160156 270.566406 359.019531 269.078125 359.019531 266.847656 L 359.019531 117.816406 L 371.285156 117.816406 C 372.398438 117.816406 373.886719 117.441406 375 117.070312 L 375 282.828125 C 375 285.058594 373.140625 286.546875 371.285156 286.546875 Z M 157.953125 82.507812 L 157.953125 26.386719 C 157.953125 24.15625 159.8125 22.671875 161.671875 22.671875 L 295.464844 22.671875 C 295.09375 23.785156 294.722656 24.902344 294.722656 26.386719 L 294.722656 38.652344 L 178.023438 38.652344 C 175.792969 38.652344 174.304688 40.140625 174.304688 42.367188 L 174.304688 82.507812 Z M 309.21875 263.132812 L 351.585938 263.132812 L 351.585938 117.816406 L 304.757812 117.816406 C 299.183594 117.816406 294.722656 113.355469 294.722656 107.78125 L 294.722656 46.085938 L 181.738281 46.085938 L 181.738281 82.507812 L 232.65625 82.507812 C 235.628906 82.507812 238.601562 83.621094 240.460938 86.222656 L 306.617188 166.875 C 308.101562 168.730469 309.21875 171.332031 309.21875 173.933594 C 309.21875 173.933594 309.21875 174.304688 309.21875 174.679688 Z M 309.21875 263.132812 "/><path style=" stroke:none;fill-rule:evenodd;fill:#000000;fill-opacity:1;" d="M 371.285156 111.496094 L 304.757812 111.496094 C 302.898438 111.496094 301.039062 109.636719 301.039062 107.78125 L 301.039062 26.386719 C 301.039062 24.527344 302.15625 23.414062 303.640625 22.671875 C 305.128906 22.300781 306.617188 22.671875 307.730469 23.785156 L 373.886719 105.179688 C 374.628906 105.550781 375 106.664062 375 107.78125 C 375 109.636719 373.511719 111.496094 371.285156 111.496094 Z M 371.285156 111.496094 "/><g clip-rule="nonzero" clip-path="url(#5991b35ff1)"><path style=" stroke:none;fill-rule:nonzero;fill:#000000;fill-opacity:1;" d="M 213.191406 63.992188 C 213.167969 63.960938 213.167969 63.917969 213.171875 63.886719 C 213.191406 63.832031 213.226562 63.789062 213.261719 63.765625 C 213.296875 63.734375 213.347656 63.722656 213.375 63.710938 C 213.40625 63.707031 213.441406 63.691406 213.46875 63.6875 C 213.601562 63.65625 213.738281 63.636719 213.867188 63.632812 C 214.128906 63.613281 214.390625 63.613281 214.652344 63.625 C 215.167969 63.652344 215.691406 63.675781 216.207031 63.71875 C 216.722656 63.757812 217.238281 63.808594 217.757812 63.851562 C 218.273438 63.898438 218.789062 63.941406 219.304688 63.984375 C 219.820312 64.027344 220.339844 64.0625 220.855469 64.085938 C 221.371094 64.117188 221.894531 64.128906 222.410156 64.128906 C 222.664062 64.121094 222.925781 64.117188 223.183594 64.097656 C 223.4375 64.078125 223.691406 64.0625 223.949219 64.027344 C 224.203125 63.988281 224.453125 63.945312 224.695312 63.878906 C 224.820312 63.847656 224.9375 63.808594 225.058594 63.769531 L 225.332031 63.671875 C 225.421875 63.570312 225.527344 63.472656 225.65625 63.394531 C 225.835938 63.277344 226.015625 63.304688 226.191406 63.40625 C 226.238281 63.4375 226.273438 63.472656 226.339844 63.449219 C 226.375 63.4375 226.410156 63.460938 226.449219 63.476562 C 226.570312 63.539062 226.585938 63.582031 226.519531 63.707031 C 226.429688 63.867188 226.328125 64.019531 226.261719 64.1875 C 226.179688 64.394531 226.136719 64.601562 226.144531 64.820312 C 226.144531 64.917969 226.164062 65.007812 226.199219 65.09375 C 226.234375 65.179688 226.292969 65.214844 226.382812 65.21875 C 226.558594 65.21875 226.714844 65.152344 226.867188 65.074219 C 227.46875 64.777344 229.296875 63.496094 229.496094 63.726562 C 229.503906 63.734375 229.503906 63.746094 229.507812 63.769531 C 228.765625 63.859375 227.484375 65.007812 226.804688 65.304688 C 226.464844 65.449219 226.0625 65.367188 225.859375 64.976562 C 225.800781 64.859375 225.78125 64.734375 225.769531 64.605469 C 225.765625 64.5625 225.769531 64.515625 225.746094 64.453125 C 225.675781 64.527344 225.605469 64.59375 225.539062 64.65625 C 225.496094 64.703125 225.445312 64.746094 225.382812 64.777344 C 225.230469 64.847656 225.039062 64.753906 225.039062 64.582031 C 225.035156 64.351562 225.078125 64.140625 225.160156 63.945312 C 225.152344 63.949219 225.140625 63.957031 225.128906 63.964844 C 225.011719 64.019531 224.882812 64.0625 224.75 64.089844 C 224.492188 64.164062 224.234375 64.207031 223.972656 64.238281 C 223.449219 64.292969 222.925781 64.296875 222.40625 64.292969 C 221.367188 64.265625 220.335938 64.183594 219.300781 64.085938 L 217.75 63.929688 C 217.234375 63.878906 216.71875 63.828125 216.199219 63.789062 C 215.683594 63.746094 215.167969 63.703125 214.652344 63.71875 C 214.390625 63.722656 214.136719 63.734375 213.878906 63.765625 C 213.753906 63.785156 213.628906 63.808594 213.503906 63.839844 C 213.476562 63.84375 213.445312 63.855469 213.417969 63.863281 C 213.386719 63.875 213.367188 63.882812 213.355469 63.894531 C 213.339844 63.90625 213.328125 63.921875 213.328125 63.929688 C 213.328125 63.929688 213.328125 63.921875 213.320312 63.921875 C 213.316406 63.921875 213.308594 63.921875 213.308594 63.941406 L 213.320312 63.980469 C 213.328125 64.003906 213.308594 64.035156 213.28125 64.039062 L 213.273438 64.039062 C 213.246094 64.039062 213.214844 64.019531 213.191406 63.992188 Z M 225.277344 64.652344 C 225.339844 64.601562 225.390625 64.574219 225.429688 64.535156 C 225.710938 64.292969 225.894531 63.980469 226.082031 63.667969 C 226.113281 63.621094 226.089844 63.589844 226.066406 63.554688 C 226.042969 63.511719 226 63.515625 225.96875 63.535156 C 225.921875 63.566406 225.871094 63.589844 225.828125 63.625 C 225.597656 63.820312 225.441406 64.058594 225.335938 64.335938 C 225.300781 64.421875 225.277344 64.519531 225.277344 64.652344 Z M 225.277344 64.652344 "/></g><path style=" stroke:none;fill-rule:nonzero;fill:#000000;fill-opacity:1;" d="M 233.265625 63.710938 C 233.277344 63.761719 233.234375 63.765625 233.210938 63.785156 C 233.046875 63.878906 232.878906 63.976562 232.707031 64.074219 C 232.375 64.273438 232.054688 64.488281 231.710938 64.675781 C 231.53125 64.78125 231.34375 64.863281 231.148438 64.9375 C 230.796875 65.066406 230.589844 64.816406 230.566406 64.539062 C 230.535156 64.210938 230.605469 63.898438 230.773438 63.609375 C 230.863281 63.457031 230.960938 63.304688 231.039062 63.113281 C 230.84375 63.179688 230.71875 63.289062 230.589844 63.402344 C 230.273438 63.675781 230 63.996094 229.710938 64.292969 C 229.675781 64.332031 229.632812 64.363281 229.59375 64.390625 C 229.492188 64.472656 229.414062 64.457031 229.332031 64.363281 C 229.261719 64.277344 229.21875 64.179688 229.210938 64.0625 C 229.199219 63.695312 229.355469 63.402344 229.605469 63.152344 C 229.652344 63.105469 229.699219 63.105469 229.757812 63.140625 C 229.886719 63.226562 229.917969 63.347656 229.816406 63.480469 C 229.710938 63.640625 229.609375 63.800781 229.53125 63.980469 C 229.503906 64.046875 229.472656 64.113281 229.46875 64.195312 C 229.5625 64.171875 229.617188 64.117188 229.667969 64.058594 C 229.964844 63.746094 230.269531 63.4375 230.589844 63.144531 C 230.679688 63.0625 230.765625 62.984375 230.875 62.921875 C 230.96875 62.867188 231.0625 62.832031 231.164062 62.914062 C 231.265625 63.007812 231.320312 63.117188 231.285156 63.253906 C 231.253906 63.359375 231.21875 63.457031 231.171875 63.554688 C 231.074219 63.742188 230.980469 63.929688 230.890625 64.125 C 230.828125 64.257812 230.777344 64.398438 230.757812 64.550781 C 230.757812 64.5625 230.757812 64.578125 230.757812 64.589844 C 230.738281 64.785156 230.78125 64.828125 230.976562 64.796875 C 231.160156 64.769531 231.332031 64.675781 231.496094 64.597656 C 231.828125 64.433594 232.136719 64.238281 232.445312 64.046875 C 232.667969 63.914062 232.898438 63.792969 233.128906 63.675781 C 233.148438 63.671875 233.171875 63.65625 233.195312 63.65625 C 233.230469 63.65625 233.253906 63.679688 233.265625 63.710938 Z M 233.265625 63.710938 "/><g clip-rule="nonzero" clip-path="url(#dc0e30cc76)"><path style=" stroke:none;fill-rule:nonzero;fill:#000000;fill-opacity:1;" d="M 234.417969 64.214844 C 234.414062 64.347656 234.417969 64.484375 234.441406 64.609375 C 234.464844 64.730469 234.511719 64.847656 234.585938 64.945312 C 234.726562 65.136719 234.976562 65.246094 235.238281 65.300781 C 235.503906 65.351562 235.789062 65.363281 236.074219 65.34375 C 236.636719 65.316406 237.207031 65.199219 237.765625 65.078125 C 238.324219 64.949219 238.882812 64.808594 239.441406 64.660156 C 240.554688 64.375 241.667969 64.0625 242.800781 63.863281 C 243.371094 63.761719 243.941406 63.691406 244.519531 63.675781 C 244.8125 63.664062 245.101562 63.675781 245.386719 63.710938 C 245.535156 63.730469 245.679688 63.761719 245.820312 63.796875 C 245.855469 63.808594 245.890625 63.816406 245.925781 63.828125 L 245.980469 63.84375 C 245.988281 63.84375 246 63.851562 246.011719 63.855469 C 246.023438 63.863281 246.035156 63.867188 246.046875 63.875 C 246.085938 63.898438 246.128906 63.9375 246.148438 63.996094 C 246.160156 64.027344 246.164062 64.070312 246.148438 64.105469 C 246.125 64.144531 246.085938 64.167969 246.058594 64.160156 C 246.027344 64.160156 246.003906 64.136719 246.011719 64.105469 L 246.011719 64.101562 L 246.015625 64.066406 C 246.023438 64.054688 246.011719 64.046875 246.003906 64.054688 C 246 64.054688 246 64.058594 246 64.054688 C 246 64.042969 245.980469 64.023438 245.964844 64.011719 C 245.957031 64.011719 245.957031 64.011719 245.953125 64.003906 C 245.945312 64.003906 245.941406 64 245.925781 64 L 245.878906 63.980469 C 245.84375 63.96875 245.816406 63.957031 245.777344 63.949219 C 245.648438 63.90625 245.507812 63.878906 245.371094 63.847656 C 245.089844 63.792969 244.804688 63.773438 244.519531 63.769531 C 243.949219 63.757812 243.375 63.835938 242.8125 63.9375 C 242.246094 64.035156 241.691406 64.164062 241.132812 64.304688 C 240.851562 64.375 240.574219 64.449219 240.292969 64.519531 L 239.464844 64.753906 C 238.355469 65.054688 237.242188 65.390625 236.085938 65.535156 C 235.800781 65.566406 235.503906 65.585938 235.203125 65.546875 C 235.054688 65.527344 234.898438 65.5 234.75 65.433594 C 234.601562 65.371094 234.460938 65.273438 234.347656 65.140625 C 234.238281 65.007812 234.167969 64.84375 234.128906 64.6875 C 234.09375 64.523438 234.085938 64.359375 234.09375 64.199219 C 234.097656 64.175781 234.097656 64.152344 234.097656 64.128906 C 233.902344 64.308594 234.039062 64.132812 233.296875 64.820312 C 233.253906 64.863281 233.207031 64.890625 233.167969 64.929688 C 233.082031 64.996094 232.988281 65.015625 232.886719 64.996094 C 232.734375 64.976562 232.675781 64.90625 232.667969 64.753906 C 232.65625 64.550781 232.714844 64.363281 232.796875 64.1875 C 232.90625 63.953125 233.046875 63.734375 233.238281 63.546875 C 233.421875 63.371094 233.636719 63.265625 233.902344 63.308594 C 233.984375 63.320312 234.0625 63.34375 234.132812 63.394531 C 234.210938 63.4375 234.21875 63.4375 234.246094 63.359375 C 234.316406 63.15625 234.394531 62.957031 234.480469 62.761719 C 234.835938 61.914062 235.296875 61.140625 235.925781 60.46875 C 236.285156 60.09375 236.644531 59.722656 237.066406 59.417969 C 237.328125 59.230469 237.605469 59.066406 237.910156 58.957031 C 238.222656 58.839844 238.53125 58.835938 238.835938 59 C 238.996094 59.089844 239.089844 59.230469 239.121094 59.40625 C 239.167969 59.625 239.15625 59.84375 239.101562 60.054688 C 239.039062 60.347656 238.902344 60.609375 238.742188 60.855469 C 238.433594 61.34375 238.046875 61.765625 237.636719 62.171875 C 237.261719 62.539062 236.871094 62.859375 236.441406 63.140625 C 236.085938 63.363281 235.71875 63.558594 235.320312 63.691406 C 235.078125 63.769531 234.828125 63.832031 234.5625 63.800781 C 234.519531 63.796875 234.492188 63.800781 234.46875 63.824219 C 234.449219 63.953125 234.421875 64.082031 234.417969 64.214844 Z M 234.066406 63.773438 C 234.050781 63.6875 234.03125 63.601562 233.972656 63.535156 C 233.914062 63.457031 233.894531 63.449219 233.804688 63.480469 C 233.726562 63.503906 233.65625 63.539062 233.59375 63.589844 C 233.324219 63.800781 233.140625 64.070312 233.011719 64.378906 C 232.964844 64.5 232.921875 64.628906 232.917969 64.761719 C 232.917969 64.785156 232.90625 64.820312 232.933594 64.832031 C 232.964844 64.851562 232.988281 64.820312 233.011719 64.804688 C 233.046875 64.773438 233.089844 64.742188 233.125 64.710938 C 233.433594 64.433594 233.714844 64.125 234.03125 63.851562 C 234.0625 63.832031 234.078125 63.808594 234.066406 63.773438 Z M 234.644531 63.695312 C 234.839844 63.6875 235.023438 63.632812 235.207031 63.566406 C 235.730469 63.382812 236.199219 63.109375 236.644531 62.789062 C 237.03125 62.515625 237.375 62.195312 237.699219 61.855469 C 238.0625 61.476562 238.375 61.070312 238.621094 60.609375 C 238.769531 60.324219 238.875 60.03125 238.875 59.710938 C 238.875 59.566406 238.863281 59.417969 238.804688 59.28125 C 238.726562 59.078125 238.550781 58.984375 238.335938 59.011719 C 238.167969 59.039062 238.019531 59.105469 237.878906 59.175781 C 237.617188 59.316406 237.375 59.484375 237.148438 59.679688 C 236.515625 60.214844 235.980469 60.839844 235.527344 61.53125 C 235.113281 62.164062 234.800781 62.84375 234.542969 63.550781 C 234.496094 63.6875 234.5 63.699219 234.644531 63.695312 Z M 234.644531 63.695312 "/></g></g></svg>