<svg xmlns="http://www.w3.org/2000/svg" xmlns:xlink="http://www.w3.org/1999/xlink" width="375" zoomAndPan="magnify" viewBox="0 0 281.25 281.249989" height="375" preserveAspectRatio="xMidYMid meet" version="1.2"><defs><clipPath id="e86f2e69f2"><path d="M 17 248 L 155 248 L 155 280.503906 L 17 280.503906 Z M 17 248 "/></clipPath></defs><g id="e70adfd105"><path style=" stroke:none;fill-rule:nonzero;fill:#000000;fill-opacity:1;" d="M 258.0625 16.429688 C 253.199219 11.574219 225.101562 21.769531 193.800781 53.015625 L 154.035156 92.707031 L 181.648438 120.269531 L 221.410156 80.574219 C 252.714844 49.328125 262.929688 21.285156 258.0625 16.429688 Z M 258.0625 16.429688 "/><path style=" stroke:none;fill-rule:nonzero;fill:#000000;fill-opacity:1;" d="M 152.980469 148.886719 L 125.371094 121.324219 L 149.453125 97.285156 L 177.0625 124.847656 Z M 152.980469 148.886719 "/><path style=" stroke:none;fill-rule:nonzero;fill:#000000;fill-opacity:1;" d="M 54.253906 224.199219 C 54.300781 224.136719 54.371094 224.105469 54.421875 224.050781 L 49.71875 219.304688 C 49.652344 219.363281 49.621094 219.445312 49.546875 219.5 C 49.21875 219.742188 41.863281 225.167969 32.148438 227.558594 C 30.675781 231.675781 28.453125 239.332031 28.601562 245.105469 C 34.402344 245.253906 42.0625 243.039062 46.183594 241.566406 C 48.574219 231.867188 54.011719 224.523438 54.253906 224.199219 Z M 54.253906 224.199219 "/><path style=" stroke:none;fill-rule:nonzero;fill:#000000;fill-opacity:1;" d="M 120.496094 181.304688 L 148.390625 153.460938 L 120.777344 125.898438 L 92.886719 153.742188 C 78.117188 168.484375 60.886719 189.867188 48.457031 208.820312 L 65.203125 225.726562 C 84.222656 213.320312 105.6875 196.089844 120.496094 181.304688 Z M 120.496094 181.304688 "/><path style=" stroke:none;fill-rule:nonzero;fill:#000000;fill-opacity:1;" d="M 88.269531 106.074219 C 123.589844 111.90625 159.863281 46.75 161.226562 44.238281 C 183.316406 11.96875 198.421875 6.011719 207.203125 6.695312 C 217.53125 7.503906 222.613281 17.863281 222.695312 18.035156 C 223.171875 19.039062 224.105469 19.632812 225.132812 19.792969 C 226.328125 19.070312 227.515625 18.382812 228.683594 17.726562 C 228.957031 16.957031 228.945312 16.082031 228.570312 15.285156 C 228.304688 14.722656 221.917969 1.398438 207.785156 0.242188 C 192.511719 -1 175.042969 12.574219 155.703125 40.851562 C 155.347656 41.488281 120.132812 104.769531 89.324219 99.679688 C 87.558594 99.390625 85.886719 100.582031 85.597656 102.347656 C 85.417969 103.417969 85.792969 104.453125 86.503906 105.164062 C 86.96875 105.636719 87.570312 105.960938 88.269531 106.074219 Z M 88.269531 106.074219 "/><g clip-rule="nonzero" clip-path="url(#e86f2e69f2)"><path style=" stroke:none;fill-rule:nonzero;fill:#000000;fill-opacity:1;" d="M 128.105469 270.023438 C 124.082031 270.101562 119.722656 270.1875 115.113281 270.277344 C 110.496094 270.335938 105.648438 270.5625 100.621094 270.714844 C 95.597656 270.886719 90.40625 271.0625 85.128906 271.242188 L 81.15625 271.378906 C 80.9375 271.390625 80.773438 271.378906 80.574219 271.382812 L 81.074219 270.957031 L 82.628906 269.691406 C 84.742188 267.886719 86.5625 266.605469 89.074219 264.199219 C 90.242188 262.96875 91.484375 261.796875 92.496094 259.3125 C 92.945312 258.0625 93.386719 256.199219 92.632812 254.046875 C 91.851562 251.980469 90.1875 250.644531 89.035156 250.085938 C 86.558594 248.882812 84.914062 248.835938 83.167969 248.679688 L 81.855469 248.644531 L 80.875 248.664062 L 78.832031 248.761719 C 68.800781 249.320312 59.449219 249.90625 51.414062 250.25 C 43.386719 250.65625 36.691406 250.9375 32.003906 251.085938 C 27.316406 251.257812 24.636719 251.359375 24.636719 251.359375 C 24.425781 251.363281 24.195312 251.382812 23.980469 251.414062 C 20.144531 251.917969 17.449219 255.429688 17.957031 259.253906 C 18.460938 263.082031 21.980469 265.773438 25.8125 265.265625 C 25.8125 265.265625 28.46875 264.917969 33.121094 264.304688 C 37.769531 263.671875 44.414062 262.828125 52.394531 261.890625 C 60.371094 260.886719 69.695312 259.90625 79.675781 258.78125 L 80.691406 258.679688 C 79.390625 259.695312 77.816406 260.855469 76.453125 261.914062 L 74.871094 263.132812 L 73.1875 264.488281 C 72.625 264.980469 71.839844 265.679688 71.25 266.335938 C 70.640625 266.980469 70.011719 267.769531 69.421875 268.699219 C 68.863281 269.757812 68.210938 270.875 68.074219 272.882812 C 67.972656 273.777344 68.1875 275 68.570312 276.046875 C 69.042969 277.085938 69.726562 278.070312 70.425781 278.640625 C 71.910156 279.957031 73.152344 280.285156 74.28125 280.636719 C 75.335938 280.878906 76.324219 281.015625 77.199219 281.042969 C 78.9375 281.148438 80.648438 280.945312 81.96875 280.765625 L 85.902344 280.226562 C 91.128906 279.511719 96.277344 278.808594 101.257812 278.128906 C 106.238281 277.429688 111.058594 276.835938 115.617188 276.113281 C 120.175781 275.421875 124.488281 274.769531 128.464844 274.167969 C 136.429688 273.007812 143.050781 271.835938 147.6875 271.089844 C 152.320312 270.28125 154.96875 269.824219 154.96875 269.824219 C 154.96875 269.824219 152.28125 269.816406 147.578125 269.804688 C 142.871094 269.855469 136.148438 269.824219 128.105469 270.023438 Z M 77 271.089844 C 76.980469 271.085938 76.945312 271.078125 76.925781 271.070312 C 76.828125 271.023438 76.773438 270.945312 77 271.089844 Z M 77 271.089844 "/></g><g style="fill:#000000;fill-opacity:1;"><g transform="translate(122.716975, 164.994078)"><path style="stroke:none" d="M 1.578125 0.0625 C 1.347656 0.0625 1.171875 0 1.046875 -0.125 C 0.921875 -0.25 0.859375 -0.414062 0.859375 -0.625 C 0.859375 -0.820312 0.921875 -0.988281 1.046875 -1.125 C 1.171875 -1.257812 1.347656 -1.328125 1.578125 -1.328125 C 1.796875 -1.328125 1.96875 -1.265625 2.09375 -1.140625 C 2.226562 -1.015625 2.296875 -0.847656 2.296875 -0.640625 C 2.296875 -0.429688 2.226562 -0.257812 2.09375 -0.125 C 1.96875 0 1.796875 0.0625 1.578125 0.0625 Z M 1.578125 0.0625 "/></g></g></g></svg>