<svg xmlns="http://www.w3.org/2000/svg" xmlns:xlink="http://www.w3.org/1999/xlink" width="375" zoomAndPan="magnify" viewBox="0 0 281.25 281.249989" height="375" preserveAspectRatio="xMidYMid meet" version="1.2"><defs><clipPath id="48b51e5ff5"><path d="M 34 250 L 187 250 L 187 280.503906 L 34 280.503906 Z M 34 250 "/></clipPath><clipPath id="b245135c2b"><path d="M 65.511719 153.292969 L 86.800781 153.292969 L 86.800781 175 L 65.511719 175 Z M 65.511719 153.292969 "/></clipPath><clipPath id="b97131f1f3"><path d="M 86.769531 160.894531 C 86.769531 167.703125 86.019531 169.496094 84.972656 170.84375 C 83.925781 172.117188 82.429688 173.3125 80.859375 173.984375 C 79.363281 174.734375 77.417969 175.035156 75.773438 174.957031 C 74.050781 174.882812 72.257812 174.285156 70.835938 173.386719 C 69.339844 172.566406 67.992188 171.144531 67.171875 169.722656 C 66.273438 168.300781 65.675781 166.429688 65.601562 164.785156 C 65.523438 163.140625 65.824219 161.195312 66.496094 159.699219 C 67.246094 158.128906 68.441406 156.632812 69.714844 155.585938 C 71.058594 154.539062 72.78125 153.789062 74.425781 153.492188 C 76.148438 153.191406 78.015625 153.265625 79.664062 153.789062 C 81.234375 154.238281 84.074219 156.484375 84.074219 156.484375 "/></clipPath><clipPath id="eb80cbfd00"><path d="M 23.441406 107.316406 L 191.914062 107.316406 L 191.914062 229 L 23.441406 229 Z M 23.441406 107.316406 "/></clipPath><clipPath id="8780123e66"><path d="M 23.488281 201.886719 C 25.207031 186.402344 26.777344 177.128906 26.777344 177.128906 C 26.777344 177.128906 26.851562 176.082031 26.929688 175.632812 C 27.003906 175.109375 27.078125 174.136719 27.078125 174.136719 C 27.152344 174.0625 27.453125 173.164062 27.675781 172.714844 C 27.824219 172.191406 28.199219 171.292969 28.199219 171.292969 C 28.199219 171.292969 28.722656 170.46875 29.023438 170.023438 C 29.320312 169.648438 29.921875 168.824219 29.921875 168.824219 C 29.921875 168.75 30.667969 168.152344 31.042969 167.777344 C 31.417969 167.476562 32.164062 166.804688 32.164062 166.804688 C 32.164062 166.804688 33.0625 166.28125 33.511719 166.058594 C 33.960938 165.832031 34.855469 165.382812 34.855469 165.382812 C 34.855469 165.382812 34.933594 165.382812 35.007812 165.382812 C 35.230469 165.160156 35.082031 162.914062 36.128906 161.941406 C 38.074219 160.148438 45.03125 158.800781 49.21875 158.726562 C 53.035156 158.652344 56.472656 160.746094 60.214844 160.894531 C 64.027344 161.046875 67.917969 159.699219 71.808594 159.625 C 75.625 159.625 79.886719 160.222656 83.179688 160.523438 C 85.648438 160.820312 87.964844 161.121094 89.609375 161.496094 C 90.734375 161.71875 91.554688 161.867188 92.230469 162.167969 C 92.679688 162.316406 93.050781 162.839844 93.277344 162.691406 C 93.800781 162.390625 92.679688 159.324219 93.726562 158.128906 C 95.519531 156.109375 103.75 154.539062 107.1875 155.0625 C 109.582031 155.359375 111.003906 158.054688 112.875 158.277344 C 114.519531 158.503906 115.714844 157.605469 117.660156 157.007812 C 120.804688 156.109375 126.261719 155.136719 130.003906 153.265625 C 133.519531 151.546875 136.660156 149.003906 139.429688 146.382812 C 142.195312 143.765625 146.011719 138.53125 146.535156 137.484375 C 146.683594 137.332031 146.683594 137.332031 146.683594 137.109375 C 146.535156 135.988281 141.148438 130.453125 140.625 126.414062 C 139.953125 121.699219 141.222656 113.171875 144.738281 110.257812 C 148.402344 107.1875 158.277344 106.589844 162.464844 108.835938 C 166.355469 111.003906 168.375 118.484375 169.648438 122.300781 C 170.46875 124.992188 169.574219 128.132812 170.621094 129.40625 C 171.367188 130.300781 172.714844 129.554688 173.835938 130.453125 C 176.304688 132.320312 179.746094 138.980469 182.289062 143.09375 C 184.683594 146.984375 187.152344 150.425781 188.722656 154.464844 C 190.292969 158.726562 192.386719 165.160156 191.714844 168.300781 C 191.265625 170.171875 189.171875 170.695312 188.722656 172.265625 C 188.273438 173.910156 189.84375 175.855469 189.394531 178.023438 C 188.722656 181.242188 185.65625 186.105469 183.035156 189.171875 C 180.644531 192.011719 177.277344 194.183594 174.585938 196.128906 C 172.265625 197.621094 169.050781 197.996094 167.925781 199.867188 C 166.953125 201.511719 168.226562 203.90625 167.851562 206.375 C 167.253906 209.664062 166.132812 214.453125 164.039062 217.746094 C 161.941406 220.960938 158.652344 224.101562 155.285156 225.898438 C 152.144531 227.617188 148.03125 228.964844 144.515625 228.589844 C 140.925781 228.214844 136.660156 225.375 133.816406 223.203125 C 131.425781 221.410156 130.226562 217.222656 128.207031 217.144531 C 125.964844 217.070312 123.792969 222.382812 120.804688 223.953125 C 117.4375 225.671875 112.949219 226.195312 108.910156 226.71875 C 104.796875 227.320312 100.53125 227.167969 96.492188 227.242188 C 92.601562 227.320312 88.9375 227.242188 85.199219 227.242188 C 81.53125 227.167969 78.015625 227.320312 74.277344 227.167969 C 70.460938 226.945312 66.574219 226.496094 62.609375 226.121094 C 58.570312 225.746094 54.378906 225.972656 50.414062 224.851562 C 46.527344 223.804688 42.933594 221.109375 39.121094 219.464844 C 35.378906 217.894531 30.367188 217.96875 27.824219 215.277344 C 24.984375 212.359375 23.488281 201.886719 23.488281 201.886719 M 54.828125 199.269531 C 63.132812 202.035156 68.816406 201.363281 73.003906 201.289062 C 76.96875 201.289062 80.636719 201.214844 84.449219 201.214844 C 88.414062 201.214844 92.453125 201.363281 96.492188 201.214844 C 100.605469 201.0625 107.863281 202.261719 108.910156 200.316406 C 109.957031 198.445312 104.644531 192.984375 103.226562 189.917969 C 102.101562 187.601562 102.175781 184.980469 100.679688 183.636719 C 99.261719 182.289062 94.699219 181.617188 94.472656 181.617188 C 94.398438 181.617188 94.472656 181.617188 94.398438 181.691406 C 94.25 181.765625 92.902344 182.589844 92.078125 182.886719 C 91.183594 183.1875 90.285156 183.410156 89.460938 183.484375 C 88.5625 183.636719 86.769531 183.484375 86.769531 183.484375 C 86.769531 183.484375 82.804688 182.8125 80.261719 182.664062 C 76.820312 182.589844 72.03125 183.035156 67.992188 183.261719 C 64.027344 183.558594 57.96875 182.140625 56.25 184.160156 C 54.679688 186.027344 57.746094 191.339844 57.296875 194.105469 C 56.921875 196.128906 54.828125 199.269531 54.828125 199.269531 M 127.460938 181.316406 C 127.683594 181.691406 127.910156 181.242188 127.910156 181.242188 C 127.835938 181.167969 127.460938 181.316406 127.460938 181.316406 "/></clipPath></defs><g id="661fbdba62"><path style=" stroke:none;fill-rule:nonzero;fill:#000000;fill-opacity:1;" d="M 266.894531 97.875 C 265.796875 97.3125 264.636719 96.914062 263.425781 96.683594 C 262.210938 96.449219 260.988281 96.390625 259.757812 96.507812 C 258.527344 96.628906 257.335938 96.914062 256.1875 97.375 C 255.042969 97.832031 253.980469 98.441406 253.007812 99.203125 L 224.605469 120.839844 L 224.605469 204.046875 L 253.019531 225.679688 C 254.003906 226.425781 255.066406 227.019531 256.214844 227.46875 C 257.363281 227.914062 258.550781 228.199219 259.777344 228.3125 C 261.003906 228.429688 262.222656 228.375 263.433594 228.148438 C 264.648438 227.921875 265.804688 227.535156 266.90625 226.988281 C 268.011719 226.4375 269.019531 225.75 269.929688 224.917969 C 270.839844 224.085938 271.621094 223.148438 272.269531 222.101562 C 272.917969 221.050781 273.410156 219.933594 273.75 218.746094 C 274.085938 217.5625 274.253906 216.351562 274.253906 215.117188 L 274.253906 109.746094 C 274.269531 108.507812 274.113281 107.292969 273.78125 106.101562 C 273.449219 104.910156 272.957031 103.785156 272.308594 102.734375 C 271.65625 101.683594 270.867188 100.746094 269.949219 99.917969 C 269.027344 99.089844 268.011719 98.410156 266.894531 97.875 Z M 266.894531 97.875 "/><g clip-rule="nonzero" clip-path="url(#48b51e5ff5)"><path style=" stroke:none;fill-rule:nonzero;fill:#000000;fill-opacity:1;" d="M 170.996094 280.503906 C 172 280.5 173 280.402344 173.988281 280.203125 C 174.976562 280.007812 175.933594 279.714844 176.867188 279.328125 C 177.796875 278.941406 178.679688 278.46875 179.515625 277.910156 C 180.355469 277.347656 181.128906 276.710938 181.84375 276 C 182.554688 275.285156 183.191406 274.507812 183.75 273.671875 C 184.3125 272.832031 184.785156 271.949219 185.171875 271.015625 C 185.558594 270.085938 185.847656 269.125 186.046875 268.136719 C 186.242188 267.148438 186.34375 266.148438 186.34375 265.140625 L 186.34375 250.898438 L 34.746094 250.898438 L 34.746094 265.140625 C 34.746094 266.148438 34.847656 267.148438 35.042969 268.136719 C 35.242188 269.128906 35.535156 270.085938 35.921875 271.019531 C 36.308594 271.953125 36.78125 272.835938 37.339844 273.675781 C 37.902344 274.515625 38.539062 275.289062 39.253906 276.003906 C 39.964844 276.714844 40.742188 277.351562 41.578125 277.914062 C 42.417969 278.472656 43.304688 278.945312 44.234375 279.332031 C 45.167969 279.71875 46.125 280.011719 47.113281 280.207031 C 48.105469 280.402344 49.101562 280.503906 50.109375 280.503906 Z M 170.996094 280.503906 "/></g><path style=" stroke:none;fill-rule:nonzero;fill:#000000;fill-opacity:1;" d="M 47.597656 175.449219 L 106.765625 175.449219 C 107.128906 175.449219 107.488281 175.484375 107.84375 175.554688 C 108.203125 175.625 108.546875 175.730469 108.882812 175.871094 C 109.21875 176.007812 109.539062 176.179688 109.839844 176.382812 C 110.140625 176.585938 110.421875 176.8125 110.679688 177.070312 C 110.9375 177.328125 111.164062 177.609375 111.367188 177.910156 C 111.570312 178.214844 111.738281 178.53125 111.878906 178.867188 C 112.015625 179.203125 112.121094 179.550781 112.195312 179.90625 C 112.265625 180.265625 112.300781 180.625 112.300781 180.988281 L 112.300781 205.667969 C 112.300781 206.035156 112.265625 206.394531 112.195312 206.75 C 112.121094 207.109375 112.015625 207.453125 111.878906 207.789062 C 111.738281 208.125 111.570312 208.445312 111.367188 208.746094 C 111.164062 209.050781 110.9375 209.328125 110.679688 209.585938 C 110.421875 209.84375 110.140625 210.074219 109.839844 210.277344 C 109.539062 210.476562 109.21875 210.648438 108.882812 210.789062 C 108.546875 210.925781 108.203125 211.03125 107.84375 211.101562 C 107.488281 211.175781 107.128906 211.210938 106.765625 211.210938 L 47.597656 211.210938 C 47.234375 211.210938 46.875 211.175781 46.519531 211.101562 C 46.160156 211.03125 45.816406 210.925781 45.480469 210.789062 C 45.144531 210.648438 44.824219 210.476562 44.523438 210.277344 C 44.222656 210.074219 43.941406 209.84375 43.683594 209.585938 C 43.425781 209.328125 43.199219 209.050781 42.996094 208.746094 C 42.792969 208.445312 42.625 208.125 42.484375 207.789062 C 42.347656 207.453125 42.242188 207.109375 42.171875 206.75 C 42.097656 206.394531 42.0625 206.035156 42.0625 205.667969 L 42.0625 180.988281 C 42.0625 180.625 42.097656 180.265625 42.171875 179.90625 C 42.242188 179.550781 42.347656 179.203125 42.484375 178.867188 C 42.625 178.53125 42.792969 178.214844 42.996094 177.910156 C 43.199219 177.609375 43.425781 177.328125 43.683594 177.070312 C 43.941406 176.8125 44.222656 176.585938 44.523438 176.382812 C 44.824219 176.179688 45.144531 176.007812 45.480469 175.871094 C 45.816406 175.730469 46.160156 175.625 46.519531 175.554688 C 46.875 175.484375 47.234375 175.449219 47.597656 175.449219 Z M 47.597656 175.449219 "/><path style=" stroke:none;fill-rule:nonzero;fill:#000000;fill-opacity:1;" d="M 191.84375 240.917969 C 192.589844 240.914062 193.332031 240.878906 194.074219 240.804688 C 194.816406 240.730469 195.554688 240.617188 196.285156 240.472656 C 197.015625 240.324219 197.738281 240.144531 198.453125 239.925781 C 199.167969 239.710938 199.867188 239.457031 200.554688 239.171875 C 201.246094 238.882812 201.917969 238.566406 202.574219 238.214844 C 203.234375 237.859375 203.871094 237.476562 204.492188 237.0625 C 205.113281 236.648438 205.710938 236.203125 206.285156 235.730469 C 206.863281 235.253906 207.414062 234.753906 207.941406 234.226562 C 208.46875 233.699219 208.972656 233.148438 209.445312 232.570312 C 209.917969 231.992188 210.363281 231.394531 210.777344 230.773438 C 211.191406 230.152344 211.574219 229.515625 211.925781 228.855469 C 212.277344 228.199219 212.597656 227.523438 212.882812 226.835938 C 213.171875 226.144531 213.421875 225.441406 213.640625 224.730469 C 213.859375 224.015625 214.039062 223.292969 214.1875 222.558594 C 214.332031 221.828125 214.445312 221.089844 214.519531 220.347656 C 214.59375 219.605469 214.632812 218.859375 214.632812 218.113281 L 214.632812 106.808594 C 214.632812 106.0625 214.59375 105.316406 214.519531 104.574219 C 214.445312 103.828125 214.335938 103.089844 214.191406 102.359375 C 214.042969 101.625 213.863281 100.902344 213.644531 100.1875 C 213.429688 99.472656 213.175781 98.769531 212.890625 98.078125 C 212.605469 97.386719 212.285156 96.710938 211.933594 96.054688 C 211.582031 95.394531 211.195312 94.753906 210.78125 94.132812 C 210.367188 93.511719 209.921875 92.910156 209.449219 92.335938 C 208.976562 91.757812 208.472656 91.203125 207.945312 90.675781 C 207.417969 90.144531 206.867188 89.644531 206.289062 89.171875 C 205.710938 88.695312 205.113281 88.25 204.492188 87.835938 C 203.871094 87.421875 203.230469 87.035156 202.574219 86.683594 C 201.914062 86.332031 201.242188 86.011719 200.550781 85.726562 C 199.863281 85.4375 199.160156 85.1875 198.445312 84.96875 C 197.730469 84.753906 197.007812 84.570312 196.277344 84.421875 C 195.542969 84.277344 194.804688 84.167969 194.0625 84.09375 C 193.320312 84.019531 192.574219 83.980469 191.828125 83.980469 L 157.601562 83.980469 C 153.238281 84.671875 148.875 84.671875 144.511719 83.980469 L 74.214844 83.980469 C 69.851562 84.671875 65.492188 84.671875 61.128906 83.980469 L 29.246094 83.980469 C 28.5 83.980469 27.753906 84.019531 27.011719 84.09375 C 26.269531 84.167969 25.53125 84.277344 24.796875 84.421875 C 24.066406 84.570312 23.34375 84.753906 22.628906 84.96875 C 21.914062 85.1875 21.210938 85.4375 20.523438 85.726562 C 19.832031 86.011719 19.160156 86.332031 18.5 86.683594 C 17.84375 87.035156 17.203125 87.421875 16.582031 87.835938 C 15.960938 88.25 15.363281 88.695312 14.785156 89.171875 C 14.207031 89.644531 13.65625 90.144531 13.128906 90.675781 C 12.601562 91.203125 12.101562 91.757812 11.625 92.335938 C 11.152344 92.910156 10.707031 93.511719 10.292969 94.132812 C 9.878906 94.753906 9.496094 95.394531 9.140625 96.054688 C 8.789062 96.710938 8.46875 97.386719 8.183594 98.078125 C 7.898438 98.769531 7.648438 99.472656 7.429688 100.1875 C 7.210938 100.902344 7.03125 101.625 6.882812 102.359375 C 6.738281 103.089844 6.628906 103.828125 6.554688 104.574219 C 6.480469 105.316406 6.441406 106.0625 6.441406 106.808594 L 6.441406 117.441406 L 113.664062 117.441406 C 113.992188 117.441406 114.316406 117.472656 114.636719 117.539062 C 114.960938 117.601562 115.269531 117.695312 115.574219 117.820312 C 115.875 117.945312 116.164062 118.101562 116.4375 118.28125 C 116.707031 118.464844 116.960938 118.671875 117.191406 118.902344 C 117.421875 119.136719 117.628906 119.386719 117.8125 119.660156 C 117.992188 119.933594 118.148438 120.21875 118.273438 120.523438 C 118.398438 120.824219 118.492188 121.136719 118.554688 121.457031 C 118.621094 121.78125 118.652344 122.105469 118.652344 122.433594 C 118.652344 122.761719 118.621094 123.085938 118.554688 123.40625 C 118.492188 123.726562 118.398438 124.039062 118.273438 124.34375 C 118.148438 124.644531 117.992188 124.933594 117.8125 125.207031 C 117.628906 125.476562 117.421875 125.730469 117.191406 125.960938 C 116.960938 126.195312 116.707031 126.402344 116.4375 126.582031 C 116.164062 126.765625 115.875 126.917969 115.574219 127.042969 C 115.269531 127.167969 114.960938 127.265625 114.636719 127.328125 C 114.316406 127.390625 113.992188 127.421875 113.664062 127.421875 L 6.441406 127.421875 L 6.441406 218.113281 C 6.441406 218.859375 6.480469 219.605469 6.554688 220.351562 C 6.628906 221.09375 6.738281 221.832031 6.882812 222.566406 C 7.03125 223.296875 7.210938 224.023438 7.429688 224.738281 C 7.648438 225.453125 7.898438 226.15625 8.183594 226.84375 C 8.46875 227.535156 8.789062 228.210938 9.140625 228.871094 C 9.496094 229.527344 9.878906 230.167969 10.292969 230.789062 C 10.707031 231.410156 11.152344 232.011719 11.625 232.589844 C 12.101562 233.167969 12.601562 233.71875 13.128906 234.25 C 13.65625 234.777344 14.207031 235.277344 14.785156 235.753906 C 15.363281 236.226562 15.960938 236.671875 16.582031 237.085938 C 17.203125 237.503906 17.84375 237.886719 18.5 238.238281 C 19.160156 238.589844 19.832031 238.910156 20.523438 239.199219 C 21.210938 239.484375 21.914062 239.734375 22.628906 239.953125 C 23.34375 240.171875 24.066406 240.351562 24.796875 240.5 C 25.53125 240.644531 26.269531 240.757812 27.011719 240.828125 C 27.753906 240.902344 28.5 240.941406 29.246094 240.941406 L 191.84375 240.941406 Z M 122.269531 205.667969 C 122.269531 206.6875 122.167969 207.699219 121.96875 208.695312 C 121.769531 209.695312 121.476562 210.667969 121.085938 211.609375 C 120.695312 212.550781 120.21875 213.441406 119.652344 214.289062 C 119.085938 215.136719 118.445312 215.921875 117.726562 216.640625 C 117.003906 217.363281 116.222656 218.003906 115.375 218.570312 C 114.53125 219.136719 113.636719 219.617188 112.695312 220.007812 C 111.757812 220.398438 110.789062 220.691406 109.789062 220.890625 C 108.792969 221.089844 107.785156 221.191406 106.765625 221.191406 L 47.617188 221.191406 C 46.601562 221.191406 45.589844 221.089844 44.59375 220.890625 C 43.59375 220.691406 42.625 220.398438 41.6875 220.007812 C 40.746094 219.617188 39.851562 219.136719 39.007812 218.570312 C 38.160156 218.003906 37.378906 217.363281 36.65625 216.640625 C 35.9375 215.921875 35.296875 215.136719 34.730469 214.289062 C 34.164062 213.441406 33.6875 212.550781 33.296875 211.609375 C 32.90625 210.667969 32.613281 209.695312 32.414062 208.695312 C 32.214844 207.699219 32.113281 206.6875 32.113281 205.667969 L 32.113281 180.992188 C 32.113281 179.972656 32.214844 178.964844 32.414062 177.964844 C 32.613281 176.964844 32.90625 175.996094 33.296875 175.054688 C 33.6875 174.113281 34.164062 173.21875 34.730469 172.371094 C 35.296875 171.523438 35.9375 170.742188 36.65625 170.019531 C 37.378906 169.300781 38.160156 168.65625 39.007812 168.089844 C 39.851562 167.523438 40.746094 167.042969 41.6875 166.652344 C 42.625 166.261719 43.59375 165.96875 44.59375 165.769531 C 45.589844 165.566406 46.597656 165.46875 47.617188 165.464844 L 106.765625 165.464844 C 107.785156 165.46875 108.792969 165.566406 109.789062 165.769531 C 110.789062 165.96875 111.757812 166.261719 112.699219 166.652344 C 113.636719 167.042969 114.53125 167.523438 115.375 168.089844 C 116.222656 168.65625 117.003906 169.300781 117.726562 170.019531 C 118.445312 170.742188 119.085938 171.523438 119.652344 172.371094 C 120.21875 173.21875 120.695312 174.113281 121.085938 175.054688 C 121.476562 175.996094 121.769531 176.964844 121.96875 177.964844 C 122.167969 178.964844 122.269531 179.972656 122.269531 180.992188 Z M 158.042969 127.421875 L 151.0625 127.421875 C 150.734375 127.421875 150.410156 127.390625 150.089844 127.328125 C 149.769531 127.265625 149.457031 127.167969 149.15625 127.042969 C 148.851562 126.917969 148.566406 126.765625 148.292969 126.582031 C 148.019531 126.402344 147.769531 126.195312 147.535156 125.960938 C 147.304688 125.730469 147.097656 125.476562 146.917969 125.207031 C 146.734375 124.933594 146.582031 124.644531 146.457031 124.34375 C 146.332031 124.039062 146.238281 123.726562 146.171875 123.40625 C 146.109375 123.085938 146.078125 122.761719 146.078125 122.433594 C 146.078125 122.105469 146.109375 121.78125 146.171875 121.457031 C 146.238281 121.136719 146.332031 120.824219 146.457031 120.523438 C 146.582031 120.21875 146.734375 119.933594 146.917969 119.660156 C 147.097656 119.386719 147.304688 119.136719 147.535156 118.902344 C 147.769531 118.671875 148.019531 118.464844 148.292969 118.28125 C 148.566406 118.101562 148.851562 117.945312 149.15625 117.820312 C 149.457031 117.695312 149.769531 117.601562 150.089844 117.539062 C 150.410156 117.472656 150.734375 117.441406 151.0625 117.441406 L 158.042969 117.441406 C 158.371094 117.441406 158.695312 117.472656 159.015625 117.539062 C 159.335938 117.601562 159.648438 117.695312 159.949219 117.820312 C 160.253906 117.945312 160.539062 118.101562 160.8125 118.28125 C 161.082031 118.464844 161.335938 118.671875 161.566406 118.902344 C 161.796875 119.136719 162.003906 119.386719 162.1875 119.660156 C 162.367188 119.933594 162.523438 120.21875 162.648438 120.523438 C 162.773438 120.824219 162.867188 121.136719 162.933594 121.457031 C 162.996094 121.78125 163.027344 122.105469 163.027344 122.433594 C 163.027344 122.761719 162.996094 123.085938 162.933594 123.40625 C 162.867188 123.726562 162.773438 124.039062 162.648438 124.34375 C 162.523438 124.644531 162.367188 124.933594 162.1875 125.207031 C 162.003906 125.476562 161.796875 125.730469 161.566406 125.960938 C 161.335938 126.195312 161.082031 126.402344 160.8125 126.582031 C 160.539062 126.765625 160.253906 126.917969 159.949219 127.042969 C 159.648438 127.167969 159.335938 127.265625 159.015625 127.328125 C 158.695312 127.390625 158.371094 127.421875 158.042969 127.421875 Z M 158.042969 127.421875 "/><path style=" stroke:none;fill-rule:nonzero;fill:#000000;fill-opacity:1;" d="M 109.363281 58.640625 C 106.363281 64.628906 102.273438 69.742188 97.09375 73.984375 L 121.632812 73.984375 C 116.453125 69.742188 112.363281 64.628906 109.363281 58.640625 Z M 109.363281 58.640625 "/><path style=" stroke:none;fill-rule:nonzero;fill:#000000;fill-opacity:1;" d="M 145.195312 73.984375 L 156.921875 73.984375 C 157.671875 73.863281 158.417969 73.71875 159.15625 73.550781 C 159.898438 73.382812 160.636719 73.191406 161.363281 72.976562 C 162.09375 72.761719 162.816406 72.527344 163.53125 72.269531 C 164.246094 72.011719 164.953125 71.730469 165.648438 71.425781 C 166.347656 71.125 167.035156 70.800781 167.710938 70.453125 C 168.390625 70.109375 169.054688 69.742188 169.710938 69.355469 C 170.367188 68.96875 171.007812 68.5625 171.636719 68.136719 C 172.265625 67.710938 172.882812 67.265625 173.484375 66.800781 C 174.085938 66.335938 174.671875 65.851562 175.246094 65.347656 C 175.816406 64.847656 176.371094 64.328125 176.914062 63.792969 C 177.453125 63.257812 177.972656 62.703125 178.480469 62.136719 C 178.984375 61.566406 179.472656 60.984375 179.941406 60.386719 C 180.410156 59.785156 180.859375 59.171875 181.292969 58.546875 C 181.722656 57.917969 182.132812 57.28125 182.527344 56.628906 C 182.917969 55.976562 183.289062 55.3125 183.636719 54.636719 C 183.988281 53.960938 184.316406 53.273438 184.625 52.578125 C 184.933594 51.882812 185.21875 51.179688 185.484375 50.464844 C 185.746094 49.75 185.988281 49.027344 186.207031 48.300781 C 186.425781 47.570312 186.621094 46.835938 186.796875 46.097656 C 186.96875 45.355469 187.121094 44.609375 187.246094 43.859375 C 187.375 43.109375 187.480469 42.355469 187.558594 41.597656 C 187.640625 40.839844 187.695312 40.082031 187.730469 39.324219 C 187.761719 38.5625 187.773438 37.800781 187.757812 37.039062 C 187.746094 36.28125 187.707031 35.519531 187.648438 34.761719 C 187.585938 34.003906 187.503906 33.246094 187.394531 32.492188 C 187.285156 31.738281 187.15625 30.992188 187 30.246094 C 186.847656 29.5 186.667969 28.761719 186.46875 28.027344 C 186.269531 27.292969 186.046875 26.566406 185.800781 25.84375 C 185.554688 25.125 185.289062 24.414062 185 23.707031 C 184.710938 23.003906 184.398438 22.3125 184.066406 21.625 C 183.734375 20.941406 183.378906 20.269531 183.003906 19.605469 C 182.628906 18.945312 182.234375 18.292969 181.820312 17.65625 C 181.40625 17.019531 180.972656 16.394531 180.519531 15.78125 C 180.066406 15.171875 179.59375 14.578125 179.101562 13.996094 C 178.613281 13.414062 178.105469 12.847656 177.578125 12.296875 C 177.054688 11.746094 176.511719 11.214844 175.953125 10.699219 C 175.394531 10.183594 174.820312 9.683594 174.230469 9.203125 C 173.640625 8.722656 173.035156 8.261719 172.417969 7.820312 C 171.800781 7.375 171.167969 6.953125 170.523438 6.550781 C 169.878906 6.144531 169.222656 5.761719 168.554688 5.398438 C 167.886719 5.035156 167.207031 4.695312 166.519531 4.375 C 165.828125 4.054688 165.128906 3.753906 164.421875 3.476562 C 163.714844 3.199219 163 2.945312 162.273438 2.714844 C 161.550781 2.480469 160.820312 2.269531 160.082031 2.085938 C 159.347656 1.898438 158.605469 1.734375 157.855469 1.59375 C 157.109375 1.449219 156.359375 1.332031 155.605469 1.238281 C 154.851562 1.144531 154.09375 1.074219 153.335938 1.027344 C 152.578125 0.980469 151.816406 0.957031 151.058594 0.957031 C 150.296875 0.957031 149.539062 0.980469 148.777344 1.027344 C 148.019531 1.074219 147.261719 1.144531 146.507812 1.238281 C 145.753906 1.332031 145.003906 1.449219 144.257812 1.59375 C 143.511719 1.734375 142.769531 1.898438 142.03125 2.085938 C 141.292969 2.269531 140.5625 2.480469 139.839844 2.714844 C 139.117188 2.945312 138.398438 3.199219 137.691406 3.476562 C 136.984375 3.753906 136.285156 4.054688 135.597656 4.375 C 134.90625 4.695312 134.226562 5.035156 133.558594 5.398438 C 132.890625 5.761719 132.234375 6.144531 131.589844 6.550781 C 130.945312 6.953125 130.3125 7.375 129.695312 7.820312 C 129.078125 8.261719 128.472656 8.722656 127.882812 9.203125 C 127.292969 9.683594 126.71875 10.183594 126.160156 10.699219 C 125.601562 11.214844 125.0625 11.746094 124.535156 12.296875 C 124.011719 12.847656 123.5 13.414062 123.011719 13.996094 C 122.519531 14.578125 122.050781 15.171875 121.59375 15.78125 C 121.140625 16.394531 120.707031 17.019531 120.292969 17.65625 C 119.878906 18.292969 119.484375 18.945312 119.109375 19.605469 C 118.734375 20.269531 118.382812 20.941406 118.050781 21.625 C 117.714844 22.3125 117.40625 23.003906 117.117188 23.707031 C 116.824219 24.414062 116.558594 25.125 116.3125 25.84375 C 116.066406 26.566406 115.84375 27.292969 115.644531 28.027344 C 115.445312 28.761719 115.265625 29.5 115.113281 30.246094 C 114.957031 30.992188 114.828125 31.738281 114.71875 32.492188 C 114.613281 33.246094 114.527344 34.003906 114.464844 34.761719 C 114.40625 35.519531 114.367188 36.28125 114.355469 37.039062 C 114.339844 37.800781 114.351562 38.5625 114.382812 39.324219 C 114.417969 40.082031 114.476562 40.839844 114.554688 41.597656 C 114.636719 42.355469 114.738281 43.109375 114.867188 43.859375 C 114.996094 44.609375 115.144531 45.355469 115.316406 46.097656 C 115.492188 46.835938 115.6875 47.570312 115.90625 48.300781 C 116.125 49.027344 116.367188 49.75 116.632812 50.464844 C 116.894531 51.179688 117.183594 51.882812 117.488281 52.578125 C 117.796875 53.273438 118.125 53.960938 118.476562 54.636719 C 118.828125 55.3125 119.195312 55.976562 119.589844 56.628906 C 119.980469 57.28125 120.390625 57.917969 120.824219 58.546875 C 121.253906 59.171875 121.703125 59.785156 122.171875 60.386719 C 122.640625 60.984375 123.128906 61.566406 123.632812 62.136719 C 124.140625 62.703125 124.664062 63.257812 125.203125 63.792969 C 125.742188 64.328125 126.296875 64.847656 126.871094 65.347656 C 127.441406 65.851562 128.027344 66.335938 128.628906 66.800781 C 129.230469 67.265625 129.847656 67.710938 130.476562 68.136719 C 131.105469 68.5625 131.75 68.96875 132.402344 69.355469 C 133.058594 69.742188 133.722656 70.109375 134.402344 70.453125 C 135.078125 70.800781 135.765625 71.125 136.464844 71.425781 C 137.160156 71.730469 137.867188 72.011719 138.582031 72.269531 C 139.296875 72.527344 140.019531 72.761719 140.75 72.976562 C 141.480469 73.191406 142.214844 73.382812 142.957031 73.550781 C 143.699219 73.71875 144.445312 73.863281 145.195312 73.984375 Z M 145.195312 73.984375 "/><path style=" stroke:none;fill-rule:nonzero;fill:#000000;fill-opacity:1;" d="M 30.964844 37.746094 C 30.96875 38.828125 31.015625 39.90625 31.113281 40.980469 C 31.210938 42.054688 31.355469 43.125 31.542969 44.1875 C 31.734375 45.25 31.972656 46.300781 32.253906 47.339844 C 32.539062 48.382812 32.867188 49.410156 33.238281 50.421875 C 33.613281 51.433594 34.03125 52.429688 34.492188 53.40625 C 34.953125 54.382812 35.453125 55.335938 36 56.265625 C 36.542969 57.199219 37.128906 58.105469 37.753906 58.984375 C 38.378906 59.863281 39.039062 60.714844 39.738281 61.535156 C 40.4375 62.359375 41.171875 63.148438 41.941406 63.902344 C 42.710938 64.660156 43.511719 65.382812 44.34375 66.070312 C 45.175781 66.753906 46.035156 67.402344 46.925781 68.011719 C 47.8125 68.625 48.726562 69.195312 49.667969 69.722656 C 50.605469 70.253906 51.566406 70.742188 52.550781 71.1875 C 53.53125 71.632812 54.53125 72.03125 55.550781 72.390625 C 56.566406 72.746094 57.597656 73.058594 58.644531 73.324219 C 59.6875 73.589844 60.742188 73.808594 61.804688 73.984375 L 73.542969 73.984375 C 74.6875 73.796875 75.820312 73.558594 76.945312 73.261719 C 78.066406 72.96875 79.175781 72.621094 80.265625 72.222656 C 81.355469 71.824219 82.421875 71.375 83.46875 70.875 C 84.515625 70.371094 85.539062 69.824219 86.535156 69.226562 C 87.527344 68.628906 88.492188 67.984375 89.429688 67.296875 C 90.363281 66.605469 91.261719 65.875 92.125 65.097656 C 92.992188 64.324219 93.816406 63.507812 94.605469 62.65625 C 95.394531 61.804688 96.136719 60.914062 96.839844 59.988281 C 97.546875 59.066406 98.203125 58.109375 98.816406 57.125 C 99.429688 56.136719 99.992188 55.125 100.511719 54.082031 C 101.027344 53.042969 101.492188 51.980469 101.910156 50.894531 C 102.324219 49.8125 102.691406 48.707031 103 47.589844 C 103.3125 46.46875 103.570312 45.339844 103.773438 44.195312 C 103.980469 43.050781 104.128906 41.898438 104.222656 40.742188 C 104.320312 39.585938 104.359375 38.425781 104.34375 37.261719 C 104.332031 36.101562 104.261719 34.941406 104.136719 33.785156 C 104.011719 32.632812 103.832031 31.484375 103.597656 30.347656 C 103.367188 29.207031 103.078125 28.085938 102.738281 26.972656 C 102.398438 25.863281 102.007812 24.769531 101.566406 23.695312 C 101.121094 22.621094 100.628906 21.570312 100.085938 20.546875 C 99.542969 19.519531 98.953125 18.519531 98.3125 17.546875 C 97.675781 16.578125 96.992188 15.640625 96.265625 14.734375 C 95.539062 13.828125 94.773438 12.957031 93.964844 12.125 C 93.15625 11.292969 92.308594 10.5 91.425781 9.746094 C 90.539062 8.992188 89.621094 8.285156 88.671875 7.621094 C 87.71875 6.953125 86.738281 6.335938 85.726562 5.761719 C 84.71875 5.191406 83.683594 4.667969 82.625 4.195312 C 81.5625 3.71875 80.484375 3.296875 79.382812 2.925781 C 78.285156 2.554688 77.171875 2.234375 76.039062 1.96875 C 74.910156 1.703125 73.769531 1.492188 72.621094 1.335938 C 71.46875 1.179688 70.316406 1.078125 69.15625 1.03125 C 67.996094 0.984375 66.835938 0.988281 65.679688 1.054688 C 64.519531 1.117188 63.367188 1.234375 62.21875 1.40625 C 61.070312 1.578125 59.933594 1.804688 58.808594 2.085938 C 57.679688 2.363281 56.570312 2.699219 55.476562 3.082031 C 54.378906 3.46875 53.308594 3.90625 52.253906 4.394531 C 51.199219 4.882812 50.171875 5.417969 49.167969 6.003906 C 48.167969 6.589844 47.195312 7.222656 46.253906 7.898438 C 45.308594 8.578125 44.402344 9.300781 43.527344 10.0625 C 42.652344 10.828125 41.816406 11.632812 41.019531 12.476562 C 40.222656 13.320312 39.464844 14.199219 38.75 15.113281 C 38.035156 16.03125 37.367188 16.976562 36.742188 17.957031 C 36.117188 18.933594 35.539062 19.941406 35.007812 20.976562 C 34.480469 22.007812 34 23.066406 33.570312 24.144531 C 33.144531 25.226562 32.765625 26.324219 32.441406 27.4375 C 32.113281 28.554688 31.84375 29.683594 31.625 30.824219 C 31.40625 31.964844 31.242188 33.113281 31.132812 34.269531 C 31.023438 35.425781 30.96875 36.585938 30.972656 37.746094 Z M 30.964844 37.746094 "/><g style="fill:#000000;fill-opacity:1;"><g transform="translate(122.716975, 164.994078)"><path style="stroke:none" d="M 1.578125 0.0625 C 1.347656 0.0625 1.171875 0 1.046875 -0.125 C 0.921875 -0.25 0.859375 -0.414062 0.859375 -0.625 C 0.859375 -0.820312 0.921875 -0.988281 1.046875 -1.125 C 1.171875 -1.257812 1.347656 -1.328125 1.578125 -1.328125 C 1.796875 -1.328125 1.96875 -1.265625 2.09375 -1.140625 C 2.226562 -1.015625 2.296875 -0.847656 2.296875 -0.640625 C 2.296875 -0.429688 2.226562 -0.257812 2.09375 -0.125 C 1.96875 0 1.796875 0.0625 1.578125 0.0625 Z M 1.578125 0.0625 "/></g></g><g clip-rule="nonzero" clip-path="url(#b245135c2b)"><g clip-rule="nonzero" clip-path="url(#b97131f1f3)"><path style=" stroke:none;fill-rule:nonzero;fill:#000000;fill-opacity:1;" d="M 62.609375 150.5 L 90.132812 150.5 L 90.132812 178.023438 L 62.609375 178.023438 Z M 62.609375 150.5 "/></g></g><g clip-rule="nonzero" clip-path="url(#eb80cbfd00)"><g clip-rule="nonzero" clip-path="url(#8780123e66)"><path style=" stroke:none;fill-rule:nonzero;fill:#000000;fill-opacity:1;" d="M 20.496094 105.84375 L 194.859375 105.84375 L 194.859375 231.582031 L 20.496094 231.582031 Z M 20.496094 105.84375 "/></g></g></g></svg>