<svg xmlns="http://www.w3.org/2000/svg" xmlns:xlink="http://www.w3.org/1999/xlink" width="500" zoomAndPan="magnify" viewBox="0 0 375 374.999991" height="500" preserveAspectRatio="xMidYMid meet" version="1.2"><defs><clipPath id="8c6d9c38eb"><path d="M 162.523438 138 L 179 138 L 179 141 L 162.523438 141 Z M 162.523438 138 "/></clipPath><clipPath id="bb7f57631f"><path d="M 182 134.328125 L 195.523438 134.328125 L 195.523438 141.078125 L 182 141.078125 Z M 182 134.328125 "/></clipPath></defs><g id="7d5821c926"><g clip-rule="nonzero" clip-path="url(#8c6d9c38eb)"><path style=" stroke:none;fill-rule:nonzero;fill:#000000;fill-opacity:1;" d="M 162.550781 139.484375 C 162.527344 139.453125 162.527344 139.410156 162.535156 139.378906 C 162.550781 139.324219 162.585938 139.28125 162.621094 139.257812 C 162.660156 139.226562 162.707031 139.214844 162.734375 139.203125 C 162.765625 139.199219 162.800781 139.183594 162.832031 139.179688 C 162.960938 139.148438 163.097656 139.128906 163.226562 139.125 C 163.488281 139.105469 163.75 139.105469 164.011719 139.117188 C 164.527344 139.144531 165.050781 139.167969 165.566406 139.210938 C 166.082031 139.25 166.597656 139.300781 167.117188 139.34375 C 167.632812 139.390625 168.148438 139.433594 168.664062 139.476562 C 169.183594 139.519531 169.699219 139.554688 170.214844 139.578125 C 170.730469 139.609375 171.253906 139.621094 171.769531 139.621094 C 172.027344 139.613281 172.285156 139.609375 172.542969 139.589844 C 172.796875 139.570312 173.050781 139.554688 173.308594 139.519531 C 173.5625 139.480469 173.8125 139.4375 174.054688 139.371094 C 174.179688 139.339844 174.300781 139.300781 174.417969 139.261719 L 174.691406 139.164062 C 174.78125 139.0625 174.886719 138.964844 175.015625 138.886719 C 175.195312 138.769531 175.375 138.796875 175.550781 138.898438 C 175.601562 138.929688 175.636719 138.964844 175.699219 138.941406 C 175.734375 138.929688 175.769531 138.953125 175.808594 138.96875 C 175.933594 139.03125 175.945312 139.074219 175.878906 139.199219 C 175.789062 139.359375 175.6875 139.511719 175.621094 139.679688 C 175.539062 139.886719 175.5 140.09375 175.503906 140.3125 C 175.503906 140.410156 175.523438 140.5 175.558594 140.585938 C 175.59375 140.671875 175.652344 140.707031 175.742188 140.710938 C 175.917969 140.710938 176.074219 140.644531 176.226562 140.566406 C 176.828125 140.269531 178.65625 138.988281 178.859375 139.21875 C 178.863281 139.226562 178.863281 139.238281 178.867188 139.261719 C 178.125 139.351562 176.84375 140.5 176.164062 140.796875 C 175.824219 140.941406 175.421875 140.859375 175.21875 140.46875 C 175.160156 140.351562 175.140625 140.226562 175.128906 140.097656 C 175.125 140.054688 175.128906 140.007812 175.105469 139.945312 C 175.035156 140.019531 174.964844 140.085938 174.898438 140.148438 C 174.859375 140.195312 174.804688 140.238281 174.746094 140.269531 C 174.589844 140.339844 174.402344 140.246094 174.402344 140.074219 C 174.394531 139.84375 174.4375 139.632812 174.519531 139.4375 C 174.515625 139.445312 174.5 139.449219 174.488281 139.457031 C 174.371094 139.511719 174.242188 139.554688 174.109375 139.582031 C 173.855469 139.65625 173.59375 139.699219 173.332031 139.730469 C 172.808594 139.785156 172.289062 139.789062 171.765625 139.785156 C 170.726562 139.761719 169.695312 139.675781 168.660156 139.578125 L 167.109375 139.421875 C 166.59375 139.371094 166.078125 139.320312 165.5625 139.28125 C 165.042969 139.238281 164.527344 139.195312 164.011719 139.210938 C 163.75 139.214844 163.496094 139.226562 163.238281 139.257812 C 163.113281 139.277344 162.992188 139.300781 162.863281 139.332031 C 162.835938 139.335938 162.804688 139.347656 162.777344 139.355469 C 162.746094 139.367188 162.726562 139.375 162.714844 139.386719 C 162.699219 139.398438 162.6875 139.417969 162.6875 139.421875 C 162.6875 139.421875 162.6875 139.417969 162.679688 139.417969 C 162.675781 139.417969 162.667969 139.417969 162.667969 139.433594 L 162.679688 139.472656 C 162.6875 139.496094 162.667969 139.527344 162.640625 139.53125 L 162.636719 139.53125 C 162.605469 139.53125 162.574219 139.511719 162.550781 139.484375 Z M 174.636719 140.144531 C 174.703125 140.097656 174.75 140.066406 174.789062 140.027344 C 175.070312 139.785156 175.253906 139.472656 175.445312 139.160156 C 175.472656 139.113281 175.449219 139.082031 175.425781 139.046875 C 175.402344 139.003906 175.359375 139.007812 175.332031 139.027344 C 175.28125 139.058594 175.230469 139.082031 175.1875 139.117188 C 174.957031 139.3125 174.800781 139.550781 174.695312 139.828125 C 174.660156 139.914062 174.636719 140.011719 174.636719 140.144531 Z M 174.636719 140.144531 "/></g><path style=" stroke:none;fill-rule:nonzero;fill:#000000;fill-opacity:1;" d="M 182.625 139.203125 C 182.636719 139.253906 182.597656 139.257812 182.570312 139.277344 C 182.40625 139.371094 182.238281 139.46875 182.066406 139.566406 C 181.734375 139.769531 181.414062 139.980469 181.070312 140.167969 C 180.890625 140.273438 180.703125 140.355469 180.507812 140.429688 C 180.15625 140.558594 179.949219 140.308594 179.925781 140.03125 C 179.894531 139.703125 179.964844 139.390625 180.132812 139.101562 C 180.222656 138.949219 180.324219 138.796875 180.398438 138.605469 C 180.203125 138.671875 180.078125 138.78125 179.949219 138.894531 C 179.632812 139.167969 179.359375 139.488281 179.070312 139.789062 C 179.035156 139.824219 178.992188 139.855469 178.953125 139.882812 C 178.851562 139.964844 178.773438 139.949219 178.691406 139.855469 C 178.621094 139.769531 178.578125 139.671875 178.570312 139.554688 C 178.5625 139.1875 178.714844 138.894531 178.964844 138.644531 C 179.011719 138.597656 179.058594 138.597656 179.117188 138.632812 C 179.25 138.71875 179.277344 138.839844 179.175781 138.972656 C 179.070312 139.132812 178.96875 139.292969 178.890625 139.472656 C 178.863281 139.539062 178.832031 139.605469 178.828125 139.6875 C 178.921875 139.664062 178.976562 139.609375 179.027344 139.550781 C 179.324219 139.238281 179.628906 138.929688 179.949219 138.636719 C 180.039062 138.554688 180.128906 138.476562 180.234375 138.414062 C 180.328125 138.359375 180.421875 138.324219 180.523438 138.410156 C 180.625 138.5 180.679688 138.609375 180.644531 138.75 C 180.613281 138.851562 180.578125 138.949219 180.53125 139.046875 C 180.4375 139.234375 180.339844 139.421875 180.25 139.617188 C 180.1875 139.75 180.140625 139.890625 180.117188 140.042969 C 180.117188 140.054688 180.117188 140.074219 180.117188 140.085938 C 180.097656 140.277344 180.140625 140.320312 180.335938 140.289062 C 180.519531 140.261719 180.691406 140.167969 180.855469 140.089844 C 181.1875 139.925781 181.496094 139.734375 181.808594 139.539062 C 182.027344 139.40625 182.257812 139.285156 182.488281 139.167969 C 182.507812 139.164062 182.53125 139.148438 182.554688 139.148438 C 182.589844 139.148438 182.613281 139.171875 182.625 139.203125 Z M 182.625 139.203125 "/><g clip-rule="nonzero" clip-path="url(#bb7f57631f)"><path style=" stroke:none;fill-rule:nonzero;fill:#000000;fill-opacity:1;" d="M 183.777344 139.707031 C 183.773438 139.839844 183.777344 139.976562 183.800781 140.101562 C 183.824219 140.222656 183.871094 140.339844 183.945312 140.4375 C 184.085938 140.628906 184.335938 140.738281 184.597656 140.796875 C 184.863281 140.84375 185.148438 140.855469 185.433594 140.835938 C 186 140.808594 186.570312 140.691406 187.125 140.570312 C 187.683594 140.441406 188.242188 140.300781 188.800781 140.152344 C 189.917969 139.867188 191.027344 139.554688 192.160156 139.355469 C 192.730469 139.253906 193.300781 139.183594 193.882812 139.167969 C 194.171875 139.15625 194.460938 139.167969 194.746094 139.203125 C 194.894531 139.222656 195.039062 139.253906 195.179688 139.289062 C 195.214844 139.300781 195.25 139.308594 195.289062 139.320312 L 195.339844 139.335938 C 195.347656 139.335938 195.359375 139.34375 195.371094 139.347656 C 195.382812 139.355469 195.394531 139.359375 195.40625 139.367188 C 195.449219 139.390625 195.488281 139.429688 195.507812 139.488281 C 195.519531 139.519531 195.523438 139.5625 195.507812 139.597656 C 195.484375 139.636719 195.449219 139.660156 195.417969 139.652344 C 195.386719 139.652344 195.363281 139.628906 195.371094 139.597656 L 195.371094 139.59375 L 195.375 139.558594 C 195.382812 139.546875 195.371094 139.539062 195.363281 139.546875 C 195.359375 139.546875 195.359375 139.550781 195.359375 139.546875 C 195.359375 139.535156 195.339844 139.515625 195.324219 139.503906 C 195.316406 139.503906 195.316406 139.503906 195.3125 139.496094 C 195.304688 139.496094 195.300781 139.492188 195.289062 139.492188 L 195.238281 139.472656 C 195.203125 139.460938 195.175781 139.449219 195.140625 139.441406 C 195.007812 139.402344 194.867188 139.371094 194.730469 139.339844 C 194.449219 139.285156 194.164062 139.265625 193.882812 139.261719 C 193.3125 139.25 192.734375 139.328125 192.171875 139.429688 C 191.609375 139.527344 191.050781 139.65625 190.492188 139.796875 C 190.214844 139.867188 189.933594 139.941406 189.65625 140.011719 L 188.824219 140.246094 C 187.714844 140.546875 186.605469 140.882812 185.445312 141.027344 C 185.160156 141.058594 184.863281 141.078125 184.5625 141.039062 C 184.414062 141.019531 184.257812 140.992188 184.109375 140.925781 C 183.960938 140.863281 183.820312 140.765625 183.707031 140.632812 C 183.601562 140.5 183.527344 140.335938 183.488281 140.179688 C 183.453125 140.015625 183.445312 139.851562 183.453125 139.691406 C 183.457031 139.667969 183.457031 139.644531 183.457031 139.621094 C 183.261719 139.800781 183.398438 139.625 182.65625 140.3125 C 182.617188 140.355469 182.566406 140.382812 182.527344 140.421875 C 182.441406 140.488281 182.347656 140.507812 182.246094 140.488281 C 182.09375 140.46875 182.035156 140.398438 182.027344 140.246094 C 182.015625 140.042969 182.078125 139.855469 182.160156 139.679688 C 182.265625 139.445312 182.40625 139.226562 182.597656 139.039062 C 182.78125 138.863281 182.996094 138.757812 183.261719 138.800781 C 183.347656 138.8125 183.421875 138.835938 183.496094 138.886719 C 183.570312 138.929688 183.578125 138.929688 183.609375 138.851562 C 183.679688 138.648438 183.757812 138.449219 183.839844 138.253906 C 184.195312 137.40625 184.65625 136.632812 185.289062 135.960938 C 185.644531 135.585938 186.003906 135.214844 186.425781 134.910156 C 186.6875 134.722656 186.96875 134.558594 187.269531 134.449219 C 187.585938 134.335938 187.894531 134.328125 188.195312 134.492188 C 188.355469 134.582031 188.449219 134.722656 188.480469 134.898438 C 188.527344 135.117188 188.515625 135.335938 188.460938 135.546875 C 188.398438 135.839844 188.261719 136.101562 188.101562 136.347656 C 187.792969 136.835938 187.40625 137.257812 186.996094 137.664062 C 186.621094 138.03125 186.230469 138.351562 185.804688 138.632812 C 185.445312 138.855469 185.078125 139.050781 184.683594 139.183594 C 184.4375 139.261719 184.191406 139.324219 183.921875 139.292969 C 183.882812 139.289062 183.851562 139.292969 183.828125 139.316406 C 183.808594 139.445312 183.785156 139.574219 183.777344 139.707031 Z M 183.425781 139.265625 C 183.410156 139.179688 183.390625 139.09375 183.332031 139.027344 C 183.273438 138.949219 183.253906 138.941406 183.164062 138.972656 C 183.089844 138.996094 183.015625 139.03125 182.953125 139.082031 C 182.683594 139.292969 182.5 139.5625 182.371094 139.871094 C 182.324219 139.992188 182.28125 140.121094 182.277344 140.253906 C 182.277344 140.277344 182.265625 140.3125 182.292969 140.324219 C 182.324219 140.34375 182.347656 140.3125 182.371094 140.296875 C 182.40625 140.265625 182.449219 140.234375 182.484375 140.203125 C 182.792969 139.925781 183.074219 139.617188 183.394531 139.34375 C 183.421875 139.324219 183.441406 139.300781 183.425781 139.265625 Z M 184.003906 139.1875 C 184.199219 139.179688 184.382812 139.125 184.566406 139.058594 C 185.089844 138.875 185.558594 138.601562 186.003906 138.28125 C 186.390625 138.007812 186.734375 137.6875 187.058594 137.347656 C 187.421875 136.96875 187.738281 136.5625 187.980469 136.101562 C 188.128906 135.816406 188.234375 135.523438 188.234375 135.203125 C 188.234375 135.058594 188.222656 134.910156 188.164062 134.773438 C 188.085938 134.570312 187.910156 134.476562 187.695312 134.503906 C 187.527344 134.53125 187.378906 134.597656 187.238281 134.667969 C 186.976562 134.808594 186.734375 134.976562 186.507812 135.171875 C 185.875 135.707031 185.339844 136.332031 184.890625 137.023438 C 184.472656 137.65625 184.160156 138.335938 183.902344 139.042969 C 183.855469 139.179688 183.859375 139.191406 184.003906 139.1875 Z M 184.003906 139.1875 "/></g><path style=" stroke:none;fill-rule:nonzero;fill:#000000;fill-opacity:1;" d="M 357.296875 130.851562 C 356.5625 130.472656 355.804688 130.152344 355.027344 129.886719 C 354.25 129.617188 353.457031 129.40625 352.648438 129.253906 C 351.839844 129.097656 351.023438 129 350.203125 128.964844 C 349.378906 128.925781 348.558594 128.945312 347.738281 129.023438 C 346.917969 129.101562 346.109375 129.238281 345.308594 129.429688 C 344.507812 129.625 343.726562 129.871094 342.960938 130.175781 C 342.195312 130.480469 341.457031 130.839844 340.742188 131.25 C 340.03125 131.660156 339.347656 132.117188 338.699219 132.625 L 300.675781 161.550781 L 300.675781 272.789062 L 338.71875 301.707031 C 340.035156 302.703125 341.460938 303.5 342.996094 304.101562 C 344.535156 304.699219 346.125 305.074219 347.765625 305.230469 C 349.410156 305.382812 351.039062 305.308594 352.664062 305.007812 C 354.285156 304.707031 355.832031 304.191406 357.3125 303.457031 C 358.789062 302.722656 360.136719 301.800781 361.355469 300.691406 C 362.574219 299.582031 363.621094 298.324219 364.488281 296.921875 C 365.359375 295.519531 366.019531 294.027344 366.46875 292.441406 C 366.921875 290.855469 367.148438 289.238281 367.144531 287.589844 L 367.144531 146.71875 C 367.15625 145.894531 367.109375 145.074219 367.003906 144.257812 C 366.898438 143.441406 366.734375 142.636719 366.511719 141.84375 C 366.292969 141.050781 366.015625 140.277344 365.6875 139.523438 C 365.355469 138.769531 364.972656 138.042969 364.539062 137.34375 C 364.105469 136.644531 363.621094 135.980469 363.09375 135.351562 C 362.566406 134.71875 361.996094 134.128906 361.382812 133.578125 C 360.769531 133.03125 360.121094 132.527344 359.433594 132.070312 C 358.75 131.613281 358.039062 131.207031 357.296875 130.851562 Z M 357.296875 130.851562 "/><path style=" stroke:none;fill-rule:nonzero;fill:#000000;fill-opacity:1;" d="M 228.90625 375 C 229.582031 375 230.25 374.964844 230.921875 374.898438 C 231.589844 374.832031 232.253906 374.734375 232.914062 374.601562 C 233.574219 374.46875 234.226562 374.308594 234.871094 374.109375 C 235.511719 373.914062 236.144531 373.6875 236.765625 373.429688 C 237.386719 373.171875 237.996094 372.886719 238.589844 372.570312 C 239.183594 372.25 239.757812 371.90625 240.316406 371.53125 C 240.878906 371.160156 241.417969 370.757812 241.9375 370.332031 C 242.457031 369.90625 242.953125 369.453125 243.429688 368.980469 C 243.90625 368.503906 244.359375 368.003906 244.785156 367.484375 C 245.210938 366.964844 245.613281 366.425781 245.984375 365.867188 C 246.359375 365.308594 246.707031 364.734375 247.023438 364.140625 C 247.339844 363.546875 247.628906 362.941406 247.886719 362.320312 C 248.144531 361.699219 248.371094 361.066406 248.566406 360.421875 C 248.761719 359.777344 248.925781 359.125 249.058594 358.46875 C 249.191406 357.808594 249.289062 357.144531 249.355469 356.472656 C 249.421875 355.804688 249.457031 355.132812 249.457031 354.460938 L 249.457031 335.425781 L 46.503906 335.425781 L 46.503906 354.460938 C 46.503906 355.132812 46.539062 355.804688 46.605469 356.476562 C 46.671875 357.144531 46.773438 357.808594 46.90625 358.46875 C 47.035156 359.128906 47.199219 359.78125 47.398438 360.425781 C 47.59375 361.070312 47.820312 361.703125 48.078125 362.324219 C 48.335938 362.945312 48.625 363.550781 48.941406 364.144531 C 49.261719 364.738281 49.605469 365.316406 49.980469 365.875 C 50.355469 366.433594 50.757812 366.972656 51.183594 367.492188 C 51.609375 368.011719 52.0625 368.511719 52.539062 368.984375 C 53.015625 369.460938 53.515625 369.914062 54.035156 370.339844 C 54.554688 370.765625 55.09375 371.167969 55.65625 371.539062 C 56.214844 371.914062 56.792969 372.257812 57.386719 372.574219 C 57.980469 372.894531 58.585938 373.179688 59.210938 373.4375 C 59.832031 373.695312 60.464844 373.921875 61.109375 374.117188 C 61.753906 374.3125 62.40625 374.472656 63.066406 374.605469 C 63.726562 374.738281 64.390625 374.835938 65.0625 374.902344 C 65.730469 374.96875 66.402344 375 67.074219 375 Z M 228.90625 375 "/><path style=" stroke:none;fill-rule:nonzero;fill:#000000;fill-opacity:1;" d="M 63.710938 234.554688 L 142.921875 234.554688 C 143.410156 234.554688 143.890625 234.601562 144.367188 234.699219 C 144.84375 234.792969 145.308594 234.933594 145.757812 235.117188 C 146.207031 235.304688 146.632812 235.53125 147.039062 235.804688 C 147.441406 236.074219 147.816406 236.378906 148.160156 236.722656 C 148.503906 237.066406 148.8125 237.441406 149.082031 237.847656 C 149.351562 238.25 149.582031 238.679688 149.765625 239.128906 C 149.953125 239.578125 150.09375 240.039062 150.1875 240.515625 C 150.285156 240.992188 150.332031 241.476562 150.332031 241.960938 L 150.332031 274.957031 C 150.332031 275.445312 150.285156 275.925781 150.1875 276.402344 C 150.09375 276.878906 149.953125 277.34375 149.765625 277.792969 C 149.582031 278.242188 149.351562 278.667969 149.082031 279.074219 C 148.8125 279.476562 148.503906 279.851562 148.160156 280.195312 C 147.816406 280.539062 147.441406 280.847656 147.039062 281.117188 C 146.632812 281.386719 146.207031 281.613281 145.757812 281.800781 C 145.308594 281.988281 144.84375 282.128906 144.367188 282.222656 C 143.890625 282.316406 143.410156 282.363281 142.921875 282.363281 L 63.710938 282.363281 C 63.226562 282.363281 62.742188 282.316406 62.265625 282.222656 C 61.789062 282.128906 61.324219 281.988281 60.875 281.800781 C 60.425781 281.613281 60 281.386719 59.59375 281.117188 C 59.191406 280.847656 58.816406 280.539062 58.472656 280.195312 C 58.128906 279.851562 57.820312 279.476562 57.550781 279.074219 C 57.28125 278.667969 57.054688 278.242188 56.867188 277.792969 C 56.679688 277.34375 56.539062 276.878906 56.445312 276.402344 C 56.351562 275.925781 56.304688 275.445312 56.304688 274.957031 L 56.304688 241.960938 C 56.304688 241.476562 56.351562 240.992188 56.445312 240.515625 C 56.539062 240.039062 56.679688 239.578125 56.867188 239.128906 C 57.054688 238.679688 57.28125 238.25 57.550781 237.847656 C 57.820312 237.441406 58.128906 237.066406 58.472656 236.722656 C 58.816406 236.378906 59.191406 236.074219 59.59375 235.804688 C 60 235.53125 60.425781 235.304688 60.875 235.117188 C 61.324219 234.933594 61.789062 234.792969 62.265625 234.699219 C 62.742188 234.601562 63.226562 234.554688 63.710938 234.554688 Z M 63.710938 234.554688 "/><path style=" stroke:none;fill-rule:nonzero;fill:#000000;fill-opacity:1;" d="M 256.820312 322.078125 C 257.816406 322.078125 258.8125 322.027344 259.808594 321.929688 C 260.800781 321.828125 261.789062 321.679688 262.765625 321.484375 C 263.746094 321.289062 264.710938 321.046875 265.667969 320.753906 C 266.621094 320.464844 267.5625 320.128906 268.484375 319.746094 C 269.40625 319.363281 270.308594 318.933594 271.1875 318.464844 C 272.066406 317.992188 272.921875 317.480469 273.753906 316.925781 C 274.582031 316.371094 275.382812 315.777344 276.15625 315.144531 C 276.925781 314.511719 277.664062 313.839844 278.371094 313.136719 C 279.078125 312.429688 279.75 311.691406 280.382812 310.921875 C 281.015625 310.148438 281.609375 309.347656 282.164062 308.519531 C 282.722656 307.6875 283.234375 306.835938 283.707031 305.953125 C 284.175781 305.074219 284.605469 304.175781 284.988281 303.253906 C 285.371094 302.332031 285.707031 301.390625 286 300.4375 C 286.289062 299.484375 286.535156 298.515625 286.730469 297.539062 C 286.925781 296.558594 287.074219 295.574219 287.175781 294.578125 C 287.273438 293.585938 287.324219 292.589844 287.328125 291.59375 L 287.328125 142.792969 C 287.328125 141.792969 287.277344 140.796875 287.179688 139.804688 C 287.078125 138.808594 286.933594 137.820312 286.734375 136.839844 C 286.539062 135.863281 286.296875 134.894531 286.007812 133.9375 C 285.714844 132.980469 285.378906 132.042969 284.996094 131.117188 C 284.613281 130.195312 284.183594 129.292969 283.714844 128.414062 C 283.242188 127.53125 282.726562 126.675781 282.171875 125.84375 C 281.617188 125.015625 281.023438 124.214844 280.386719 123.441406 C 279.753906 122.667969 279.082031 121.929688 278.375 121.222656 C 277.671875 120.515625 276.929688 119.84375 276.15625 119.210938 C 275.386719 118.578125 274.582031 117.980469 273.753906 117.425781 C 272.921875 116.871094 272.066406 116.359375 271.183594 115.886719 C 270.304688 115.414062 269.402344 114.988281 268.476562 114.605469 C 267.554688 114.222656 266.613281 113.886719 265.65625 113.59375 C 264.703125 113.304688 263.734375 113.0625 262.753906 112.863281 C 261.773438 112.667969 260.785156 112.523438 259.789062 112.421875 C 258.796875 112.324219 257.800781 112.273438 256.800781 112.273438 L 210.980469 112.273438 C 205.136719 113.195312 199.296875 113.195312 193.453125 112.273438 L 99.34375 112.273438 C 93.503906 113.195312 87.664062 113.195312 81.824219 112.273438 L 39.144531 112.273438 C 38.144531 112.273438 37.148438 112.324219 36.152344 112.421875 C 35.15625 112.523438 34.167969 112.667969 33.191406 112.863281 C 32.210938 113.0625 31.242188 113.304688 30.285156 113.59375 C 29.328125 113.886719 28.390625 114.222656 27.464844 114.605469 C 26.542969 114.988281 25.640625 115.414062 24.757812 115.886719 C 23.878906 116.359375 23.019531 116.871094 22.191406 117.425781 C 21.359375 117.980469 20.558594 118.578125 19.785156 119.210938 C 19.011719 119.84375 18.273438 120.515625 17.566406 121.222656 C 16.859375 121.929688 16.1875 122.667969 15.554688 123.441406 C 14.921875 124.214844 14.324219 125.015625 13.769531 125.84375 C 13.214844 126.675781 12.699219 127.53125 12.230469 128.414062 C 11.757812 129.292969 11.332031 130.195312 10.949219 131.117188 C 10.566406 132.042969 10.226562 132.980469 9.9375 133.9375 C 9.644531 134.894531 9.402344 135.863281 9.207031 136.839844 C 9.011719 137.820312 8.863281 138.808594 8.765625 139.804688 C 8.664062 140.796875 8.617188 141.792969 8.613281 142.792969 L 8.613281 157.007812 L 152.160156 157.007812 C 152.597656 157.007812 153.03125 157.050781 153.460938 157.132812 C 153.890625 157.21875 154.308594 157.347656 154.714844 157.515625 C 155.117188 157.683594 155.503906 157.886719 155.867188 158.128906 C 156.230469 158.375 156.570312 158.652344 156.878906 158.960938 C 157.1875 159.269531 157.464844 159.605469 157.710938 159.972656 C 157.953125 160.335938 158.15625 160.71875 158.324219 161.125 C 158.492188 161.53125 158.621094 161.949219 158.707031 162.378906 C 158.792969 162.808594 158.832031 163.242188 158.832031 163.679688 C 158.832031 164.117188 158.792969 164.550781 158.707031 164.980469 C 158.621094 165.410156 158.492188 165.828125 158.324219 166.230469 C 158.15625 166.636719 157.953125 167.023438 157.710938 167.386719 C 157.464844 167.75 157.1875 168.085938 156.878906 168.398438 C 156.570312 168.707031 156.230469 168.984375 155.867188 169.226562 C 155.503906 169.46875 155.117188 169.675781 154.714844 169.84375 C 154.308594 170.011719 153.890625 170.136719 153.460938 170.222656 C 153.03125 170.308594 152.597656 170.351562 152.160156 170.351562 L 8.613281 170.351562 L 8.613281 291.59375 C 8.617188 292.589844 8.664062 293.589844 8.765625 294.582031 C 8.863281 295.578125 9.011719 296.566406 9.207031 297.542969 C 9.402344 298.523438 9.644531 299.492188 9.9375 300.449219 C 10.226562 301.40625 10.566406 302.34375 10.949219 303.265625 C 11.332031 304.191406 11.757812 305.09375 12.230469 305.972656 C 12.699219 306.855469 13.214844 307.710938 13.769531 308.539062 C 14.324219 309.371094 14.921875 310.171875 15.554688 310.945312 C 16.1875 311.71875 16.859375 312.457031 17.566406 313.164062 C 18.273438 313.871094 19.011719 314.539062 19.785156 315.175781 C 20.558594 315.808594 21.359375 316.402344 22.191406 316.960938 C 23.019531 317.515625 23.878906 318.027344 24.757812 318.5 C 25.640625 318.96875 26.542969 319.398438 27.464844 319.78125 C 28.390625 320.164062 29.328125 320.5 30.285156 320.792969 C 31.242188 321.082031 32.210938 321.324219 33.191406 321.519531 C 34.167969 321.714844 35.15625 321.863281 36.152344 321.964844 C 37.148438 322.0625 38.144531 322.113281 39.144531 322.113281 L 256.820312 322.113281 Z M 163.679688 274.957031 C 163.679688 275.636719 163.644531 276.316406 163.578125 276.992188 C 163.511719 277.667969 163.410156 278.339844 163.277344 279.003906 C 163.144531 279.671875 162.980469 280.328125 162.78125 280.980469 C 162.582031 281.628906 162.355469 282.269531 162.09375 282.894531 C 161.832031 283.523438 161.542969 284.136719 161.222656 284.734375 C 160.902344 285.335938 160.554688 285.917969 160.175781 286.480469 C 159.796875 287.046875 159.394531 287.59375 158.960938 288.117188 C 158.53125 288.640625 158.074219 289.144531 157.59375 289.625 C 157.113281 290.105469 156.609375 290.5625 156.085938 290.992188 C 155.558594 291.425781 155.015625 291.828125 154.449219 292.207031 C 153.882812 292.582031 153.300781 292.933594 152.703125 293.253906 C 152.105469 293.574219 151.492188 293.863281 150.863281 294.125 C 150.234375 294.386719 149.597656 294.613281 148.945312 294.8125 C 148.296875 295.007812 147.636719 295.175781 146.96875 295.308594 C 146.304688 295.441406 145.632812 295.539062 144.957031 295.609375 C 144.28125 295.675781 143.601562 295.707031 142.921875 295.710938 L 63.738281 295.710938 C 63.058594 295.707031 62.378906 295.675781 61.703125 295.609375 C 61.027344 295.539062 60.355469 295.441406 59.691406 295.308594 C 59.023438 295.175781 58.363281 295.007812 57.714844 294.8125 C 57.066406 294.613281 56.425781 294.386719 55.796875 294.125 C 55.171875 293.863281 54.554688 293.574219 53.957031 293.253906 C 53.359375 292.933594 52.777344 292.582031 52.210938 292.207031 C 51.644531 291.828125 51.101562 291.425781 50.574219 290.992188 C 50.050781 290.5625 49.546875 290.105469 49.066406 289.625 C 48.585938 289.144531 48.128906 288.640625 47.699219 288.117188 C 47.265625 287.59375 46.863281 287.046875 46.484375 286.480469 C 46.109375 285.917969 45.757812 285.335938 45.4375 284.734375 C 45.117188 284.136719 44.828125 283.523438 44.566406 282.894531 C 44.304688 282.269531 44.078125 281.628906 43.878906 280.980469 C 43.679688 280.328125 43.515625 279.671875 43.382812 279.003906 C 43.25 278.339844 43.148438 277.667969 43.082031 276.992188 C 43.015625 276.316406 42.980469 275.636719 42.980469 274.957031 L 42.980469 241.96875 C 42.980469 241.289062 43.015625 240.609375 43.082031 239.933594 C 43.148438 239.257812 43.25 238.585938 43.382812 237.921875 C 43.515625 237.253906 43.679688 236.597656 43.878906 235.945312 C 44.078125 235.296875 44.304688 234.65625 44.566406 234.027344 C 44.828125 233.402344 45.117188 232.789062 45.4375 232.1875 C 45.757812 231.589844 46.105469 231.007812 46.484375 230.441406 C 46.863281 229.878906 47.265625 229.332031 47.699219 228.808594 C 48.128906 228.28125 48.585938 227.777344 49.066406 227.296875 C 49.546875 226.816406 50.050781 226.363281 50.574219 225.929688 C 51.101562 225.5 51.644531 225.09375 52.210938 224.71875 C 52.773438 224.339844 53.355469 223.988281 53.957031 223.667969 C 54.554688 223.347656 55.167969 223.058594 55.796875 222.796875 C 56.425781 222.535156 57.0625 222.308594 57.714844 222.109375 C 58.363281 221.910156 59.023438 221.746094 59.691406 221.613281 C 60.355469 221.480469 61.027344 221.378906 61.703125 221.3125 C 62.378906 221.246094 63.058594 221.210938 63.738281 221.210938 L 142.921875 221.210938 C 143.601562 221.210938 144.28125 221.246094 144.957031 221.3125 C 145.632812 221.378906 146.304688 221.480469 146.972656 221.613281 C 147.636719 221.746094 148.296875 221.910156 148.945312 222.109375 C 149.597656 222.308594 150.234375 222.535156 150.863281 222.796875 C 151.492188 223.058594 152.105469 223.347656 152.703125 223.667969 C 153.304688 223.988281 153.886719 224.339844 154.449219 224.71875 C 155.015625 225.09375 155.558594 225.5 156.085938 225.929688 C 156.609375 226.363281 157.113281 226.816406 157.59375 227.296875 C 158.074219 227.777344 158.53125 228.28125 158.960938 228.808594 C 159.394531 229.332031 159.796875 229.878906 160.175781 230.441406 C 160.554688 231.007812 160.902344 231.589844 161.222656 232.1875 C 161.542969 232.789062 161.832031 233.402344 162.09375 234.027344 C 162.355469 234.65625 162.582031 235.296875 162.78125 235.945312 C 162.980469 236.597656 163.144531 237.253906 163.277344 237.921875 C 163.410156 238.585938 163.511719 239.257812 163.578125 239.933594 C 163.644531 240.609375 163.679688 241.289062 163.679688 241.96875 Z M 211.566406 170.351562 L 202.222656 170.351562 C 201.785156 170.351562 201.351562 170.308594 200.921875 170.222656 C 200.492188 170.136719 200.074219 170.011719 199.667969 169.84375 C 199.265625 169.675781 198.878906 169.46875 198.515625 169.226562 C 198.152344 168.984375 197.8125 168.707031 197.503906 168.398438 C 197.195312 168.085938 196.917969 167.75 196.675781 167.386719 C 196.429688 167.023438 196.226562 166.636719 196.058594 166.230469 C 195.890625 165.828125 195.761719 165.410156 195.675781 164.980469 C 195.59375 164.550781 195.550781 164.117188 195.550781 163.679688 C 195.550781 163.242188 195.59375 162.808594 195.675781 162.378906 C 195.761719 161.949219 195.890625 161.53125 196.058594 161.125 C 196.226562 160.71875 196.429688 160.335938 196.675781 159.972656 C 196.917969 159.605469 197.195312 159.269531 197.503906 158.960938 C 197.8125 158.652344 198.152344 158.375 198.515625 158.128906 C 198.878906 157.886719 199.265625 157.683594 199.667969 157.515625 C 200.074219 157.347656 200.492188 157.21875 200.921875 157.132812 C 201.351562 157.050781 201.785156 157.007812 202.222656 157.007812 L 211.566406 157.007812 C 212.007812 157.007812 212.441406 157.050781 212.871094 157.132812 C 213.300781 157.21875 213.71875 157.347656 214.121094 157.515625 C 214.527344 157.683594 214.910156 157.886719 215.277344 158.128906 C 215.640625 158.375 215.976562 158.652344 216.289062 158.960938 C 216.597656 159.269531 216.875 159.605469 217.117188 159.972656 C 217.359375 160.335938 217.566406 160.71875 217.734375 161.125 C 217.902344 161.53125 218.027344 161.949219 218.113281 162.378906 C 218.199219 162.808594 218.242188 163.242188 218.242188 163.679688 C 218.242188 164.117188 218.199219 164.550781 218.113281 164.980469 C 218.027344 165.410156 217.902344 165.828125 217.734375 166.230469 C 217.566406 166.636719 217.359375 167.023438 217.117188 167.386719 C 216.875 167.75 216.597656 168.085938 216.289062 168.398438 C 215.976562 168.707031 215.640625 168.984375 215.277344 169.226562 C 214.910156 169.46875 214.527344 169.675781 214.121094 169.84375 C 213.71875 170.011719 213.300781 170.136719 212.871094 170.222656 C 212.441406 170.308594 212.007812 170.351562 211.566406 170.351562 Z M 211.566406 170.351562 "/><path style=" stroke:none;fill-rule:nonzero;fill:#000000;fill-opacity:1;" d="M 146.398438 78.394531 C 144.414062 82.355469 142.039062 86.0625 139.269531 89.519531 C 136.503906 92.976562 133.402344 96.105469 129.972656 98.90625 L 162.824219 98.90625 C 159.398438 96.105469 156.296875 92.972656 153.53125 89.519531 C 150.761719 86.0625 148.386719 82.355469 146.398438 78.394531 Z M 146.398438 78.394531 "/><path style=" stroke:none;fill-rule:nonzero;fill:#000000;fill-opacity:1;" d="M 194.367188 98.90625 L 210.066406 98.90625 C 211.070312 98.746094 212.070312 98.550781 213.0625 98.328125 C 214.054688 98.101562 215.039062 97.847656 216.015625 97.5625 C 216.992188 97.277344 217.960938 96.960938 218.917969 96.613281 C 219.875 96.269531 220.820312 95.894531 221.753906 95.488281 C 222.6875 95.085938 223.609375 94.652344 224.515625 94.191406 C 225.421875 93.730469 226.3125 93.238281 227.191406 92.722656 C 228.066406 92.207031 228.925781 91.660156 229.769531 91.089844 C 230.613281 90.519531 231.4375 89.925781 232.242188 89.304688 C 233.046875 88.679688 233.832031 88.035156 234.597656 87.363281 C 235.363281 86.695312 236.109375 86 236.832031 85.285156 C 237.550781 84.566406 238.253906 83.828125 238.929688 83.070312 C 239.605469 82.308594 240.257812 81.527344 240.886719 80.726562 C 241.515625 79.925781 242.117188 79.109375 242.695312 78.269531 C 243.269531 77.433594 243.820312 76.578125 244.34375 75.703125 C 244.871094 74.832031 245.367188 73.945312 245.835938 73.042969 C 246.304688 72.140625 246.742188 71.222656 247.15625 70.292969 C 247.566406 69.363281 247.949219 68.417969 248.304688 67.464844 C 248.65625 66.511719 248.980469 65.546875 249.273438 64.574219 C 249.566406 63.597656 249.828125 62.617188 250.0625 61.625 C 250.292969 60.632812 250.496094 59.636719 250.667969 58.632812 C 250.835938 57.632812 250.976562 56.625 251.082031 55.613281 C 251.191406 54.601562 251.269531 53.585938 251.3125 52.570312 C 251.355469 51.554688 251.371094 50.535156 251.351562 49.519531 C 251.332031 48.503906 251.285156 47.484375 251.203125 46.472656 C 251.121094 45.457031 251.007812 44.445312 250.863281 43.441406 C 250.71875 42.433594 250.542969 41.429688 250.335938 40.433594 C 250.128906 39.4375 249.894531 38.449219 249.625 37.46875 C 249.355469 36.488281 249.058594 35.515625 248.730469 34.550781 C 248.402344 33.589844 248.042969 32.636719 247.65625 31.695312 C 247.269531 30.753906 246.851562 29.828125 246.40625 28.914062 C 245.960938 27.996094 245.488281 27.097656 244.988281 26.210938 C 244.484375 25.324219 243.957031 24.457031 243.402344 23.605469 C 242.847656 22.75 242.265625 21.917969 241.660156 21.101562 C 241.050781 20.285156 240.417969 19.488281 239.761719 18.710938 C 239.105469 17.933594 238.425781 17.175781 237.722656 16.441406 C 237.019531 15.707031 236.292969 14.992188 235.546875 14.304688 C 234.796875 13.613281 234.027344 12.945312 233.238281 12.304688 C 232.449219 11.664062 231.640625 11.046875 230.8125 10.453125 C 229.988281 9.859375 229.140625 9.296875 228.277344 8.753906 C 227.414062 8.214844 226.535156 7.703125 225.640625 7.21875 C 224.746094 6.734375 223.839844 6.277344 222.914062 5.847656 C 221.992188 5.417969 221.058594 5.019531 220.109375 4.648438 C 219.160156 4.28125 218.203125 3.9375 217.234375 3.628906 C 216.265625 3.316406 215.285156 3.035156 214.300781 2.785156 C 213.3125 2.535156 212.320312 2.316406 211.320312 2.128906 C 210.320312 1.941406 209.316406 1.78125 208.304688 1.65625 C 207.296875 1.53125 206.28125 1.4375 205.265625 1.371094 C 204.25 1.308594 203.234375 1.277344 202.21875 1.277344 C 201.199219 1.277344 200.183594 1.308594 199.167969 1.371094 C 198.152344 1.4375 197.136719 1.53125 196.128906 1.65625 C 195.117188 1.78125 194.113281 1.941406 193.113281 2.128906 C 192.113281 2.316406 191.121094 2.535156 190.132812 2.785156 C 189.148438 3.035156 188.167969 3.316406 187.199219 3.628906 C 186.230469 3.9375 185.273438 4.28125 184.324219 4.648438 C 183.375 5.019531 182.441406 5.417969 181.519531 5.847656 C 180.59375 6.277344 179.6875 6.734375 178.792969 7.21875 C 177.898438 7.703125 177.019531 8.214844 176.15625 8.753906 C 175.292969 9.296875 174.449219 9.859375 173.621094 10.453125 C 172.792969 11.046875 171.984375 11.664062 171.195312 12.304688 C 170.40625 12.945312 169.636719 13.613281 168.886719 14.304688 C 168.140625 14.992188 167.414062 15.707031 166.710938 16.441406 C 166.007812 17.175781 165.328125 17.933594 164.671875 18.710938 C 164.015625 19.488281 163.382812 20.285156 162.777344 21.101562 C 162.167969 21.917969 161.585938 22.75 161.03125 23.605469 C 160.476562 24.457031 159.949219 25.324219 159.445312 26.210938 C 158.945312 27.097656 158.472656 27.996094 158.027344 28.914062 C 157.582031 29.828125 157.164062 30.753906 156.777344 31.695312 C 156.390625 32.636719 156.03125 33.589844 155.703125 34.550781 C 155.375 35.515625 155.078125 36.488281 154.808594 37.46875 C 154.542969 38.449219 154.304688 39.4375 154.097656 40.433594 C 153.890625 41.429688 153.714844 42.433594 153.570312 43.441406 C 153.425781 44.445312 153.3125 45.457031 153.230469 46.472656 C 153.148438 47.484375 153.101562 48.503906 153.082031 49.519531 C 153.0625 50.535156 153.078125 51.554688 153.121094 52.570312 C 153.167969 53.585938 153.242188 54.601562 153.351562 55.613281 C 153.457031 56.625 153.597656 57.632812 153.769531 58.632812 C 153.9375 59.636719 154.140625 60.632812 154.371094 61.625 C 154.605469 62.617188 154.867188 63.597656 155.160156 64.574219 C 155.453125 65.546875 155.777344 66.511719 156.128906 67.464844 C 156.484375 68.417969 156.867188 69.363281 157.277344 70.292969 C 157.691406 71.222656 158.128906 72.140625 158.597656 73.042969 C 159.070312 73.945312 159.566406 74.832031 160.089844 75.703125 C 160.613281 76.578125 161.164062 77.433594 161.742188 78.269531 C 162.316406 79.109375 162.921875 79.925781 163.546875 80.726562 C 164.175781 81.527344 164.828125 82.308594 165.503906 83.070312 C 166.183594 83.828125 166.882812 84.566406 167.605469 85.285156 C 168.328125 86 169.070312 86.695312 169.835938 87.363281 C 170.601562 88.035156 171.386719 88.679688 172.191406 89.304688 C 173 89.925781 173.824219 90.519531 174.664062 91.089844 C 175.507812 91.660156 176.367188 92.207031 177.246094 92.722656 C 178.121094 93.238281 179.011719 93.730469 179.917969 94.191406 C 180.828125 94.652344 181.746094 95.085938 182.679688 95.488281 C 183.613281 95.894531 184.558594 96.269531 185.515625 96.613281 C 186.472656 96.960938 187.441406 97.277344 188.417969 97.5625 C 189.394531 97.847656 190.378906 98.101562 191.371094 98.328125 C 192.363281 98.550781 193.363281 98.746094 194.367188 98.90625 Z M 194.367188 98.90625 "/><path style=" stroke:none;fill-rule:nonzero;fill:#000000;fill-opacity:1;" d="M 41.445312 50.464844 C 41.449219 51.90625 41.515625 53.347656 41.644531 54.785156 C 41.773438 56.222656 41.964844 57.652344 42.21875 59.070312 C 42.476562 60.492188 42.792969 61.898438 43.171875 63.289062 C 43.550781 64.683594 43.988281 66.054688 44.488281 67.410156 C 44.988281 68.761719 45.546875 70.09375 46.164062 71.398438 C 46.78125 72.703125 47.457031 73.976562 48.183594 75.222656 C 48.914062 76.46875 49.695312 77.679688 50.53125 78.855469 C 51.367188 80.03125 52.253906 81.167969 53.191406 82.265625 C 54.128906 83.363281 55.109375 84.421875 56.140625 85.433594 C 57.167969 86.445312 58.238281 87.410156 59.351562 88.324219 C 60.46875 89.242188 61.621094 90.109375 62.808594 90.925781 C 64 91.742188 65.222656 92.503906 66.480469 93.214844 C 67.738281 93.921875 69.027344 94.574219 70.339844 95.167969 C 71.65625 95.765625 72.996094 96.300781 74.355469 96.777344 C 75.71875 97.253906 77.097656 97.671875 78.496094 98.027344 C 79.898438 98.382812 81.308594 98.675781 82.734375 98.90625 L 98.445312 98.90625 C 99.976562 98.660156 101.496094 98.335938 103 97.945312 C 104.503906 97.550781 105.984375 97.089844 107.441406 96.554688 C 108.902344 96.019531 110.332031 95.417969 111.734375 94.75 C 113.136719 94.082031 114.503906 93.347656 115.835938 92.546875 C 117.167969 91.746094 118.460938 90.886719 119.710938 89.964844 C 120.960938 89.042969 122.167969 88.066406 123.324219 87.03125 C 124.480469 85.992188 125.589844 84.90625 126.640625 83.765625 C 127.695312 82.625 128.695312 81.433594 129.636719 80.199219 C 130.578125 78.964844 131.460938 77.6875 132.28125 76.367188 C 133.101562 75.046875 133.855469 73.695312 134.546875 72.304688 C 135.238281 70.910156 135.863281 69.492188 136.421875 68.042969 C 136.976562 66.589844 137.464844 65.117188 137.882812 63.621094 C 138.300781 62.125 138.644531 60.613281 138.917969 59.082031 C 139.191406 57.554688 139.390625 56.015625 139.519531 54.46875 C 139.648438 52.917969 139.699219 51.367188 139.679688 49.816406 C 139.660156 48.261719 139.566406 46.714844 139.402344 45.167969 C 139.234375 43.625 138.996094 42.09375 138.683594 40.570312 C 138.371094 39.050781 137.988281 37.546875 137.53125 36.058594 C 137.078125 34.574219 136.554688 33.113281 135.960938 31.679688 C 135.367188 30.242188 134.707031 28.839844 133.976562 27.464844 C 133.25 26.09375 132.460938 24.757812 131.609375 23.460938 C 130.753906 22.164062 129.839844 20.90625 128.867188 19.695312 C 127.894531 18.484375 126.867188 17.324219 125.785156 16.210938 C 124.699219 15.097656 123.566406 14.035156 122.382812 13.03125 C 121.199219 12.023438 119.972656 11.074219 118.699219 10.1875 C 117.425781 9.296875 116.109375 8.46875 114.757812 7.703125 C 113.40625 6.9375 112.019531 6.238281 110.601562 5.605469 C 109.183594 4.972656 107.738281 4.40625 106.265625 3.910156 C 104.792969 3.414062 103.300781 2.988281 101.789062 2.632812 C 100.277344 2.28125 98.75 1.996094 97.210938 1.785156 C 95.671875 1.578125 94.125 1.441406 92.574219 1.375 C 91.019531 1.3125 89.46875 1.324219 87.917969 1.40625 C 86.367188 1.492188 84.820312 1.648438 83.285156 1.878906 C 81.75 2.109375 80.226562 2.410156 78.71875 2.785156 C 77.210938 3.160156 75.722656 3.605469 74.257812 4.121094 C 72.792969 4.636719 71.355469 5.222656 69.945312 5.875 C 68.535156 6.527344 67.160156 7.246094 65.816406 8.027344 C 64.472656 8.808594 63.171875 9.65625 61.910156 10.5625 C 60.648438 11.46875 59.433594 12.429688 58.261719 13.453125 C 57.09375 14.476562 55.972656 15.550781 54.90625 16.675781 C 53.835938 17.804688 52.824219 18.980469 51.867188 20.207031 C 50.910156 21.429688 50.011719 22.695312 49.175781 24.003906 C 48.339844 25.3125 47.566406 26.660156 46.859375 28.042969 C 46.152344 29.425781 45.507812 30.835938 44.933594 32.28125 C 44.359375 33.722656 43.855469 35.191406 43.417969 36.683594 C 42.984375 38.171875 42.621094 39.679688 42.328125 41.207031 C 42.035156 42.734375 41.816406 44.269531 41.671875 45.816406 C 41.523438 47.363281 41.453125 48.910156 41.453125 50.464844 Z M 41.445312 50.464844 "/></g></svg>