<svg xmlns="http://www.w3.org/2000/svg" xmlns:xlink="http://www.w3.org/1999/xlink" width="375" zoomAndPan="magnify" viewBox="0 0 281.25 281.249989" height="375" preserveAspectRatio="xMidYMid meet" version="1.2"><defs><clipPath id="cf2803ff07"><path d="M 4 5.257812 L 280 5.257812 L 280 275.289062 L 4 275.289062 Z M 4 5.257812 "/></clipPath></defs><g id="f9bcd740d0"><g clip-rule="nonzero" clip-path="url(#cf2803ff07)"><path style=" stroke:none;fill-rule:nonzero;fill:#000000;fill-opacity:1;" d="M 135.15625 206.894531 L 135.699219 275.710938 C 129.882812 272.359375 124.324219 268.625 119.023438 264.511719 C 113.71875 260.398438 108.726562 255.9375 104.035156 251.136719 C 99.347656 246.335938 95.007812 241.234375 91.019531 235.835938 C 87.03125 230.4375 83.433594 224.789062 80.222656 218.894531 C 88.953125 215.289062 97.929688 212.480469 107.15625 210.460938 C 116.382812 208.445312 125.714844 207.257812 135.15625 206.894531 Z M 203.738281 218.894531 C 194.613281 215.070312 185.207031 212.140625 175.527344 210.101562 C 165.84375 208.066406 156.054688 206.960938 146.164062 206.785156 L 146.164062 275.710938 C 152.195312 272.476562 157.96875 268.828125 163.476562 264.765625 C 168.988281 260.703125 174.179688 256.269531 179.050781 251.460938 C 183.925781 246.652344 188.429688 241.519531 192.5625 236.066406 C 196.699219 230.609375 200.425781 224.886719 203.738281 218.894531 Z M 168.289062 274.9375 C 174.824219 273.667969 181.226562 271.929688 187.507812 269.722656 C 193.785156 267.515625 199.867188 264.863281 205.761719 261.769531 C 211.652344 258.671875 217.285156 255.167969 222.667969 251.25 C 228.046875 247.332031 233.113281 243.042969 237.863281 238.382812 C 230.300781 232.664062 222.265625 227.707031 213.757812 223.519531 C 208.230469 233.707031 201.628906 243.140625 193.953125 251.820312 C 186.277344 260.503906 177.722656 268.207031 168.289062 274.9375 Z M 235.222656 139.179688 C 235.292969 152.058594 233.941406 164.785156 231.175781 177.363281 C 228.40625 189.941406 224.289062 202.0625 218.820312 213.71875 C 228.222656 218.371094 237.066406 223.914062 245.351562 230.347656 C 248.085938 227.230469 250.671875 223.996094 253.113281 220.644531 C 255.554688 217.289062 257.835938 213.835938 259.960938 210.273438 C 262.089844 206.714844 264.046875 203.0625 265.839844 199.324219 C 267.632812 195.585938 269.253906 191.773438 270.699219 187.886719 C 272.144531 184 273.410156 180.054688 274.496094 176.054688 C 275.582031 172.050781 276.484375 168.007812 277.199219 163.925781 C 277.917969 159.839844 278.449219 155.730469 278.792969 151.597656 C 279.136719 147.464844 279.289062 143.328125 279.257812 139.179688 Z M 208.910156 208.875 C 214.042969 197.980469 217.898438 186.652344 220.480469 174.886719 C 223.0625 163.125 224.308594 151.222656 224.214844 139.179688 L 146.164062 139.179688 L 146.164062 195.773438 C 156.933594 195.953125 167.589844 197.164062 178.125 199.40625 C 188.664062 201.648438 198.890625 204.878906 208.800781 209.097656 C 208.800781 208.984375 208.910156 208.984375 208.910156 208.875 Z M 208.910156 71.355469 C 198.941406 75.441406 188.683594 78.59375 178.136719 80.8125 C 167.59375 83.035156 156.933594 84.285156 146.164062 84.566406 L 146.164062 128.167969 L 223.773438 128.167969 C 223.082031 118.320312 221.488281 108.621094 218.992188 99.070312 C 216.492188 89.519531 213.132812 80.28125 208.910156 71.355469 Z M 218.929688 66.730469 C 223.484375 76.378906 227.09375 86.371094 229.757812 96.703125 C 232.421875 107.03125 234.097656 117.523438 234.78125 128.167969 L 278.707031 128.167969 C 278.097656 120.980469 276.925781 113.882812 275.1875 106.882812 C 273.453125 99.878906 271.171875 93.058594 268.347656 86.417969 C 265.523438 79.777344 262.195312 73.402344 258.355469 67.292969 C 254.515625 61.1875 250.21875 55.417969 245.460938 49.996094 C 237.09375 56.332031 228.214844 61.835938 218.820312 66.511719 C 218.820312 66.621094 218.929688 66.621094 218.929688 66.730469 Z M 213.757812 56.820312 C 222.242188 52.554688 230.277344 47.5625 237.863281 41.847656 C 233.105469 37.210938 228.039062 32.9375 222.667969 29.03125 C 217.292969 25.125 211.664062 21.625 205.785156 18.527344 C 199.90625 15.433594 193.832031 12.777344 187.570312 10.5625 C 181.308594 8.34375 174.917969 6.585938 168.402344 5.292969 C 177.816406 12.046875 186.355469 19.777344 194.011719 28.476562 C 201.667969 37.175781 208.25 46.625 213.757812 56.820312 Z M 146.164062 5.953125 L 146.164062 73.558594 C 156.050781 73.328125 165.832031 72.195312 175.507812 70.160156 C 185.1875 68.125 194.597656 65.21875 203.738281 61.445312 C 200.449219 55.519531 196.742188 49.871094 192.613281 44.5 C 188.488281 39.125 183.984375 34.089844 179.105469 29.386719 C 174.226562 24.683594 169.027344 20.371094 163.507812 16.441406 C 157.984375 12.515625 152.203125 9.019531 146.164062 5.953125 Z M 135.15625 5.953125 C 129.402344 9.1875 123.898438 12.804688 118.644531 16.800781 C 113.390625 20.796875 108.4375 25.136719 103.78125 29.816406 C 99.128906 34.5 94.820312 39.480469 90.855469 44.757812 C 86.894531 50.035156 83.3125 55.5625 80.113281 61.335938 C 88.859375 64.953125 97.855469 67.78125 107.101562 69.816406 C 116.34375 71.847656 125.695312 73.058594 135.15625 73.445312 Z M 135.15625 84.457031 C 124.816406 84.070312 114.597656 82.757812 104.496094 80.519531 C 94.398438 78.28125 84.582031 75.152344 75.046875 71.136719 C 70.855469 80.109375 67.511719 89.390625 65.015625 98.972656 C 62.519531 108.558594 60.90625 118.292969 60.1875 128.167969 L 135.15625 128.167969 Z M 135.15625 195.882812 L 135.15625 139.179688 L 59.746094 139.179688 C 59.667969 151.257812 60.917969 163.195312 63.5 174.992188 C 66.082031 186.789062 69.929688 198.15625 75.046875 209.097656 C 84.574219 205.070312 94.390625 201.945312 104.492188 199.726562 C 114.597656 197.503906 124.816406 196.222656 135.15625 195.882812 Z M 70.203125 223.519531 C 61.695312 227.707031 53.660156 232.664062 46.09375 238.382812 C 50.832031 243.019531 55.878906 247.292969 61.234375 251.199219 C 66.589844 255.105469 72.195312 258.605469 78.058594 261.699219 C 83.921875 264.792969 89.972656 267.449219 96.21875 269.667969 C 102.464844 271.886719 108.839844 273.644531 115.339844 274.9375 C 105.996094 268.15625 97.515625 260.429688 89.898438 251.75 C 82.285156 243.074219 75.71875 233.664062 70.203125 223.519531 Z M 48.738281 139.179688 L 4.703125 139.179688 C 4.679688 143.324219 4.839844 147.464844 5.191406 151.59375 C 5.542969 155.726562 6.078125 159.832031 6.800781 163.914062 C 7.523438 167.996094 8.425781 172.039062 9.515625 176.039062 C 10.601562 180.039062 11.871094 183.980469 13.3125 187.867188 C 14.757812 191.753906 16.378906 195.566406 18.167969 199.304688 C 19.957031 203.042969 21.914062 206.691406 24.035156 210.253906 C 26.15625 213.816406 28.433594 217.273438 30.867188 220.628906 C 33.300781 223.984375 35.882812 227.226562 38.609375 230.347656 C 46.894531 223.914062 55.738281 218.371094 65.140625 213.71875 C 59.671875 202.0625 55.550781 189.941406 52.785156 177.363281 C 50.015625 164.785156 48.667969 152.058594 48.738281 139.179688 Z M 65.140625 66.511719 C 55.746094 61.835938 46.867188 56.332031 38.5 49.996094 C 38.425781 49.992188 38.386719 50.03125 38.390625 50.105469 C 33.65625 55.53125 29.378906 61.296875 25.558594 67.398438 C 21.738281 73.503906 18.417969 79.867188 15.605469 86.496094 C 12.792969 93.125 10.515625 99.933594 8.78125 106.925781 C 7.046875 113.914062 5.871094 120.996094 5.253906 128.167969 L 49.175781 128.167969 C 49.855469 117.480469 51.535156 106.949219 54.21875 96.578125 C 56.902344 86.207031 60.542969 76.1875 65.140625 66.511719 Z M 115.890625 5.292969 C 109.339844 6.5625 102.917969 8.300781 96.625 10.507812 C 90.328125 12.710938 84.226562 15.363281 78.316406 18.457031 C 72.40625 21.554688 66.753906 25.058594 61.355469 28.980469 C 55.957031 32.898438 50.867188 37.1875 46.09375 41.847656 C 53.679688 47.5625 61.71875 52.554688 70.203125 56.820312 C 75.738281 46.59375 82.363281 37.128906 90.078125 28.425781 C 97.792969 19.722656 106.398438 12.011719 115.890625 5.292969 Z M 115.890625 5.292969 "/></g><g style="fill:#000000;fill-opacity:1;"><g transform="translate(122.716975, 164.994078)"><path style="stroke:none" d="M 1.578125 0.0625 C 1.347656 0.0625 1.171875 0 1.046875 -0.125 C 0.921875 -0.25 0.859375 -0.414062 0.859375 -0.625 C 0.859375 -0.820312 0.921875 -0.988281 1.046875 -1.125 C 1.171875 -1.257812 1.347656 -1.328125 1.578125 -1.328125 C 1.796875 -1.328125 1.96875 -1.265625 2.09375 -1.140625 C 2.226562 -1.015625 2.296875 -0.847656 2.296875 -0.640625 C 2.296875 -0.429688 2.226562 -0.257812 2.09375 -0.125 C 1.96875 0 1.796875 0.0625 1.578125 0.0625 Z M 1.578125 0.0625 "/></g></g></g></svg>