<svg xmlns="http://www.w3.org/2000/svg" xmlns:xlink="http://www.w3.org/1999/xlink" width="500" zoomAndPan="magnify" viewBox="0 0 375 374.999991" height="500" preserveAspectRatio="xMidYMid meet" version="1.2"><defs><clipPath id="04c27d29b1"><path d="M 12 105.113281 L 13 105.113281 L 13 107 L 12 107 Z M 12 105.113281 "/></clipPath><clipPath id="1a21421b9b"><path d="M 13 105.113281 L 14 105.113281 L 14 107 L 13 107 Z M 13 105.113281 "/></clipPath><clipPath id="54a03129a8"><path d="M 14 105.113281 L 16 105.113281 L 16 107 L 14 107 Z M 14 105.113281 "/></clipPath><clipPath id="290617777b"><path d="M 15 105.113281 L 18 105.113281 L 18 107 L 15 107 Z M 15 105.113281 "/></clipPath><clipPath id="d09198dec9"><path d="M 13 107 L 17 107 L 17 111.863281 L 13 111.863281 Z M 13 107 "/></clipPath><clipPath id="629110f011"><path d="M 11.570312 105.113281 L 18.320312 105.113281 L 18.320312 111.863281 L 11.570312 111.863281 Z M 11.570312 105.113281 "/></clipPath></defs><g id="6fa7a38d77"><path style=" stroke:none;fill-rule:nonzero;fill:#000000;fill-opacity:1;" d="M 332.945312 0.585938 L 43.222656 0.585938 C 19.859375 0.585938 1.167969 19.277344 1.167969 42.640625 L 1.167969 70.675781 L 375 70.675781 L 375 42.640625 C 375 19.277344 356.308594 0.585938 332.945312 0.585938 Z M 223.128906 47.3125 C 217.289062 47.3125 211.449219 41.472656 211.449219 35.628906 C 211.449219 29.789062 217.289062 23.949219 223.128906 23.949219 C 228.972656 23.949219 234.8125 29.789062 234.8125 35.628906 C 234.8125 41.472656 228.972656 47.3125 223.128906 47.3125 Z M 269.859375 47.3125 C 264.019531 47.3125 258.175781 41.472656 258.175781 35.628906 C 258.175781 29.789062 264.019531 23.949219 269.859375 23.949219 C 275.699219 23.949219 281.542969 29.789062 281.542969 35.628906 C 281.542969 41.472656 275.699219 47.3125 269.859375 47.3125 Z M 316.589844 47.3125 C 310.746094 47.3125 304.90625 41.472656 304.90625 35.628906 C 304.90625 29.789062 310.746094 23.949219 316.589844 23.949219 C 322.429688 23.949219 328.269531 29.789062 328.269531 35.628906 C 328.269531 41.472656 322.429688 47.3125 316.589844 47.3125 Z M 316.589844 47.3125 "/><path style=" stroke:none;fill-rule:nonzero;fill:#000000;fill-opacity:1;" d="M 1.167969 273.949219 C 1.167969 297.3125 19.859375 316.003906 43.222656 316.003906 L 46.730469 316.003906 L 46.730469 256.425781 L 141.355469 256.425781 L 141.355469 316.003906 L 331.777344 316.003906 C 355.140625 316.003906 373.832031 297.3125 373.832031 273.949219 L 373.832031 94.042969 L 0 94.042969 L 0 273.949219 Z M 304.90625 164.136719 L 328.269531 164.136719 L 351.636719 210.863281 L 328.269531 257.59375 L 304.90625 257.59375 L 328.269531 210.863281 Z M 223.128906 199.183594 L 293.222656 199.183594 L 293.222656 222.546875 L 223.128906 222.546875 Z M 188.085938 164.136719 L 211.449219 164.136719 L 188.085938 210.863281 L 211.449219 257.59375 L 188.085938 257.59375 L 164.71875 210.863281 Z M 188.085938 164.136719 "/><path style=" stroke:none;fill-rule:nonzero;fill:#000000;fill-opacity:1;" d="M 1.167969 327.6875 L 47.898438 327.6875 L 47.898438 374.414062 L 1.167969 374.414062 Z M 1.167969 327.6875 "/><path style=" stroke:none;fill-rule:nonzero;fill:#000000;fill-opacity:1;" d="M 70.09375 279.789062 L 117.992188 279.789062 L 117.992188 327.6875 L 70.09375 327.6875 Z M 70.09375 279.789062 "/><g clip-rule="nonzero" clip-path="url(#04c27d29b1)"><path style=" stroke:none;fill-rule:nonzero;fill:#000000;fill-opacity:1;" d="M 12.496094 106.4375 C 12.714844 106.4375 12.894531 106.261719 12.894531 106.042969 C 12.894531 105.824219 12.714844 105.644531 12.496094 105.644531 C 12.277344 105.644531 12.097656 105.824219 12.097656 106.042969 C 12.097656 106.261719 12.277344 106.4375 12.496094 106.4375 Z M 12.496094 105.910156 C 12.570312 105.910156 12.628906 105.96875 12.628906 106.042969 C 12.628906 106.113281 12.570312 106.171875 12.496094 106.171875 C 12.421875 106.171875 12.363281 106.113281 12.363281 106.042969 C 12.363281 105.96875 12.421875 105.910156 12.496094 105.910156 Z M 12.496094 105.910156 "/></g><g clip-rule="nonzero" clip-path="url(#1a21421b9b)"><path style=" stroke:none;fill-rule:nonzero;fill:#000000;fill-opacity:1;" d="M 13.554688 106.4375 C 13.773438 106.4375 13.953125 106.261719 13.953125 106.042969 C 13.953125 105.824219 13.773438 105.644531 13.554688 105.644531 C 13.335938 105.644531 13.160156 105.824219 13.160156 106.042969 C 13.160156 106.261719 13.335938 106.4375 13.554688 106.4375 Z M 13.554688 105.910156 C 13.628906 105.910156 13.6875 105.96875 13.6875 106.042969 C 13.6875 106.113281 13.628906 106.171875 13.554688 106.171875 C 13.480469 106.171875 13.421875 106.113281 13.421875 106.042969 C 13.421875 105.96875 13.480469 105.910156 13.554688 105.910156 Z M 13.554688 105.910156 "/></g><g clip-rule="nonzero" clip-path="url(#54a03129a8)"><path style=" stroke:none;fill-rule:nonzero;fill:#000000;fill-opacity:1;" d="M 14.613281 106.4375 C 14.832031 106.4375 15.011719 106.261719 15.011719 106.042969 C 15.011719 105.824219 14.832031 105.644531 14.613281 105.644531 C 14.394531 105.644531 14.21875 105.824219 14.21875 106.042969 C 14.21875 106.261719 14.394531 106.4375 14.613281 106.4375 Z M 14.613281 105.910156 C 14.6875 105.910156 14.746094 105.96875 14.746094 106.042969 C 14.746094 106.113281 14.6875 106.171875 14.613281 106.171875 C 14.542969 106.171875 14.480469 106.113281 14.480469 106.042969 C 14.480469 105.96875 14.542969 105.910156 14.613281 105.910156 Z M 14.613281 105.910156 "/></g><g clip-rule="nonzero" clip-path="url(#290617777b)"><path style=" stroke:none;fill-rule:nonzero;fill:#000000;fill-opacity:1;" d="M 15.671875 106.171875 L 17.660156 106.171875 C 17.730469 106.171875 17.789062 106.113281 17.789062 106.042969 C 17.789062 105.96875 17.730469 105.910156 17.660156 105.910156 L 15.671875 105.910156 C 15.601562 105.910156 15.539062 105.96875 15.539062 106.042969 C 15.539062 106.113281 15.601562 106.171875 15.671875 106.171875 Z M 15.671875 106.171875 "/></g><g clip-rule="nonzero" clip-path="url(#d09198dec9)"><path style=" stroke:none;fill-rule:nonzero;fill:#000000;fill-opacity:1;" d="M 16.597656 108.886719 L 16.109375 108.886719 C 16.09375 108.835938 16.074219 108.789062 16.050781 108.742188 L 16.398438 108.394531 C 16.449219 108.34375 16.449219 108.261719 16.398438 108.210938 L 16.019531 107.832031 C 15.96875 107.78125 15.882812 107.78125 15.832031 107.832031 L 15.488281 108.175781 C 15.441406 108.15625 15.394531 108.136719 15.34375 108.117188 L 15.34375 107.628906 C 15.34375 107.554688 15.285156 107.496094 15.210938 107.496094 L 14.679688 107.496094 C 14.605469 107.496094 14.546875 107.554688 14.546875 107.628906 L 14.546875 108.117188 C 14.496094 108.136719 14.449219 108.15625 14.402344 108.175781 L 14.058594 107.832031 C 14.003906 107.78125 13.921875 107.78125 13.871094 107.832031 L 13.492188 108.210938 C 13.441406 108.261719 13.441406 108.34375 13.492188 108.394531 L 13.839844 108.742188 C 13.816406 108.789062 13.796875 108.835938 13.78125 108.886719 L 13.289062 108.886719 C 13.21875 108.886719 13.160156 108.945312 13.160156 109.015625 L 13.160156 109.550781 C 13.160156 109.625 13.21875 109.683594 13.289062 109.683594 L 13.78125 109.683594 C 13.796875 109.730469 13.816406 109.78125 13.839844 109.824219 L 13.492188 110.171875 C 13.441406 110.222656 13.441406 110.308594 13.492188 110.359375 L 13.871094 110.734375 C 13.921875 110.789062 14.003906 110.789062 14.058594 110.734375 L 14.402344 110.390625 C 14.449219 110.414062 14.496094 110.433594 14.546875 110.449219 L 14.546875 110.9375 C 14.546875 111.011719 14.605469 111.070312 14.679688 111.070312 L 15.210938 111.070312 C 15.285156 111.070312 15.34375 111.011719 15.34375 110.9375 L 15.34375 110.449219 C 15.394531 110.433594 15.441406 110.414062 15.488281 110.390625 L 15.832031 110.734375 C 15.882812 110.789062 15.96875 110.789062 16.019531 110.734375 L 16.398438 110.359375 C 16.449219 110.308594 16.449219 110.222656 16.398438 110.171875 L 16.050781 109.824219 C 16.074219 109.78125 16.09375 109.730469 16.109375 109.683594 L 16.597656 109.683594 C 16.671875 109.683594 16.730469 109.625 16.730469 109.550781 L 16.730469 109.015625 C 16.730469 108.945312 16.671875 108.886719 16.597656 108.886719 Z M 16.46875 109.417969 L 16.011719 109.417969 C 15.949219 109.417969 15.898438 109.460938 15.882812 109.519531 C 15.859375 109.609375 15.824219 109.699219 15.773438 109.78125 C 15.742188 109.832031 15.75 109.898438 15.792969 109.941406 L 16.117188 110.265625 L 15.925781 110.457031 L 15.605469 110.132812 C 15.5625 110.089844 15.496094 110.082031 15.441406 110.113281 C 15.359375 110.164062 15.273438 110.199219 15.179688 110.222656 C 15.121094 110.238281 15.078125 110.289062 15.078125 110.351562 L 15.078125 110.804688 L 14.808594 110.804688 L 14.808594 110.351562 C 14.808594 110.289062 14.769531 110.238281 14.710938 110.222656 C 14.617188 110.199219 14.53125 110.164062 14.449219 110.113281 C 14.394531 110.082031 14.328125 110.089844 14.285156 110.132812 L 13.964844 110.457031 L 13.773438 110.265625 L 14.097656 109.941406 C 14.140625 109.898438 14.148438 109.832031 14.117188 109.78125 C 14.066406 109.699219 14.03125 109.609375 14.007812 109.519531 C 13.992188 109.460938 13.9375 109.417969 13.878906 109.417969 L 13.421875 109.417969 L 13.421875 109.148438 L 13.878906 109.148438 C 13.9375 109.148438 13.992188 109.109375 14.007812 109.050781 C 14.03125 108.957031 14.066406 108.867188 14.117188 108.785156 C 14.148438 108.734375 14.140625 108.667969 14.097656 108.625 L 13.773438 108.304688 L 13.964844 108.113281 L 14.285156 108.433594 C 14.328125 108.476562 14.394531 108.484375 14.449219 108.453125 C 14.53125 108.40625 14.617188 108.367188 14.710938 108.34375 C 14.769531 108.332031 14.808594 108.277344 14.808594 108.21875 L 14.808594 107.761719 L 15.078125 107.761719 L 15.078125 108.21875 C 15.078125 108.277344 15.121094 108.332031 15.179688 108.34375 C 15.273438 108.367188 15.359375 108.40625 15.441406 108.453125 C 15.496094 108.484375 15.5625 108.476562 15.605469 108.433594 L 15.925781 108.113281 L 16.117188 108.304688 L 15.792969 108.625 C 15.75 108.667969 15.742188 108.734375 15.773438 108.785156 C 15.824219 108.867188 15.859375 108.957031 15.882812 109.050781 C 15.898438 109.109375 15.949219 109.148438 16.011719 109.148438 L 16.46875 109.148438 Z M 16.46875 109.417969 "/></g><path style=" stroke:none;fill-rule:nonzero;fill:#000000;fill-opacity:1;" d="M 14.945312 108.6875 C 14.617188 108.6875 14.347656 108.957031 14.347656 109.285156 C 14.347656 109.613281 14.617188 109.878906 14.945312 109.878906 C 15.273438 109.878906 15.542969 109.613281 15.542969 109.285156 C 15.542969 108.957031 15.273438 108.6875 14.945312 108.6875 Z M 14.945312 109.617188 C 14.761719 109.617188 14.613281 109.46875 14.613281 109.285156 C 14.613281 109.101562 14.761719 108.953125 14.945312 108.953125 C 15.128906 108.953125 15.277344 109.101562 15.277344 109.285156 C 15.277344 109.46875 15.128906 109.617188 14.945312 109.617188 Z M 14.945312 109.617188 "/><g clip-rule="nonzero" clip-path="url(#629110f011)"><path style=" stroke:none;fill-rule:nonzero;fill:#000000;fill-opacity:1;" d="M 17.789062 105.113281 L 12.097656 105.113281 C 11.808594 105.113281 11.570312 105.351562 11.570312 105.644531 L 11.570312 111.335938 C 11.570312 111.628906 11.808594 111.863281 12.097656 111.863281 L 17.789062 111.863281 C 18.082031 111.863281 18.320312 111.628906 18.320312 111.335938 L 18.320312 105.644531 C 18.320312 105.351562 18.082031 105.113281 17.789062 105.113281 Z M 12.097656 105.378906 L 17.789062 105.378906 C 17.9375 105.378906 18.054688 105.5 18.054688 105.644531 L 18.054688 106.703125 L 11.835938 106.703125 L 11.835938 105.644531 C 11.835938 105.5 11.953125 105.378906 12.097656 105.378906 Z M 17.789062 111.601562 L 12.097656 111.601562 C 11.953125 111.601562 11.835938 111.480469 11.835938 111.335938 L 11.835938 106.96875 L 18.054688 106.96875 L 18.054688 111.335938 C 18.054688 111.480469 17.9375 111.601562 17.789062 111.601562 Z M 17.789062 111.601562 "/></g></g></svg>